<svg width="70" height="48" viewBox="0 0 70 48" fill="none" xmlns="http://www.w3.org/2000/svg">
<path d="M15.817 23.147C15.0797 23.147 14.4007 23.0093 13.78 22.734C13.164 22.454 12.6273 22.0667 12.17 21.572C11.7173 21.0727 11.365 20.4917 11.113 19.829C10.8657 19.1617 10.742 18.4407 10.742 17.666C10.742 16.8867 10.8657 16.1657 11.113 15.503C11.365 14.8403 11.7173 14.2617 12.17 13.767C12.6273 13.2677 13.164 12.8803 13.78 12.605C14.4007 12.3297 15.0797 12.192 15.817 12.192C16.5543 12.192 17.2333 12.3297 17.854 12.605C18.4747 12.8803 19.0113 13.2677 19.464 13.767C19.9213 14.2617 20.276 14.8403 20.528 15.503C20.78 16.1657 20.906 16.8867 20.906 17.666C20.906 18.4407 20.78 19.1617 20.528 19.829C20.276 20.4917 19.9213 21.0727 19.464 21.572C19.0113 22.0667 18.4747 22.454 17.854 22.734C17.2333 23.0093 16.5543 23.147 15.817 23.147ZM15.817 22.489C16.2323 22.489 16.608 22.4143 16.944 22.265C17.2847 22.1157 17.5833 21.901 17.84 21.621C18.1013 21.3363 18.3207 20.9957 18.498 20.599C18.6753 20.2023 18.8083 19.7543 18.897 19.255C18.9857 18.7557 19.03 18.2143 19.03 17.631C19.03 17.057 18.9857 16.525 18.897 16.035C18.8083 15.5403 18.6777 15.097 18.505 14.705C18.3323 14.313 18.1153 13.9793 17.854 13.704C17.5973 13.424 17.2987 13.2117 16.958 13.067C16.622 12.9177 16.2463 12.843 15.831 12.843C15.4157 12.843 15.0377 12.9177 14.697 13.067C14.3563 13.2117 14.0553 13.424 13.794 13.704C13.5373 13.984 13.3203 14.3223 13.143 14.719C12.9703 15.111 12.8397 15.5543 12.751 16.049C12.6623 16.5437 12.618 17.0803 12.618 17.659C12.618 18.2377 12.6623 18.7743 12.751 19.269C12.8397 19.7637 12.9703 20.2093 13.143 20.606C13.3203 21.0027 13.5373 21.341 13.794 21.621C14.0507 21.901 14.347 22.1157 14.683 22.265C15.0237 22.4143 15.4017 22.489 15.817 22.489ZM22.1424 23V22.664L23.3324 22.384V12.948L22.1424 12.675V12.339H26.5034C27.2407 12.339 27.8917 12.4627 28.4564 12.71C29.021 12.9527 29.462 13.3097 29.7794 13.781C30.0967 14.2477 30.2554 14.8217 30.2554 15.503C30.2554 16.455 29.9007 17.183 29.1914 17.687C28.482 18.191 27.5137 18.443 26.2864 18.443H24.9074V22.384L26.5034 22.664V23H22.1424ZM24.9074 17.883H25.8244C26.3844 17.883 26.83 17.82 27.1614 17.694C27.4974 17.5633 27.7657 17.3837 27.9664 17.155C28.1764 16.917 28.321 16.6463 28.4004 16.343C28.4844 16.035 28.5264 15.7107 28.5264 15.37C28.5264 14.796 28.4237 14.3177 28.2184 13.935C28.013 13.5523 27.7237 13.2793 27.3504 13.116C27.0657 12.976 26.6364 12.906 26.0624 12.906H24.9074V17.883ZM31.2889 23V22.664L32.4789 22.384V12.941L31.2889 12.675V12.339H35.3699V12.675L34.0539 12.941V22.419H37.9809C38.2329 21.9943 38.4499 21.5673 38.6319 21.138C38.8139 20.7087 38.9889 20.228 39.1569 19.696H39.5699L39.0449 23H31.2889ZM41.5339 23V22.664L42.7659 22.384V18.457L39.9729 13.522C39.8609 13.3213 39.7536 13.165 39.6509 13.053C39.5482 12.9363 39.4106 12.85 39.2379 12.794C39.0699 12.738 38.8249 12.6983 38.5029 12.675V12.339H43.1999V12.675C42.4812 12.7217 42.0379 12.8127 41.8699 12.948C41.7066 13.0833 41.7252 13.3493 41.9259 13.746L44.1519 17.75H44.2009L46.0769 14.187C46.3009 13.7297 46.3056 13.3727 46.0909 13.116C45.8762 12.8593 45.4469 12.7123 44.8029 12.675V12.339H48.7509V12.675C48.3962 12.7263 48.1139 12.7917 47.9039 12.871C47.6939 12.9457 47.5282 13.0413 47.4069 13.158C47.2856 13.2747 47.1782 13.4193 47.0849 13.592C46.9916 13.7647 46.8796 13.9723 46.7489 14.215L44.3409 18.674V22.384L45.5589 22.664V23H41.5339ZM52.5089 23.126C52.1263 23.126 51.7529 23.07 51.3889 22.958C51.0296 22.846 50.6493 22.671 50.2479 22.433L49.6949 23H49.4079L49.1489 19.451L49.5269 19.374C49.8069 20.4707 50.1756 21.2663 50.6329 21.761C51.0949 22.2557 51.7039 22.503 52.4599 22.503C53.0946 22.503 53.5963 22.3513 53.9649 22.048C54.3336 21.74 54.5179 21.3247 54.5179 20.802C54.5179 20.3913 54.3896 20.025 54.1329 19.703C53.8809 19.3763 53.4656 19.0497 52.8869 18.723L51.8159 18.156C50.9433 17.6847 50.3179 17.2157 49.9399 16.749C49.5619 16.2823 49.3729 15.7387 49.3729 15.118C49.3729 14.558 49.5106 14.0587 49.7859 13.62C50.0613 13.1767 50.4369 12.829 50.9129 12.577C51.3936 12.3203 51.9326 12.192 52.5299 12.192C53.3466 12.192 54.0583 12.479 54.6649 13.053L55.0919 12.325H55.3929L55.5189 15.384H55.1199C54.9006 14.5113 54.5833 13.8673 54.1679 13.452C53.7573 13.032 53.2323 12.822 52.5929 12.822C52.0749 12.822 51.6643 12.9597 51.3609 13.235C51.0623 13.5103 50.9129 13.8883 50.9129 14.369C50.9129 14.803 51.0553 15.1903 51.3399 15.531C51.6293 15.8717 52.1146 16.2217 52.7959 16.581L53.8389 17.141C54.5529 17.519 55.0686 17.939 55.3859 18.401C55.7079 18.863 55.8689 19.3927 55.8689 19.99C55.8689 20.5827 55.7196 21.117 55.4209 21.593C55.1269 22.0643 54.7256 22.4377 54.2169 22.713C53.7129 22.9883 53.1436 23.126 52.5089 23.126ZM59.6088 23V22.664L61.1558 22.384V12.913H58.4398C58.1411 13.3097 57.8868 13.725 57.6768 14.159C57.4714 14.593 57.3011 15.006 57.1658 15.398H56.8018L57.3128 12.339H66.5248L67.0358 15.398H66.6788C66.5434 15.006 66.3708 14.593 66.1608 14.159C65.9554 13.725 65.7034 13.3097 65.4048 12.913H62.7308V22.384L64.2498 22.664V23H59.6088Z" fill="white"/>
<path d="M11.286 30V29.844L11.8645 29.714V25.3297L11.286 25.2062V25.0502H13.1645V25.2062L12.5958 25.3297V29.714L13.1645 29.844V30H11.286ZM17.7662 30.1203L14.5942 25.7587V29.714L15.1694 29.844V30H13.7362V29.844L14.3147 29.714V25.3297L13.7362 25.2062V25.0502H15.0947L17.7174 28.6122V25.3297L17.1454 25.2062V25.0502H18.5787V25.2062L17.9969 25.3297V30.1203H17.7662ZM20.1757 30V29.844L20.894 29.714V25.3167H19.633C19.4943 25.5009 19.3762 25.6937 19.2787 25.8952C19.1834 26.0967 19.1043 26.2885 19.0415 26.4705H18.8725L19.1097 25.0502H23.3867L23.624 26.4705H23.4582C23.3954 26.2885 23.3152 26.0967 23.2177 25.8952C23.1224 25.6937 23.0054 25.5009 22.8667 25.3167H21.6252V29.714L22.3305 29.844V30H20.1757ZM23.9881 30V29.844L24.5406 29.714V25.3297L23.9881 25.2062V25.0502H27.6151L27.7289 26.464H27.5566C27.5046 26.282 27.4407 26.0913 27.3649 25.892C27.2912 25.6905 27.2002 25.4987 27.0919 25.3167H25.2719V29.7302H27.0594C27.1872 29.5222 27.2912 29.3164 27.3714 29.1127C27.4537 28.9091 27.5317 28.7032 27.6054 28.4952H27.8329L27.5891 30H23.9881ZM26.6206 28.2905C26.599 28.1605 26.5686 28.0316 26.5296 27.9037C26.4906 27.7759 26.4397 27.6492 26.3769 27.5235H25.1809V27.2537H26.3769C26.4397 27.1259 26.4895 26.9981 26.5264 26.8702C26.5654 26.7402 26.5968 26.6124 26.6206 26.4867H26.7896V28.2905H26.6206ZM28.4696 30V29.844L29.0221 29.714V25.333L28.4696 25.2062V25.0502H30.4618C30.7976 25.0502 31.0945 25.1044 31.3523 25.2127C31.6123 25.3189 31.8149 25.4771 31.9601 25.6872C32.1074 25.8952 32.1811 26.152 32.1811 26.4575C32.1811 26.776 32.0879 27.0382 31.9016 27.244C31.7174 27.4498 31.4574 27.5939 31.1216 27.6762L32.4768 29.714L33.1886 29.844V30H31.7456L30.3221 27.7607H29.7533V29.714L30.4846 29.844V30H28.4696ZM29.7533 27.4975H30.1303C30.3946 27.4975 30.6026 27.4661 30.7543 27.4032C30.9081 27.3404 31.0327 27.2559 31.1281 27.1497C31.2234 27.0436 31.2906 26.9255 31.3296 26.7955C31.3707 26.6633 31.3913 26.529 31.3913 26.3925C31.3913 26.1347 31.3393 25.9223 31.2353 25.7555C31.1313 25.5887 30.9872 25.4684 30.8031 25.3947C30.7294 25.3644 30.6481 25.3438 30.5593 25.333C30.4705 25.32 30.3589 25.3135 30.2246 25.3135H29.7533V27.4975ZM37.2345 30.1203L34.0625 25.7587V29.714L34.6377 29.844V30H33.2045V29.844L33.783 29.714V25.3297L33.2045 25.2062V25.0502H34.563L37.1857 28.6122V25.3297L36.6137 25.2062V25.0502H38.047V25.2062L37.4652 25.3297V30.1203H37.2345ZM38.101 30V29.844C38.3242 29.8072 38.4921 29.7627 38.6047 29.7107C38.7174 29.6566 38.8019 29.584 38.8582 29.493C38.9146 29.3998 38.9698 29.2774 39.024 29.1257L40.2687 25.684L40.0867 25.2712L40.7627 24.9202L42.4787 29.4475C42.5156 29.5472 42.5557 29.623 42.599 29.675C42.6445 29.727 42.7084 29.7649 42.7907 29.7887C42.8731 29.8126 42.989 29.831 43.1385 29.844V30H41.013V29.844C41.2232 29.831 41.3802 29.8158 41.4842 29.7985C41.5882 29.779 41.6478 29.7367 41.663 29.6717C41.6782 29.6046 41.6587 29.4952 41.6045 29.3435L40.4345 26.1357H40.415L39.3132 29.2005C39.2656 29.3327 39.2526 29.441 39.2742 29.5255C39.2959 29.6078 39.3598 29.6739 39.466 29.7237C39.5722 29.7714 39.7271 29.8115 39.9307 29.844V30H38.101ZM39.557 28.232V27.959H41.338V28.232H39.557ZM43.9413 30V29.844L44.6596 29.714V25.3167H43.3986C43.2599 25.5009 43.1418 25.6937 43.0443 25.8952C42.949 26.0967 42.8699 26.2885 42.8071 26.4705H42.6381L42.8753 25.0502H47.1523L47.3896 26.4705H47.2238C47.161 26.2885 47.0808 26.0967 46.9833 25.8952C46.888 25.6937 46.771 25.5009 46.6323 25.3167H45.3908V29.714L46.0961 29.844V30H43.9413ZM47.7342 30V29.844L48.3127 29.714V25.3297L47.7342 25.2062V25.0502H49.6127V25.2062L49.044 25.3297V29.714L49.6127 29.844V30H47.7342ZM52.5294 30.0683C52.187 30.0683 51.8718 30.0043 51.5836 29.8765C51.2976 29.7465 51.0484 29.5667 50.8361 29.337C50.6259 29.1052 50.4624 28.8354 50.3454 28.5277C50.2305 28.2179 50.1731 27.8832 50.1731 27.5235C50.1731 27.1617 50.2305 26.8269 50.3454 26.5192C50.4624 26.2116 50.6259 25.9429 50.8361 25.7132C51.0484 25.4814 51.2976 25.3016 51.5836 25.1737C51.8718 25.0459 52.187 24.982 52.5294 24.982C52.8717 24.982 53.1869 25.0459 53.4751 25.1737C53.7633 25.3016 54.0124 25.4814 54.2226 25.7132C54.4349 25.9429 54.5996 26.2116 54.7166 26.5192C54.8336 26.8269 54.8921 27.1617 54.8921 27.5235C54.8921 27.8832 54.8336 28.2179 54.7166 28.5277C54.5996 28.8354 54.4349 29.1052 54.2226 29.337C54.0124 29.5667 53.7633 29.7465 53.4751 29.8765C53.1869 30.0043 52.8717 30.0683 52.5294 30.0683ZM52.5294 29.7627C52.7222 29.7627 52.8966 29.7281 53.0526 29.6587C53.2108 29.5894 53.3494 29.4897 53.4686 29.3597C53.5899 29.2276 53.6918 29.0694 53.7741 28.8852C53.8564 28.7011 53.9182 28.4931 53.9594 28.2612C54.0005 28.0294 54.0211 27.7781 54.0211 27.5072C54.0211 27.2407 54.0005 26.9937 53.9594 26.7662C53.9182 26.5366 53.8575 26.3307 53.7774 26.1487C53.6972 25.9667 53.5964 25.8118 53.4751 25.684C53.3559 25.554 53.2173 25.4554 53.0591 25.3882C52.9031 25.3189 52.7287 25.2842 52.5359 25.2842C52.343 25.2842 52.1675 25.3189 52.0094 25.3882C51.8512 25.4554 51.7114 25.554 51.5901 25.684C51.4709 25.814 51.3702 25.9711 51.2879 26.1552C51.2077 26.3372 51.147 26.5431 51.1059 26.7727C51.0647 27.0024 51.0441 27.2516 51.0441 27.5202C51.0441 27.7889 51.0647 28.0381 51.1059 28.2677C51.147 28.4974 51.2077 28.7043 51.2879 28.8885C51.3702 29.0727 51.4709 29.2297 51.5901 29.3597C51.7093 29.4897 51.8469 29.5894 52.0029 29.6587C52.161 29.7281 52.3365 29.7627 52.5294 29.7627ZM59.4766 30.1203L56.3046 25.7587V29.714L56.8799 29.844V30H55.4466V29.844L56.0251 29.714V25.3297L55.4466 25.2062V25.0502H56.8051L59.4279 28.6122V25.3297L58.8559 25.2062V25.0502H60.2891V25.2062L59.7074 25.3297V30.1203H59.4766ZM60.3432 30V29.844C60.5663 29.8072 60.7343 29.7627 60.8469 29.7107C60.9596 29.6566 61.0441 29.584 61.1004 29.493C61.1568 29.3998 61.212 29.2774 61.2662 29.1257L62.5109 25.684L62.3289 25.2712L63.0049 24.9202L64.7209 29.4475C64.7578 29.5472 64.7978 29.623 64.8412 29.675C64.8867 29.727 64.9506 29.7649 65.0329 29.7887C65.1153 29.8126 65.2312 29.831 65.3807 29.844V30H63.2552V29.844C63.4653 29.831 63.6224 29.8158 63.7264 29.7985C63.8304 29.779 63.89 29.7367 63.9052 29.6717C63.9203 29.6046 63.9008 29.4952 63.8467 29.3435L62.6767 26.1357H62.6572L61.5554 29.2005C61.5078 29.3327 61.4948 29.441 61.5164 29.5255C61.5381 29.6078 61.602 29.6739 61.7082 29.7237C61.8143 29.7714 61.9693 29.8115 62.1729 29.844V30H60.3432ZM61.7992 28.232V27.959H63.5802V28.232H61.7992ZM65.616 30V29.844L66.1685 29.714V25.3297L65.616 25.2062V25.0502H67.5108V25.2062L66.8998 25.3297V29.7302H68.723C68.84 29.5331 68.9408 29.3348 69.0253 29.1355C69.1098 28.9362 69.191 28.713 69.269 28.466H69.4608L69.217 30H65.616Z" fill="white"/>
<path d="M35.5259 36V35.904L35.8659 35.824V33.126L35.5259 33.05V32.954H36.6919V33.05L36.3159 33.126V35.834H37.4379C37.5099 35.7127 37.5719 35.5907 37.6239 35.468C37.6759 35.3453 37.7259 35.208 37.7739 35.056H37.8919L37.7419 36H35.5259ZM38.147 36V35.904L38.487 35.824V33.126L38.147 33.05V32.954H39.313V33.05L38.937 33.126V35.834H40.059C40.131 35.7127 40.193 35.5907 40.245 35.468C40.297 35.3453 40.347 35.208 40.395 35.056H40.513L40.363 36H38.147ZM42.2461 36.042C41.9594 36.042 41.7067 35.9767 41.4881 35.846C41.2707 35.7153 41.1007 35.534 40.9781 35.302C40.8567 35.0687 40.7961 34.8 40.7961 34.496C40.7961 34.264 40.8314 34.0513 40.9021 33.858C40.9741 33.6647 41.0754 33.4973 41.2061 33.356C41.3367 33.2147 41.4914 33.1053 41.6701 33.028C41.8487 32.9507 42.0447 32.912 42.2581 32.912C42.4154 32.912 42.5681 32.9333 42.7161 32.976C42.8654 33.0173 43.0001 33.0773 43.1201 33.156H43.1361L43.3281 32.954H43.4061V33.872H43.2761C43.2534 33.7987 43.2281 33.7327 43.2001 33.674C43.1734 33.6153 43.1447 33.5613 43.1141 33.512C43.0207 33.3627 42.9107 33.256 42.7841 33.192C42.6574 33.128 42.5067 33.096 42.3321 33.096C42.0094 33.096 41.7607 33.214 41.5861 33.45C41.4127 33.686 41.3261 34.0247 41.3261 34.466C41.3261 34.9073 41.4134 35.2487 41.5881 35.49C41.7641 35.7313 42.0121 35.852 42.3321 35.852C42.4907 35.852 42.6341 35.8207 42.7621 35.758C42.8901 35.694 42.9967 35.6007 43.0821 35.478C43.1314 35.4087 43.1734 35.33 43.2081 35.242C43.2441 35.154 43.2714 35.058 43.2901 34.954H43.4061V36H43.3041L43.1241 35.74C42.9827 35.8453 42.8414 35.922 42.7001 35.97C42.5601 36.018 42.4087 36.042 42.2461 36.042Z" fill="white"/>
<line x1="8.16901e-08" y1="1" x2="61" y2="1.00001" stroke="white" stroke-width="2"/>
<line x1="1" y1="-4.37114e-08" x2="1" y2="48" stroke="white" stroke-width="2"/>
<line x1="-6.94366e-08" y1="47.15" x2="61" y2="47.15" stroke="white" stroke-width="1.7"/>
<line x1="61.85" y1="3.71547e-08" x2="61.85" y2="11" stroke="white" stroke-width="1.7"/>
<line x1="61.85" y1="36" x2="61.85" y2="48" stroke="white" stroke-width="1.7"/>
</svg>
