<?xml version="1.0" encoding="UTF-8" standalone="no"?>
<!DOCTYPE svg PUBLIC "-//W3C//DTD SVG 1.1//EN" "http://www.w3.org/Graphics/SVG/1.1/DTD/svg11.dtd">
<svg xmlns="http://www.w3.org/2000/svg" version="1.1" viewBox="0.00 0.00 1024.00 1024.00">
<g stroke-width="2.00" fill="none" stroke-linecap="butt">
<path stroke="#a8a7a8" vector-effect="non-scaling-stroke" d="
  M 494.49 254.68
  C 382.72 262.40 288.28 340.27 259.01 448.29"
/>
<path stroke="#8c8b8c" vector-effect="non-scaling-stroke" d="
  M 259.01 448.29
  C 231.75 551.74 271.07 660.02 357.60 722.92"
/>
<path stroke="#f7f7f7" vector-effect="non-scaling-stroke" d="
  M 357.60 722.92
  L 356.65 723.05
  Q 356.50 723.07 356.50 723.23
  Q 356.50 723.44 356.50 723.65
  A 0.33 0.32 -3.0 0 0 356.87 723.98
  Q 358.13 723.82 357.95 725.02
  A 0.33 0.32 26.5 0 1 357.40 725.20
  L 357.19 724.98
  A 0.06 0.06 0.0 0 0 357.09 725.00
  C 355.87 727.20 354.20 726.94 352.52 728.13
  C 350.13 729.84 349.88 729.63 347.00 729.51
  C 341.71 729.29 334.51 731.23 330.49 735.66
  A 0.70 0.69 -50.9 0 1 329.57 735.76
  Q 327.37 734.17 325.63 735.90
  A 1.64 1.56 16.3 0 1 324.78 736.34
  L 321.50 736.94
  Q 321.10 737.02 320.71 736.89
  Q 318.65 736.22 316.73 737.24
  Q 316.29 737.48 315.80 737.52
  Q 314.08 737.66 312.76 738.74
  Q 312.33 739.09 311.80 739.18
  Q 309.58 739.58 307.37 740.11
  C 305.49 740.56 303.54 742.27 300.77 741.57
  Q 300.29 741.45 299.84 741.64
  C 294.49 743.79 288.36 743.72 282.10 745.85
  C 276.83 747.64 271.59 748.62 266.36 750.25
  C 263.83 751.04 261.49 750.84 258.88 751.68
  Q 255.30 752.83 251.53 753.14
  C 247.82 753.45 245.80 755.10 243.07 757.22
  C 240.74 759.04 236.62 760.81 233.74 761.72
  C 228.72 763.31 226.48 766.53 222.12 768.77
  C 219.53 770.10 217.91 771.87 215.10 773.14
  Q 211.31 774.86 208.84 778.36
  A 1.55 1.55 0.0 0 1 208.04 778.95
  Q 202.45 780.78 200.78 786.50
  Q 200.65 786.93 200.29 787.20
  Q 194.12 791.89 198.98 798.17
  A 1.66 1.66 0.0 0 1 199.33 799.19
  Q 199.30 802.18 201.64 803.98
  Q 202.05 804.28 202.55 804.30
  Q 205.30 804.37 206.75 806.44
  Q 207.05 806.87 207.53 807.07
  Q 212.95 809.40 217.28 813.30
  C 219.02 814.88 221.17 815.41 223.18 816.55
  C 228.54 819.61 234.62 821.65 240.39 823.81
  C 249.46 827.21 259.56 829.81 269.14 832.80
  C 275.50 834.79 281.55 836.19 287.85 837.64
  Q 287.95 837.66 287.98 837.57
  Q 288.02 837.46 288.05 837.33
  Q 288.06 837.29 288.10 837.29
  C 292.36 837.71 296.60 839.41 300.29 840.04
  C 313.46 842.27 326.70 845.45 339.83 846.87
  Q 347.92 847.74 356.01 848.59
  C 366.81 849.71 379.22 852.54 390.75 853.49
  Q 445.56 858.00 503.57 858.91
  C 508.33 858.98 516.02 859.63 522.29 859.30
  C 528.69 858.96 534.93 859.48 540.19 859.16
  Q 560.36 857.94 580.57 857.54
  C 593.91 857.28 607.17 856.22 620.49 855.64
  Q 622.99 855.54 625.34 854.59
  Q 625.81 854.40 626.30 854.46
  C 640.00 856.01 653.01 850.81 666.58 850.35
  C 667.96 850.30 670.99 851.19 672.01 850.54
  Q 675.34 848.44 679.21 849.19
  Q 679.71 849.28 680.17 849.09
  C 683.66 847.60 687.48 847.91 690.43 847.30
  Q 703.08 844.68 712.76 843.05
  Q 718.35 842.10 722.90 840.86
  C 724.73 840.36 726.48 840.63 728.43 840.09
  C 738.05 837.40 747.69 836.43 757.29 833.08
  C 767.74 829.43 775.50 826.76 788.99 821.27
  C 792.79 819.72 796.89 816.68 801.45 815.28
  C 805.04 814.17 806.12 813.33 808.29 810.60
  Q 810.01 808.43 812.59 809.45
  Q 813.02 809.62 813.47 809.50
  L 815.54 808.95
  Q 816.12 808.80 816.40 809.33
  L 816.87 810.20
  A 0.98 0.97 47.6 0 0 818.55 810.28
  L 820.64 807.07
  Q 820.87 806.72 820.75 806.31
  C 820.40 805.13 817.98 802.87 818.40 802.20
  Q 818.66 801.78 818.31 801.44
  L 817.04 800.17
  Q 816.77 799.89 816.82 799.50
  Q 817.26 796.57 819.82 796.99
  Q 820.31 797.07 820.47 796.60
  Q 822.08 792.02 819.72 787.72
  A 0.90 0.89 -14.9 0 0 818.92 787.26
  Q 818.13 787.28 817.86 786.69
  Q 813.68 777.35 804.71 773.31
  Q 801.45 771.84 799.04 766.84
  Q 798.80 766.33 798.24 766.26
  Q 795.84 765.98 794.31 764.17
  A 1.36 1.30 -64.5 0 1 794.00 763.23
  Q 794.05 762.33 793.35 761.75
  Q 792.86 761.34 792.39 761.78
  L 791.23 762.86
  Q 790.74 763.32 790.28 762.83
  L 788.86 761.31
  Q 788.68 761.12 788.50 761.32
  L 787.88 762.01
  Q 787.48 762.45 786.95 762.17
  C 783.71 760.43 780.82 761.82 777.76 759.13
  Q 777.45 758.86 777.82 758.66
  C 779.05 757.99 782.47 758.53 782.67 758.17
  Q 782.85 757.85 782.51 757.71
  Q 778.19 755.99 773.53 756.41
  A 1.01 1.01 0.0 0 1 772.60 755.98
  Q 769.37 751.42 763.59 752.65
  A 1.87 1.87 0.0 0 1 762.43 752.53
  L 754.89 749.16
  Q 754.54 749.00 754.31 749.31
  Q 754.15 749.52 754.41 749.77
  A 0.49 0.49 0.0 0 1 754.28 750.55
  Q 752.93 751.20 752.07 749.79
  A 0.50 0.50 0.0 0 1 752.43 749.03
  L 752.70 749.00
  Q 753.38 748.90 752.71 748.76
  Q 745.21 747.10 737.58 746.05
  C 735.15 745.72 733.38 744.06 730.51 744.25
  A 1.36 1.29 58.6 0 1 729.69 744.03
  C 727.99 742.93 726.00 743.34 724.42 742.92
  C 718.33 741.30 712.25 740.74 706.02 739.72
  C 702.87 739.20 698.92 738.78 695.34 737.64
  C 692.93 736.87 690.30 737.40 687.76 736.43
  C 684.16 735.04 680.58 735.12 676.90 733.58
  C 674.71 732.67 673.70 730.03 670.56 731.85
  A 0.77 0.76 51.6 0 1 669.67 731.74
  Q 666.86 729.13 662.91 729.63
  Q 662.52 729.68 662.19 729.46
  L 659.74 727.90
  Q 659.60 727.80 659.63 727.64
  Q 659.85 726.44 660.90 726.49
  Q 661.43 726.51 661.32 725.99
  Q 661.17 725.25 660.51 724.82"
/>
<path stroke="#8c8b8c" vector-effect="non-scaling-stroke" d="
  M 660.51 724.82
  C 735.01 672.51 777.17 584.42 769.84 493.19
  C 758.45 351.35 635.75 246.65 494.49 254.68"
/>
<path stroke="#848383" vector-effect="non-scaling-stroke" d="
  M 660.51 724.82
  Q 624.05 750.02 581.25 762.00"
/>
<path stroke="#777271" vector-effect="non-scaling-stroke" d="
  M 581.25 762.00
  Q 508.25 782.08 435.87 761.20"
/>
<path stroke="#848383" vector-effect="non-scaling-stroke" d="
  M 435.87 761.20
  Q 393.24 748.54 357.60 722.92"
/>
<path stroke="#343334" vector-effect="non-scaling-stroke" d="
  M 259.01 448.29
  Q 263.16 448.65 265.40 449.67"
/>
<path stroke="#414041" vector-effect="non-scaling-stroke" d="
  M 265.40 449.67
  L 260.26 472.05
  Q 260.14 472.57 260.68 472.51
  Q 279.10 470.20 297.21 466.30"
/>
<path stroke="#6b332e" vector-effect="non-scaling-stroke" d="
  M 297.21 466.30
  Q 279.30 549.47 319.97 621.84
  C 353.57 681.64 416.12 721.44 483.73 729.99"
/>
<path stroke="#632927" vector-effect="non-scaling-stroke" d="
  M 483.73 729.99
  C 565.67 740.92 646.40 702.94 692.93 635.78
  C 749.06 554.75 741.06 443.92 676.10 370.11"
/>
<path stroke="#6b332e" vector-effect="non-scaling-stroke" d="
  M 676.10 370.11
  C 654.06 345.60 626.70 326.17 596.25 313.40"
/>
<path stroke="#343334" vector-effect="non-scaling-stroke" d="
  M 596.25 313.40
  Q 598.05 311.61 599.73 310.47
  Q 614.23 300.62 628.40 289.97
  Q 628.83 289.65 628.35 289.41
  Q 591.23 270.21 550.63 263.69"
/>
<path stroke="#414041" vector-effect="non-scaling-stroke" d="
  M 550.63 263.69
  Q 522.06 259.04 493.64 261.06"
/>
<path stroke="#343334" vector-effect="non-scaling-stroke" d="
  M 493.64 261.06
  Q 495.16 257.88 494.49 254.68"
/>
<path stroke="#945c57" vector-effect="non-scaling-stroke" d="
  M 297.53 466.01
  Q 297.21 465.99 297.21 466.30"
/>
<path stroke="#e2dedc" vector-effect="non-scaling-stroke" d="
  M 435.87 761.20
  L 435.60 761.75
  A 0.65 0.65 0.0 0 1 434.85 762.08
  C 432.52 761.46 430.52 760.48 428.09 760.46
  C 411.74 760.37 394.22 762.11 380.69 762.65
  Q 347.44 763.98 316.75 768.27
  C 311.37 769.03 293.03 771.41 289.70 775.42
  Q 288.72 776.59 290.07 777.28
  C 295.60 780.13 300.79 781.49 307.50 782.47
  Q 345.92 788.10 384.75 789.54
  C 385.96 789.58 387.92 789.84 389.12 790.79
  Q 396.57 796.72 407.04 799.64
  Q 408.52 800.05 409.35 800.05
  A 1.70 1.69 -27.9 0 1 410.30 800.34
  Q 412.69 801.96 415.66 801.95
  Q 416.00 801.95 416.00 802.29
  L 416.00 802.71
  A 0.55 0.55 0.0 0 0 416.41 803.24
  C 434.67 808.08 450.00 809.40 471.00 811.24
  C 474.70 811.57 478.48 811.53 482.90 811.93
  C 486.73 812.28 491.04 811.94 494.36 812.07
  Q 527.25 813.31 560.07 810.62
  Q 571.56 809.68 578.26 808.26
  C 590.02 805.75 596.69 805.02 607.34 800.95
  Q 607.78 800.78 608.01 800.36
  Q 608.33 799.77 609.07 799.96
  Q 609.54 800.09 609.99 799.92
  Q 617.81 797.13 624.70 792.57
  Q 625.17 792.26 625.13 791.69
  Q 624.97 789.68 627.50 789.56
  Q 651.94 788.42 684.82 784.92
  C 695.23 783.82 709.24 782.31 718.46 777.18
  A 1.01 1.01 0.0 0 0 718.71 775.61
  C 715.44 772.11 708.08 770.67 703.49 769.82
  C 674.29 764.42 643.91 762.80 614.28 761.71
  C 603.24 761.30 592.84 759.46 581.99 762.96
  Q 581.13 763.23 581.25 762.00"
/>
<path stroke="#b6463d" vector-effect="non-scaling-stroke" d="
  M 676.10 370.11
  Q 674.86 370.15 675.11 371.46
  Q 675.14 371.60 675.00 371.66
  Q 674.87 371.72 674.73 371.74
  A 0.38 0.38 0.0 0 0 674.43 372.19
  L 675.87 379.02
  A 0.64 0.64 0.0 0 1 675.50 379.73
  L 672.19 381.15
  A 0.13 0.13 0.0 0 1 672.00 381.03
  Q 672.00 380.90 672.00 380.75
  Q 672.01 380.31 671.64 380.55
  Q 669.55 381.92 667.71 383.66
  A 1.33 1.33 0.0 0 0 667.33 384.36
  Q 666.98 386.12 668.19 387.32
  A 0.54 0.44 67.2 0 1 667.93 388.22
  Q 667.14 388.07 666.59 388.54
  Q 666.08 388.97 665.64 388.46
  Q 664.68 387.34 663.79 388.25"
/>
<path stroke="#d79f99" vector-effect="non-scaling-stroke" d="
  M 663.79 388.25
  C 642.58 363.91 614.76 343.20 584.40 331.66"
/>
<path stroke="#dfa7a1" vector-effect="non-scaling-stroke" d="
  M 584.40 331.66
  L 574.69 327.82"
/>
<path stroke="#5d5c5d" vector-effect="non-scaling-stroke" d="
  M 493.64 261.06
  L 479.95 262.44"
/>
<path stroke="#676667" vector-effect="non-scaling-stroke" d="
  M 479.95 262.44
  C 380.89 276.27 301.20 341.91 269.14 436.91"
/>
<path stroke="#5d5c5d" vector-effect="non-scaling-stroke" d="
  M 269.14 436.91
  L 265.40 449.67"
/>
<path stroke="#874f4a" vector-effect="non-scaling-stroke" d="
  M 596.25 313.40
  Q 596.80 313.19 596.00 313.25"
/>
<path stroke="#9b7771" vector-effect="non-scaling-stroke" d="
  M 596.00 313.25
  Q 566.33 300.59 533.95 297.38"
/>
<path stroke="#5d5c5d" vector-effect="non-scaling-stroke" d="
  M 550.63 263.69
  C 548.59 267.53 545.71 271.12 544.96 275.40
  C 544.68 276.96 544.04 280.43 542.42 281.05
  Q 541.97 281.23 541.89 281.71
  Q 541.53 283.99 539.94 285.65
  Q 539.58 286.04 539.54 286.57
  Q 539.38 288.59 537.70 289.85
  A 2.68 2.57 87.2 0 0 536.96 290.70
  Q 535.84 292.74 536.79 294.90
  Q 536.94 295.25 537.32 295.25
  L 539.02 295.25
  Q 539.81 295.25 539.18 295.72
  L 538.68 296.09
  Q 538.45 296.26 538.73 296.25
  Q 538.86 296.25 539.01 296.24
  A 0.23 0.11 -38.2 0 1 538.85 296.57
  Q 536.52 297.29 533.95 297.38"
/>
<path stroke="#a7847e" vector-effect="non-scaling-stroke" d="
  M 533.95 297.38
  Q 491.23 293.20 449.68 305.31"
/>
<path stroke="#747374" vector-effect="non-scaling-stroke" d="
  M 449.68 305.31
  C 449.06 305.23 449.22 304.93 449.51 304.59
  Q 449.67 304.40 449.44 304.29
  L 448.92 304.05
  Q 448.34 303.78 448.77 303.31
  Q 451.43 300.36 453.25 296.87
  Q 453.48 296.43 453.89 296.15
  Q 454.87 295.49 455.45 294.39
  Q 455.70 293.92 456.15 293.62
  Q 458.10 292.35 458.61 290.05
  Q 458.74 289.52 459.29 289.55
  Q 461.23 289.65 461.28 287.64
  A 1.59 1.58 -22.9 0 1 461.69 286.63
  Q 463.41 284.72 465.24 282.93
  C 467.71 280.51 469.43 277.45 472.05 274.92
  C 473.92 273.12 474.94 270.62 477.31 268.94
  Q 477.73 268.64 477.89 268.15
  C 478.53 266.20 480.39 264.46 479.95 262.44"
/>
<path stroke="#b6463d" vector-effect="non-scaling-stroke" d="
  M 483.73 729.99
  Q 486.09 729.17 488.39 730.26
  A 0.23 0.22 22.3 0 0 488.71 730.13
  L 488.81 729.81
  A 0.57 0.57 0.0 0 0 488.35 729.06
  Q 487.93 728.99 487.99 728.53
  A 1.67 1.58 -57.5 0 0 487.81 727.60
  Q 485.47 723.22 480.79 721.96
  C 476.75 720.86 471.53 718.07 472.76 712.88
  Q 472.89 712.36 473.42 712.29
  Q 475.97 711.93 478.20 713.09
  A 0.48 0.47 78.4 0 0 478.72 712.30
  C 475.96 710.05 473.52 708.76 469.79 708.00
  Q 458.19 705.65 447.00 701.74
  Q 446.67 701.63 446.33 701.69
  Q 445.82 701.78 445.36 701.54
  C 443.28 700.44 435.91 696.99 433.83 697.45
  Q 433.32 697.56 432.98 697.16
  C 431.22 695.10 428.59 694.81 426.84 693.98
  Q 421.76 691.57 416.57 689.62
  Q 416.12 689.45 416.03 688.98
  Q 415.71 687.36 416.79 687.40"
/>
<path stroke="#ce9692" vector-effect="non-scaling-stroke" d="
  M 663.79 388.25
  C 731.91 470.68 722.97 588.43 644.12 660.02
  C 581.83 716.58 490.86 726.27 416.79 687.40"
/>
<path stroke="#d79f99" vector-effect="non-scaling-stroke" d="
  M 416.79 687.40
  C 337.93 645.46 296.18 556.08 317.87 468.96"
/>
<path stroke="#a09f9f" vector-effect="non-scaling-stroke" d="
  M 370.41 444.04
  L 374.05 445.95"
/>
<path stroke="#848383" vector-effect="non-scaling-stroke" d="
  M 374.05 445.95
  Q 379.55 449.30 385.26 452.35
  C 390.76 455.28 395.61 445.79 391.20 442.25"
/>
<path stroke="#d79f99" vector-effect="non-scaling-stroke" d="
  M 503.10 418.00
  L 503.08 495.04"
/>
<path stroke="#848383" vector-effect="non-scaling-stroke" d="
  M 503.08 495.04
  L 424.84 432.15
  Q 424.12 431.57 423.51 432.26
  L 408.05 449.78
  Q 407.62 450.27 407.96 450.83
  Q 408.36 451.50 409.18 451.88"
/>
<path stroke="#e2dedc" vector-effect="non-scaling-stroke" d="
  M 409.18 451.88
  Q 404.16 456.41 400.20 462.00
  Q 399.90 462.42 400.31 462.74
  L 502.52 541.37"
/>
<path stroke="#848383" vector-effect="non-scaling-stroke" d="
  M 502.52 541.37
  Q 502.80 545.39 502.81 550.35
  C 502.83 555.80 503.33 559.04 508.93 560.33
  C 515.42 561.82 520.02 558.92 520.01 552.31
  Q 519.99 542.36 520.00 532.45
  Q 520.00 531.97 520.38 531.65
  L 524.07 528.48"
/>
<path stroke="#e2dedc" vector-effect="non-scaling-stroke" d="
  M 524.07 528.48
  Q 524.56 528.49 525.06 528.85
  Q 525.46 529.13 525.83 528.82
  Q 573.19 490.24 620.17 451.22
  Q 622.52 449.27 628.47 443.88
  C 635.05 437.92 643.80 431.78 648.97 427.04
  Q 654.94 421.56 660.94 415.35
  A 1.72 1.70 -48.4 0 0 660.80 412.84
  Q 659.27 411.58 659.41 408.90"
/>
<path stroke="#848383" vector-effect="non-scaling-stroke" d="
  M 659.41 408.90
  L 661.73 406.87
  Q 662.19 406.48 661.78 406.03
  L 646.48 389.04
  Q 646.07 388.58 645.60 388.98
  Q 584.75 440.17 523.32 490.57
  Q 521.51 492.06 519.25 493.87"
/>
<path stroke="#d79f99" vector-effect="non-scaling-stroke" d="
  M 519.25 493.87
  L 519.23 362.92"
/>
<path stroke="#d2776a" vector-effect="non-scaling-stroke" d="
  M 596.00 313.25
  L 574.69 327.82"
/>
<path stroke="#f2cfc8" vector-effect="non-scaling-stroke" d="
  M 574.69 327.82
  Q 509.00 305.30 444.75 329.28
  C 385.06 351.55 338.84 398.65 320.28 459.97"
/>
<path stroke="#d2776a" vector-effect="non-scaling-stroke" d="
  M 320.28 459.97
  Q 309.37 463.75 297.99 466.21
  Q 297.47 466.32 297.53 466.01"
/>
<path stroke="#a7847e" vector-effect="non-scaling-stroke" d="
  M 297.53 466.01
  Q 302.15 446.61 310.12 428.31"
/>
<path stroke="#f7f7f7" vector-effect="non-scaling-stroke" d="
  M 584.40 331.66
  Q 583.25 332.78 581.89 331.79
  A 0.95 0.94 53.9 0 0 581.02 331.65
  C 578.14 332.60 576.99 330.59 574.71 330.51
  Q 570.96 330.39 567.16 333.14
  Q 553.33 343.13 522.87 362.98
  Q 522.45 363.25 521.99 363.06
  Q 521.06 362.69 519.23 362.92"
/>
<path stroke="#dfa7a1" vector-effect="non-scaling-stroke" d="
  M 519.23 362.92
  Q 533.01 354.05 529.54 338.74
  C 529.24 337.44 528.34 336.04 527.00 335.98
  Q 516.20 335.45 496.81 335.67
  Q 494.46 335.69 494.03 337.36
  Q 489.84 353.30 502.97 363.19
  A 1.01 1.00 19.3 0 1 503.37 364.01
  L 503.10 418.00"
/>
<path stroke="#f7f7f7" vector-effect="non-scaling-stroke" d="
  M 503.10 418.00
  Q 502.53 418.01 502.17 417.84
  A 0.79 0.76 12.7 0 1 501.71 417.14
  L 501.77 378.02
  A 1.21 1.20 -15.6 0 0 499.94 376.99
  Q 475.93 391.53 451.30 405.16
  C 450.72 405.48 449.12 405.67 448.78 406.03
  Q 446.74 408.19 444.02 409.17
  C 442.33 409.77 441.22 410.89 439.57 411.51
  Q 436.82 412.56 436.13 412.95
  Q 421.27 421.36 405.83 428.72
  Q 404.01 429.59 402.15 431.46
  Q 398.64 435.02 393.54 437.28
  Q 391.17 438.34 391.20 442.25"
/>
<path stroke="#8c8b8c" vector-effect="non-scaling-stroke" d="
  M 391.20 442.25
  L 387.48 439.92"
/>
<path stroke="#a8a7a8" vector-effect="non-scaling-stroke" d="
  M 387.48 439.92
  Q 372.87 431.37 358.10 422.87
  C 353.66 420.32 351.33 423.45 349.66 427.04
  Q 347.82 431.00 352.41 433.63
  Q 361.31 438.73 370.41 444.04"
/>
<path stroke="#f7f7f7" vector-effect="non-scaling-stroke" d="
  M 370.41 444.04
  C 366.35 445.49 362.25 445.39 358.42 446.80
  Q 341.76 452.94 325.24 459.44
  C 322.76 460.42 321.60 462.39 320.21 464.48
  Q 319.93 464.90 320.00 465.40
  Q 320.37 468.14 317.87 468.96"
/>
<path stroke="#dfa7a1" vector-effect="non-scaling-stroke" d="
  M 317.87 468.96
  L 320.28 459.97"
/>
<path stroke="#b28e87" vector-effect="non-scaling-stroke" d="
  M 449.68 305.31
  C 387.70 324.76 336.62 368.61 310.12 428.31"
/>
<path stroke="#747374" vector-effect="non-scaling-stroke" d="
  M 310.12 428.31
  Q 309.49 425.99 306.70 427.99
  Q 306.27 428.29 305.99 427.84
  C 305.21 426.60 302.59 428.30 300.62 427.08
  A 1.21 1.18 52.8 0 0 299.69 426.94
  Q 298.46 427.28 298.05 428.38
  Q 297.85 428.92 297.33 429.14
  Q 294.93 430.15 292.40 429.54
  Q 291.89 429.42 291.43 429.66
  Q 287.74 431.64 283.60 431.75
  C 277.39 431.93 274.72 437.66 269.14 436.91"
/>
<path stroke="#777271" vector-effect="non-scaling-stroke" d="
  M 659.41 408.90
  Q 647.04 418.48 643.57 421.33
  Q 587.56 467.34 531.09 512.84
  A 1.28 1.24 74.6 0 0 530.63 513.68
  Q 529.71 522.18 524.07 528.48"
/>
<path stroke="#777271" vector-effect="non-scaling-stroke" d="
  M 502.52 541.37
  L 502.88 532.07
  Q 502.90 531.55 502.45 531.27
  Q 492.65 525.29 491.08 513.90
  A 1.11 1.10 -75.5 0 0 490.64 513.15
  L 409.18 451.88"
/>
<path stroke="#343334" vector-effect="non-scaling-stroke" d="
  M 387.48 439.92
  Q 387.20 440.37 387.40 441.12
  Q 387.53 441.56 387.09 441.70
  L 374.05 445.95"
/>
<path stroke="#6b332e" vector-effect="non-scaling-stroke" d="
  M 519.25 493.87
  L 518.73 495.25
  A 0.83 0.82 32.0 0 0 518.94 496.15
  Q 523.95 500.81 525.44 502.82
  C 531.22 510.65 527.33 522.09 519.20 526.70
  C 499.87 537.68 483.16 508.59 503.09 497.23
  Q 503.53 496.98 503.51 496.49
  Q 503.48 495.66 503.08 495.04"
/>
<path stroke="#a8a7a8" vector-effect="non-scaling-stroke" d="
  M 421.4432 361.2107
  A 4.26 4.26 0.0 0 0 415.5592 359.9171
  L 412.6443 361.7812
  A 4.26 4.26 0.0 0 0 411.3506 367.6652
  L 435.6168 405.6093
  A 4.26 4.26 0.0 0 0 441.5008 406.9029
  L 444.4157 405.0388
  A 4.26 4.26 0.0 0 0 445.7094 399.1548
  L 421.4432 361.2107"
/>
<path stroke="#848383" vector-effect="non-scaling-stroke" d="
  M 611.2746 367.8224
  A 4.53 4.53 0.0 0 0 609.9207 361.5607
  L 607.3990 359.9356
  A 4.53 4.53 0.0 0 0 601.1373 361.2894
  L 576.5654 399.4176
  A 4.53 4.53 0.0 0 0 577.9193 405.6793
  L 580.4410 407.3044
  A 4.53 4.53 0.0 0 0 586.7027 405.9506
  L 611.2746 367.8224"
/>
<path stroke="#848383" vector-effect="non-scaling-stroke" d="
  M 629.64 446.95
  L 632.81 452.27
  A 2.85 2.85 0.0 0 0 636.72 453.26
  L 670.67 433.02
  A 5.62 4.70 -30.8 0 0 673.10 426.10
  L 671.81 423.96
  A 5.62 4.70 -30.8 0 0 664.58 422.80
  L 630.63 443.04
  A 2.85 2.85 0.0 0 0 629.64 446.95"
/>
<path stroke="#848383" vector-effect="non-scaling-stroke" d="
  M 695.45 519.31
  L 695.47 509.21
  A 4.01 4.01 0.0 0 0 691.47 505.19
  L 650.41 505.12
  A 9.17 8.72 0.1 0 0 641.22 513.82
  L 641.22 514.50
  A 9.17 8.72 0.1 0 0 650.37 523.24
  L 691.43 523.31
  A 4.01 4.01 0.0 0 0 695.45 519.31"
/>
<path stroke="#848383" vector-effect="non-scaling-stroke" d="
  M 327.25 509.21
  L 327.25 519.25
  A 3.99 3.99 0.0 0 0 331.24 523.24
  L 372.28 523.24
  A 8.77 8.33 0.0 0 0 381.05 514.91
  L 381.05 513.55
  A 8.77 8.33 -0.0 0 0 372.28 505.22
  L 331.24 505.22
  A 3.99 3.99 0.0 0 0 327.25 509.21"
/>
<path stroke="#848383" vector-effect="non-scaling-stroke" d="
  M 391.6708 575.6121
  A 4.29 4.29 0.0 0 0 385.8161 574.0214
  L 350.8799 594.0296
  A 4.29 4.29 0.0 0 0 349.2892 599.8843
  L 350.9292 602.7479
  A 4.29 4.29 0.0 0 0 356.7839 604.3386
  L 391.7201 584.3304
  A 4.29 4.29 0.0 0 0 393.3108 578.4757
  L 391.6708 575.6121"
/>
<path stroke="#848383" vector-effect="non-scaling-stroke" d="
  M 673.2589 599.9972
  A 4.29 4.29 0.0 0 0 671.6988 594.1342
  L 637.1793 574.1240
  A 4.29 4.29 0.0 0 0 631.3163 575.6840
  L 629.6011 578.6428
  A 4.29 4.29 0.0 0 0 631.1612 584.5058
  L 665.6807 604.5160
  A 4.29 4.29 0.0 0 0 671.5437 602.9560
  L 673.2589 599.9972"
/>
<path stroke="#848383" vector-effect="non-scaling-stroke" d="
  M 445.4064 630.0537
  A 4.39 4.39 0.0 0 0 444.0521 623.9948
  L 441.2489 622.2159
  A 4.39 4.39 0.0 0 0 435.1901 623.5702
  L 411.0136 661.6663
  A 4.39 4.39 0.0 0 0 412.3679 667.7252
  L 415.1711 669.5041
  A 4.39 4.39 0.0 0 0 421.2299 668.1498
  L 445.4064 630.0537"
/>
<path stroke="#848383" vector-effect="non-scaling-stroke" d="
  M 587.4439 623.7176
  A 4.48 4.48 0.0 0 0 581.2561 622.3571
  L 578.7119 623.9842
  A 4.48 4.48 0.0 0 0 577.3514 630.1721
  L 601.5961 668.0824
  A 4.48 4.48 0.0 0 0 607.7839 669.4429
  L 610.3281 667.8158
  A 4.48 4.48 0.0 0 0 611.6886 661.6279
  L 587.4439 623.7176"
/>
<path stroke="#848383" vector-effect="non-scaling-stroke" d="
  M 506.34 694.84
  L 516.28 694.90
  A 4.00 4.00 0.0 0 0 520.31 690.92
  L 520.51 651.98
  A 8.76 8.58 -89.7 0 0 511.98 643.17
  L 511.20 643.17
  A 8.76 8.58 -89.7 0 0 502.57 651.88
  L 502.37 690.82
  A 4.00 4.00 0.0 0 0 506.34 694.84"
/>
</g>
<path fill="#ffffff" d="
  M 0.00 0.00
  L 1024.00 0.00
  L 1024.00 1024.00
  L 0.00 1024.00
  L 0.00 0.00
  Z
  M 494.49 254.68
  C 382.72 262.40 288.28 340.27 259.01 448.29
  C 231.75 551.74 271.07 660.02 357.60 722.92
  L 356.65 723.05
  Q 356.50 723.07 356.50 723.23
  Q 356.50 723.44 356.50 723.65
  A 0.33 0.32 -3.0 0 0 356.87 723.98
  Q 358.13 723.82 357.95 725.02
  A 0.33 0.32 26.5 0 1 357.40 725.20
  L 357.19 724.98
  A 0.06 0.06 0.0 0 0 357.09 725.00
  C 355.87 727.20 354.20 726.94 352.52 728.13
  C 350.13 729.84 349.88 729.63 347.00 729.51
  C 341.71 729.29 334.51 731.23 330.49 735.66
  A 0.70 0.69 -50.9 0 1 329.57 735.76
  Q 327.37 734.17 325.63 735.90
  A 1.64 1.56 16.3 0 1 324.78 736.34
  L 321.50 736.94
  Q 321.10 737.02 320.71 736.89
  Q 318.65 736.22 316.73 737.24
  Q 316.29 737.48 315.80 737.52
  Q 314.08 737.66 312.76 738.74
  Q 312.33 739.09 311.80 739.18
  Q 309.58 739.58 307.37 740.11
  C 305.49 740.56 303.54 742.27 300.77 741.57
  Q 300.29 741.45 299.84 741.64
  C 294.49 743.79 288.36 743.72 282.10 745.85
  C 276.83 747.64 271.59 748.62 266.36 750.25
  C 263.83 751.04 261.49 750.84 258.88 751.68
  Q 255.30 752.83 251.53 753.14
  C 247.82 753.45 245.80 755.10 243.07 757.22
  C 240.74 759.04 236.62 760.81 233.74 761.72
  C 228.72 763.31 226.48 766.53 222.12 768.77
  C 219.53 770.10 217.91 771.87 215.10 773.14
  Q 211.31 774.86 208.84 778.36
  A 1.55 1.55 0.0 0 1 208.04 778.95
  Q 202.45 780.78 200.78 786.50
  Q 200.65 786.93 200.29 787.20
  Q 194.12 791.89 198.98 798.17
  A 1.66 1.66 0.0 0 1 199.33 799.19
  Q 199.30 802.18 201.64 803.98
  Q 202.05 804.28 202.55 804.30
  Q 205.30 804.37 206.75 806.44
  Q 207.05 806.87 207.53 807.07
  Q 212.95 809.40 217.28 813.30
  C 219.02 814.88 221.17 815.41 223.18 816.55
  C 228.54 819.61 234.62 821.65 240.39 823.81
  C 249.46 827.21 259.56 829.81 269.14 832.80
  C 275.50 834.79 281.55 836.19 287.85 837.64
  Q 287.95 837.66 287.98 837.57
  Q 288.02 837.46 288.05 837.33
  Q 288.06 837.29 288.10 837.29
  C 292.36 837.71 296.60 839.41 300.29 840.04
  C 313.46 842.27 326.70 845.45 339.83 846.87
  Q 347.92 847.74 356.01 848.59
  C 366.81 849.71 379.22 852.54 390.75 853.49
  Q 445.56 858.00 503.57 858.91
  C 508.33 858.98 516.02 859.63 522.29 859.30
  C 528.69 858.96 534.93 859.48 540.19 859.16
  Q 560.36 857.94 580.57 857.54
  C 593.91 857.28 607.17 856.22 620.49 855.64
  Q 622.99 855.54 625.34 854.59
  Q 625.81 854.40 626.30 854.46
  C 640.00 856.01 653.01 850.81 666.58 850.35
  C 667.96 850.30 670.99 851.19 672.01 850.54
  Q 675.34 848.44 679.21 849.19
  Q 679.71 849.28 680.17 849.09
  C 683.66 847.60 687.48 847.91 690.43 847.30
  Q 703.08 844.68 712.76 843.05
  Q 718.35 842.10 722.90 840.86
  C 724.73 840.36 726.48 840.63 728.43 840.09
  C 738.05 837.40 747.69 836.43 757.29 833.08
  C 767.74 829.43 775.50 826.76 788.99 821.27
  C 792.79 819.72 796.89 816.68 801.45 815.28
  C 805.04 814.17 806.12 813.33 808.29 810.60
  Q 810.01 808.43 812.59 809.45
  Q 813.02 809.62 813.47 809.50
  L 815.54 808.95
  Q 816.12 808.80 816.40 809.33
  L 816.87 810.20
  A 0.98 0.97 47.6 0 0 818.55 810.28
  L 820.64 807.07
  Q 820.87 806.72 820.75 806.31
  C 820.40 805.13 817.98 802.87 818.40 802.20
  Q 818.66 801.78 818.31 801.44
  L 817.04 800.17
  Q 816.77 799.89 816.82 799.50
  Q 817.26 796.57 819.82 796.99
  Q 820.31 797.07 820.47 796.60
  Q 822.08 792.02 819.72 787.72
  A 0.90 0.89 -14.9 0 0 818.92 787.26
  Q 818.13 787.28 817.86 786.69
  Q 813.68 777.35 804.71 773.31
  Q 801.45 771.84 799.04 766.84
  Q 798.80 766.33 798.24 766.26
  Q 795.84 765.98 794.31 764.17
  A 1.36 1.30 -64.5 0 1 794.00 763.23
  Q 794.05 762.33 793.35 761.75
  Q 792.86 761.34 792.39 761.78
  L 791.23 762.86
  Q 790.74 763.32 790.28 762.83
  L 788.86 761.31
  Q 788.68 761.12 788.50 761.32
  L 787.88 762.01
  Q 787.48 762.45 786.95 762.17
  C 783.71 760.43 780.82 761.82 777.76 759.13
  Q 777.45 758.86 777.82 758.66
  C 779.05 757.99 782.47 758.53 782.67 758.17
  Q 782.85 757.85 782.51 757.71
  Q 778.19 755.99 773.53 756.41
  A 1.01 1.01 0.0 0 1 772.60 755.98
  Q 769.37 751.42 763.59 752.65
  A 1.87 1.87 0.0 0 1 762.43 752.53
  L 754.89 749.16
  Q 754.54 749.00 754.31 749.31
  Q 754.15 749.52 754.41 749.77
  A 0.49 0.49 0.0 0 1 754.28 750.55
  Q 752.93 751.20 752.07 749.79
  A 0.50 0.50 0.0 0 1 752.43 749.03
  L 752.70 749.00
  Q 753.38 748.90 752.71 748.76
  Q 745.21 747.10 737.58 746.05
  C 735.15 745.72 733.38 744.06 730.51 744.25
  A 1.36 1.29 58.6 0 1 729.69 744.03
  C 727.99 742.93 726.00 743.34 724.42 742.92
  C 718.33 741.30 712.25 740.74 706.02 739.72
  C 702.87 739.20 698.92 738.78 695.34 737.64
  C 692.93 736.87 690.30 737.40 687.76 736.43
  C 684.16 735.04 680.58 735.12 676.90 733.58
  C 674.71 732.67 673.70 730.03 670.56 731.85
  A 0.77 0.76 51.6 0 1 669.67 731.74
  Q 666.86 729.13 662.91 729.63
  Q 662.52 729.68 662.19 729.46
  L 659.74 727.90
  Q 659.60 727.80 659.63 727.64
  Q 659.85 726.44 660.90 726.49
  Q 661.43 726.51 661.32 725.99
  Q 661.17 725.25 660.51 724.82
  C 735.01 672.51 777.17 584.42 769.84 493.19
  C 758.45 351.35 635.75 246.65 494.49 254.68
  Z"
/>
<path fill="#181618" d="
  M 660.51 724.82
  Q 624.05 750.02 581.25 762.00
  Q 508.25 782.08 435.87 761.20
  Q 393.24 748.54 357.60 722.92
  C 271.07 660.02 231.75 551.74 259.01 448.29
  Q 263.16 448.65 265.40 449.67
  L 260.26 472.05
  Q 260.14 472.57 260.68 472.51
  Q 279.10 470.20 297.21 466.30
  Q 279.30 549.47 319.97 621.84
  C 353.57 681.64 416.12 721.44 483.73 729.99
  C 565.67 740.92 646.40 702.94 692.93 635.78
  C 749.06 554.75 741.06 443.92 676.10 370.11
  C 654.06 345.60 626.70 326.17 596.25 313.40
  Q 598.05 311.61 599.73 310.47
  Q 614.23 300.62 628.40 289.97
  Q 628.83 289.65 628.35 289.41
  Q 591.23 270.21 550.63 263.69
  Q 522.06 259.04 493.64 261.06
  Q 495.16 257.88 494.49 254.68
  C 635.75 246.65 758.45 351.35 769.84 493.19
  C 777.17 584.42 735.01 672.51 660.51 724.82
  Z"
/>
<path fill="#504f50" d="
  M 494.49 254.68
  Q 495.16 257.88 493.64 261.06
  L 479.95 262.44
  C 380.89 276.27 301.20 341.91 269.14 436.91
  L 265.40 449.67
  Q 263.16 448.65 259.01 448.29
  C 288.28 340.27 382.72 262.40 494.49 254.68
  Z"
/>
<path fill="#69696a" d="
  M 550.63 263.69
  C 548.59 267.53 545.71 271.12 544.96 275.40
  C 544.68 276.96 544.04 280.43 542.42 281.05
  Q 541.97 281.23 541.89 281.71
  Q 541.53 283.99 539.94 285.65
  Q 539.58 286.04 539.54 286.57
  Q 539.38 288.59 537.70 289.85
  A 2.68 2.57 87.2 0 0 536.96 290.70
  Q 535.84 292.74 536.79 294.90
  Q 536.94 295.25 537.32 295.25
  L 539.02 295.25
  Q 539.81 295.25 539.18 295.72
  L 538.68 296.09
  Q 538.45 296.26 538.73 296.25
  Q 538.86 296.25 539.01 296.24
  A 0.23 0.11 -38.2 0 1 538.85 296.57
  Q 536.52 297.29 533.95 297.38
  Q 491.23 293.20 449.68 305.31
  C 449.06 305.23 449.22 304.93 449.51 304.59
  Q 449.67 304.40 449.44 304.29
  L 448.92 304.05
  Q 448.34 303.78 448.77 303.31
  Q 451.43 300.36 453.25 296.87
  Q 453.48 296.43 453.89 296.15
  Q 454.87 295.49 455.45 294.39
  Q 455.70 293.92 456.15 293.62
  Q 458.10 292.35 458.61 290.05
  Q 458.74 289.52 459.29 289.55
  Q 461.23 289.65 461.28 287.64
  A 1.59 1.58 -22.9 0 1 461.69 286.63
  Q 463.41 284.72 465.24 282.93
  C 467.71 280.51 469.43 277.45 472.05 274.92
  C 473.92 273.12 474.94 270.62 477.31 268.94
  Q 477.73 268.64 477.89 268.15
  C 478.53 266.20 480.39 264.46 479.95 262.44
  L 493.64 261.06
  Q 522.06 259.04 550.63 263.69
  Z"
/>
<path fill="#7e7d7d" d="
  M 479.95 262.44
  C 480.39 264.46 478.53 266.20 477.89 268.15
  Q 477.73 268.64 477.31 268.94
  C 474.94 270.62 473.92 273.12 472.05 274.92
  C 469.43 277.45 467.71 280.51 465.24 282.93
  Q 463.41 284.72 461.69 286.63
  A 1.59 1.58 -22.9 0 0 461.28 287.64
  Q 461.23 289.65 459.29 289.55
  Q 458.74 289.52 458.61 290.05
  Q 458.10 292.35 456.15 293.62
  Q 455.70 293.92 455.45 294.39
  Q 454.87 295.49 453.89 296.15
  Q 453.48 296.43 453.25 296.87
  Q 451.43 300.36 448.77 303.31
  Q 448.34 303.78 448.92 304.05
  L 449.44 304.29
  Q 449.67 304.40 449.51 304.59
  C 449.22 304.93 449.06 305.23 449.68 305.31
  C 387.70 324.76 336.62 368.61 310.12 428.31
  Q 309.49 425.99 306.70 427.99
  Q 306.27 428.29 305.99 427.84
  C 305.21 426.60 302.59 428.30 300.62 427.08
  A 1.21 1.18 52.8 0 0 299.69 426.94
  Q 298.46 427.28 298.05 428.38
  Q 297.85 428.92 297.33 429.14
  Q 294.93 430.15 292.40 429.54
  Q 291.89 429.42 291.43 429.66
  Q 287.74 431.64 283.60 431.75
  C 277.39 431.93 274.72 437.66 269.14 436.91
  C 301.20 341.91 380.89 276.27 479.95 262.44
  Z"
/>
<path fill="#504f50" d="
  M 550.63 263.69
  Q 591.23 270.21 628.35 289.41
  Q 628.83 289.65 628.40 289.97
  Q 614.23 300.62 599.73 310.47
  Q 598.05 311.61 596.25 313.40
  Q 596.80 313.19 596.00 313.25
  Q 566.33 300.59 533.95 297.38
  Q 536.52 297.29 538.85 296.57
  A 0.23 0.11 -38.2 0 0 539.01 296.24
  Q 538.86 296.25 538.73 296.25
  Q 538.45 296.26 538.68 296.09
  L 539.18 295.72
  Q 539.81 295.25 539.02 295.25
  L 537.32 295.25
  Q 536.94 295.25 536.79 294.90
  Q 535.84 292.74 536.96 290.70
  A 2.68 2.57 87.2 0 1 537.70 289.85
  Q 539.38 288.59 539.54 286.57
  Q 539.58 286.04 539.94 285.65
  Q 541.53 283.99 541.89 281.71
  Q 541.97 281.23 542.42 281.05
  C 544.04 280.43 544.68 276.96 544.96 275.40
  C 545.71 271.12 548.59 267.53 550.63 263.69
  Z"
/>
<path fill="#e59e91" d="
  M 533.95 297.38
  Q 566.33 300.59 596.00 313.25
  L 574.69 327.82
  Q 509.00 305.30 444.75 329.28
  C 385.06 351.55 338.84 398.65 320.28 459.97
  Q 309.37 463.75 297.99 466.21
  Q 297.47 466.32 297.53 466.01
  Q 302.15 446.61 310.12 428.31
  C 336.62 368.61 387.70 324.76 449.68 305.31
  Q 491.23 293.20 533.95 297.38
  Z"
/>
<path fill="#be4f43" d="
  M 596.00 313.25
  Q 596.80 313.19 596.25 313.40
  C 626.70 326.17 654.06 345.60 676.10 370.11
  Q 674.86 370.15 675.11 371.46
  Q 675.14 371.60 675.00 371.66
  Q 674.87 371.72 674.73 371.74
  A 0.38 0.38 0.0 0 0 674.43 372.19
  L 675.87 379.02
  A 0.64 0.64 0.0 0 1 675.50 379.73
  L 672.19 381.15
  A 0.13 0.13 0.0 0 1 672.00 381.03
  Q 672.00 380.90 672.00 380.75
  Q 672.01 380.31 671.64 380.55
  Q 669.55 381.92 667.71 383.66
  A 1.33 1.33 0.0 0 0 667.33 384.36
  Q 666.98 386.12 668.19 387.32
  A 0.54 0.44 67.2 0 1 667.93 388.22
  Q 667.14 388.07 666.59 388.54
  Q 666.08 388.97 665.64 388.46
  Q 664.68 387.34 663.79 388.25
  C 642.58 363.91 614.76 343.20 584.40 331.66
  L 574.69 327.82
  L 596.00 313.25
  Z"
/>
<path fill="#ffffff" d="
  M 574.69 327.82
  L 584.40 331.66
  Q 583.25 332.78 581.89 331.79
  A 0.95 0.94 53.9 0 0 581.02 331.65
  C 578.14 332.60 576.99 330.59 574.71 330.51
  Q 570.96 330.39 567.16 333.14
  Q 553.33 343.13 522.87 362.98
  Q 522.45 363.25 521.99 363.06
  Q 521.06 362.69 519.23 362.92
  Q 533.01 354.05 529.54 338.74
  C 529.24 337.44 528.34 336.04 527.00 335.98
  Q 516.20 335.45 496.81 335.67
  Q 494.46 335.69 494.03 337.36
  Q 489.84 353.30 502.97 363.19
  A 1.01 1.00 19.3 0 1 503.37 364.01
  L 503.10 418.00
  Q 502.53 418.01 502.17 417.84
  A 0.79 0.76 12.7 0 1 501.71 417.14
  L 501.77 378.02
  A 1.21 1.20 -15.6 0 0 499.94 376.99
  Q 475.93 391.53 451.30 405.16
  C 450.72 405.48 449.12 405.67 448.78 406.03
  Q 446.74 408.19 444.02 409.17
  C 442.33 409.77 441.22 410.89 439.57 411.51
  Q 436.82 412.56 436.13 412.95
  Q 421.27 421.36 405.83 428.72
  Q 404.01 429.59 402.15 431.46
  Q 398.64 435.02 393.54 437.28
  Q 391.17 438.34 391.20 442.25
  L 387.48 439.92
  Q 372.87 431.37 358.10 422.87
  C 353.66 420.32 351.33 423.45 349.66 427.04
  Q 347.82 431.00 352.41 433.63
  Q 361.31 438.73 370.41 444.04
  C 366.35 445.49 362.25 445.39 358.42 446.80
  Q 341.76 452.94 325.24 459.44
  C 322.76 460.42 321.60 462.39 320.21 464.48
  Q 319.93 464.90 320.00 465.40
  Q 320.37 468.14 317.87 468.96
  L 320.28 459.97
  C 338.84 398.65 385.06 351.55 444.75 329.28
  Q 509.00 305.30 574.69 327.82
  Z
  M 421.4432 361.2107
  A 4.26 4.26 0.0 0 0 415.5592 359.9171
  L 412.6443 361.7812
  A 4.26 4.26 0.0 0 0 411.3506 367.6652
  L 435.6168 405.6093
  A 4.26 4.26 0.0 0 0 441.5008 406.9029
  L 444.4157 405.0388
  A 4.26 4.26 0.0 0 0 445.7094 399.1548
  L 421.4432 361.2107
  Z"
/>
<path fill="#efefee" d="
  M 584.40 331.66
  C 614.76 343.20 642.58 363.91 663.79 388.25
  C 731.91 470.68 722.97 588.43 644.12 660.02
  C 581.83 716.58 490.86 726.27 416.79 687.40
  C 337.93 645.46 296.18 556.08 317.87 468.96
  Q 320.37 468.14 320.00 465.40
  Q 319.93 464.90 320.21 464.48
  C 321.60 462.39 322.76 460.42 325.24 459.44
  Q 341.76 452.94 358.42 446.80
  C 362.25 445.39 366.35 445.49 370.41 444.04
  L 374.05 445.95
  Q 379.55 449.30 385.26 452.35
  C 390.76 455.28 395.61 445.79 391.20 442.25
  Q 391.17 438.34 393.54 437.28
  Q 398.64 435.02 402.15 431.46
  Q 404.01 429.59 405.83 428.72
  Q 421.27 421.36 436.13 412.95
  Q 436.82 412.56 439.57 411.51
  C 441.22 410.89 442.33 409.77 444.02 409.17
  Q 446.74 408.19 448.78 406.03
  C 449.12 405.67 450.72 405.48 451.30 405.16
  Q 475.93 391.53 499.94 376.99
  A 1.21 1.20 -15.6 0 1 501.77 378.02
  L 501.71 417.14
  A 0.79 0.76 12.7 0 0 502.17 417.84
  Q 502.53 418.01 503.10 418.00
  L 503.08 495.04
  L 424.84 432.15
  Q 424.12 431.57 423.51 432.26
  L 408.05 449.78
  Q 407.62 450.27 407.96 450.83
  Q 408.36 451.50 409.18 451.88
  Q 404.16 456.41 400.20 462.00
  Q 399.90 462.42 400.31 462.74
  L 502.52 541.37
  Q 502.80 545.39 502.81 550.35
  C 502.83 555.80 503.33 559.04 508.93 560.33
  C 515.42 561.82 520.02 558.92 520.01 552.31
  Q 519.99 542.36 520.00 532.45
  Q 520.00 531.97 520.38 531.65
  L 524.07 528.48
  Q 524.56 528.49 525.06 528.85
  Q 525.46 529.13 525.83 528.82
  Q 573.19 490.24 620.17 451.22
  Q 622.52 449.27 628.47 443.88
  C 635.05 437.92 643.80 431.78 648.97 427.04
  Q 654.94 421.56 660.94 415.35
  A 1.72 1.70 -48.4 0 0 660.80 412.84
  Q 659.27 411.58 659.41 408.90
  L 661.73 406.87
  Q 662.19 406.48 661.78 406.03
  L 646.48 389.04
  Q 646.07 388.58 645.60 388.98
  Q 584.75 440.17 523.32 490.57
  Q 521.51 492.06 519.25 493.87
  L 519.23 362.92
  Q 521.06 362.69 521.99 363.06
  Q 522.45 363.25 522.87 362.98
  Q 553.33 343.13 567.16 333.14
  Q 570.96 330.39 574.71 330.51
  C 576.99 330.59 578.14 332.60 581.02 331.65
  A 0.95 0.94 53.9 0 1 581.89 331.79
  Q 583.25 332.78 584.40 331.66
  Z
  M 611.2746 367.8224
  A 4.53 4.53 0.0 0 0 609.9207 361.5607
  L 607.3990 359.9356
  A 4.53 4.53 0.0 0 0 601.1373 361.2894
  L 576.5654 399.4176
  A 4.53 4.53 0.0 0 0 577.9193 405.6793
  L 580.4410 407.3044
  A 4.53 4.53 0.0 0 0 586.7027 405.9506
  L 611.2746 367.8224
  Z
  M 629.64 446.95
  L 632.81 452.27
  A 2.85 2.85 0.0 0 0 636.72 453.26
  L 670.67 433.02
  A 5.62 4.70 -30.8 0 0 673.10 426.10
  L 671.81 423.96
  A 5.62 4.70 -30.8 0 0 664.58 422.80
  L 630.63 443.04
  A 2.85 2.85 0.0 0 0 629.64 446.95
  Z
  M 695.45 519.31
  L 695.47 509.21
  A 4.01 4.01 0.0 0 0 691.47 505.19
  L 650.41 505.12
  A 9.17 8.72 0.1 0 0 641.22 513.82
  L 641.22 514.50
  A 9.17 8.72 0.1 0 0 650.37 523.24
  L 691.43 523.31
  A 4.01 4.01 0.0 0 0 695.45 519.31
  Z
  M 327.25 509.21
  L 327.25 519.25
  A 3.99 3.99 0.0 0 0 331.24 523.24
  L 372.28 523.24
  A 8.77 8.33 0.0 0 0 381.05 514.91
  L 381.05 513.55
  A 8.77 8.33 -0.0 0 0 372.28 505.22
  L 331.24 505.22
  A 3.99 3.99 0.0 0 0 327.25 509.21
  Z
  M 391.6708 575.6121
  A 4.29 4.29 0.0 0 0 385.8161 574.0214
  L 350.8799 594.0296
  A 4.29 4.29 0.0 0 0 349.2892 599.8843
  L 350.9292 602.7479
  A 4.29 4.29 0.0 0 0 356.7839 604.3386
  L 391.7201 584.3304
  A 4.29 4.29 0.0 0 0 393.3108 578.4757
  L 391.6708 575.6121
  Z
  M 673.2589 599.9972
  A 4.29 4.29 0.0 0 0 671.6988 594.1342
  L 637.1793 574.1240
  A 4.29 4.29 0.0 0 0 631.3163 575.6840
  L 629.6011 578.6428
  A 4.29 4.29 0.0 0 0 631.1612 584.5058
  L 665.6807 604.5160
  A 4.29 4.29 0.0 0 0 671.5437 602.9560
  L 673.2589 599.9972
  Z
  M 445.4064 630.0537
  A 4.39 4.39 0.0 0 0 444.0521 623.9948
  L 441.2489 622.2159
  A 4.39 4.39 0.0 0 0 435.1901 623.5702
  L 411.0136 661.6663
  A 4.39 4.39 0.0 0 0 412.3679 667.7252
  L 415.1711 669.5041
  A 4.39 4.39 0.0 0 0 421.2299 668.1498
  L 445.4064 630.0537
  Z
  M 587.4439 623.7176
  A 4.48 4.48 0.0 0 0 581.2561 622.3571
  L 578.7119 623.9842
  A 4.48 4.48 0.0 0 0 577.3514 630.1721
  L 601.5961 668.0824
  A 4.48 4.48 0.0 0 0 607.7839 669.4429
  L 610.3281 667.8158
  A 4.48 4.48 0.0 0 0 611.6886 661.6279
  L 587.4439 623.7176
  Z
  M 506.34 694.84
  L 516.28 694.90
  A 4.00 4.00 0.0 0 0 520.31 690.92
  L 520.51 651.98
  A 8.76 8.58 -89.7 0 0 511.98 643.17
  L 511.20 643.17
  A 8.76 8.58 -89.7 0 0 502.57 651.88
  L 502.37 690.82
  A 4.00 4.00 0.0 0 0 506.34 694.84
  Z"
/>
<path fill="#be4f43" d="
  M 519.23 362.92
  L 519.25 493.87
  L 518.73 495.25
  A 0.83 0.82 32.0 0 0 518.94 496.15
  Q 523.95 500.81 525.44 502.82
  C 531.22 510.65 527.33 522.09 519.20 526.70
  C 499.87 537.68 483.16 508.59 503.09 497.23
  Q 503.53 496.98 503.51 496.49
  Q 503.48 495.66 503.08 495.04
  L 503.10 418.00
  L 503.37 364.01
  A 1.01 1.00 19.3 0 0 502.97 363.19
  Q 489.84 353.30 494.03 337.36
  Q 494.46 335.69 496.81 335.67
  Q 516.20 335.45 527.00 335.98
  C 528.34 336.04 529.24 337.44 529.54 338.74
  Q 533.01 354.05 519.23 362.92
  Z"
/>
<rect fill="#504f50" x="-5.99" y="-26.78" transform="translate(428.53,383.41) rotate(-32.6)" width="11.98" height="53.56" rx="4.26"/>
<rect fill="#181618" x="-6.03" y="-27.21" transform="translate(593.92,383.62) rotate(32.8)" width="12.06" height="54.42" rx="4.53"/>
<path fill="#ad3c36" d="
  M 676.10 370.11
  C 741.06 443.92 749.06 554.75 692.93 635.78
  C 646.40 702.94 565.67 740.92 483.73 729.99
  Q 486.09 729.17 488.39 730.26
  A 0.23 0.22 22.3 0 0 488.71 730.13
  L 488.81 729.81
  A 0.57 0.57 0.0 0 0 488.35 729.06
  Q 487.93 728.99 487.99 728.53
  A 1.67 1.58 -57.5 0 0 487.81 727.60
  Q 485.47 723.22 480.79 721.96
  C 476.75 720.86 471.53 718.07 472.76 712.88
  Q 472.89 712.36 473.42 712.29
  Q 475.97 711.93 478.20 713.09
  A 0.48 0.47 78.4 0 0 478.72 712.30
  C 475.96 710.05 473.52 708.76 469.79 708.00
  Q 458.19 705.65 447.00 701.74
  Q 446.67 701.63 446.33 701.69
  Q 445.82 701.78 445.36 701.54
  C 443.28 700.44 435.91 696.99 433.83 697.45
  Q 433.32 697.56 432.98 697.16
  C 431.22 695.10 428.59 694.81 426.84 693.98
  Q 421.76 691.57 416.57 689.62
  Q 416.12 689.45 416.03 688.98
  Q 415.71 687.36 416.79 687.40
  C 490.86 726.27 581.83 716.58 644.12 660.02
  C 722.97 588.43 731.91 470.68 663.79 388.25
  Q 664.68 387.34 665.64 388.46
  Q 666.08 388.97 666.59 388.54
  Q 667.14 388.07 667.93 388.22
  A 0.54 0.44 67.2 0 0 668.19 387.32
  Q 666.98 386.12 667.33 384.36
  A 1.33 1.33 0.0 0 1 667.71 383.66
  Q 669.55 381.92 671.64 380.55
  Q 672.01 380.31 672.00 380.75
  Q 672.00 380.90 672.00 381.03
  A 0.13 0.13 0.0 0 0 672.19 381.15
  L 675.50 379.73
  A 0.64 0.64 0.0 0 0 675.87 379.02
  L 674.43 372.19
  A 0.38 0.38 0.0 0 1 674.73 371.74
  Q 674.87 371.72 675.00 371.66
  Q 675.14 371.60 675.11 371.46
  Q 674.86 370.15 676.10 370.11
  Z"
/>
<path fill="#181618" d="
  M 659.41 408.90
  Q 647.04 418.48 643.57 421.33
  Q 587.56 467.34 531.09 512.84
  A 1.28 1.24 74.6 0 0 530.63 513.68
  Q 529.71 522.18 524.07 528.48
  L 520.38 531.65
  Q 520.00 531.97 520.00 532.45
  Q 519.99 542.36 520.01 552.31
  C 520.02 558.92 515.42 561.82 508.93 560.33
  C 503.33 559.04 502.83 555.80 502.81 550.35
  Q 502.80 545.39 502.52 541.37
  L 502.88 532.07
  Q 502.90 531.55 502.45 531.27
  Q 492.65 525.29 491.08 513.90
  A 1.11 1.10 -75.5 0 0 490.64 513.15
  L 409.18 451.88
  Q 408.36 451.50 407.96 450.83
  Q 407.62 450.27 408.05 449.78
  L 423.51 432.26
  Q 424.12 431.57 424.84 432.15
  L 503.08 495.04
  Q 503.48 495.66 503.51 496.49
  Q 503.53 496.98 503.09 497.23
  C 483.16 508.59 499.87 537.68 519.20 526.70
  C 527.33 522.09 531.22 510.65 525.44 502.82
  Q 523.95 500.81 518.94 496.15
  A 0.83 0.82 32.0 0 1 518.73 495.25
  L 519.25 493.87
  Q 521.51 492.06 523.32 490.57
  Q 584.75 440.17 645.60 388.98
  Q 646.07 388.58 646.48 389.04
  L 661.78 406.03
  Q 662.19 406.48 661.73 406.87
  L 659.41 408.90
  Z"
/>
<path fill="#d5cdca" d="
  M 659.41 408.90
  Q 659.27 411.58 660.80 412.84
  A 1.72 1.70 -48.4 0 1 660.94 415.35
  Q 654.94 421.56 648.97 427.04
  C 643.80 431.78 635.05 437.92 628.47 443.88
  Q 622.52 449.27 620.17 451.22
  Q 573.19 490.24 525.83 528.82
  Q 525.46 529.13 525.06 528.85
  Q 524.56 528.49 524.07 528.48
  Q 529.71 522.18 530.63 513.68
  A 1.28 1.24 74.6 0 1 531.09 512.84
  Q 587.56 467.34 643.57 421.33
  Q 647.04 418.48 659.41 408.90
  Z"
/>
<path fill="#181618" d="
  M 629.64 446.95
  A 2.85 2.85 0.0 0 1 630.63 443.04
  L 664.58 422.80
  A 5.62 4.70 -30.8 0 1 671.81 423.96
  L 673.10 426.10
  A 5.62 4.70 -30.8 0 1 670.67 433.02
  L 636.72 453.26
  A 2.85 2.85 0.0 0 1 632.81 452.27
  L 629.64 446.95
  Z"
/>
<path fill="#504f50" d="
  M 387.48 439.92
  Q 387.20 440.37 387.40 441.12
  Q 387.53 441.56 387.09 441.70
  L 374.05 445.95
  L 370.41 444.04
  Q 361.31 438.73 352.41 433.63
  Q 347.82 431.00 349.66 427.04
  C 351.33 423.45 353.66 420.32 358.10 422.87
  Q 372.87 431.37 387.48 439.92
  Z"
/>
<path fill="#69696a" d="
  M 310.12 428.31
  Q 302.15 446.61 297.53 466.01
  Q 297.21 465.99 297.21 466.30
  Q 279.10 470.20 260.68 472.51
  Q 260.14 472.57 260.26 472.05
  L 265.40 449.67
  L 269.14 436.91
  C 274.72 437.66 277.39 431.93 283.60 431.75
  Q 287.74 431.64 291.43 429.66
  Q 291.89 429.42 292.40 429.54
  Q 294.93 430.15 297.33 429.14
  Q 297.85 428.92 298.05 428.38
  Q 298.46 427.28 299.69 426.94
  A 1.21 1.18 52.8 0 1 300.62 427.08
  C 302.59 428.30 305.21 426.60 305.99 427.84
  Q 306.27 428.29 306.70 427.99
  Q 309.49 425.99 310.12 428.31
  Z"
/>
<path fill="#181618" d="
  M 387.48 439.92
  L 391.20 442.25
  C 395.61 445.79 390.76 455.28 385.26 452.35
  Q 379.55 449.30 374.05 445.95
  L 387.09 441.70
  Q 387.53 441.56 387.40 441.12
  Q 387.20 440.37 387.48 439.92
  Z"
/>
<path fill="#d5cdca" d="
  M 409.18 451.88
  L 490.64 513.15
  A 1.11 1.10 -75.5 0 1 491.08 513.90
  Q 492.65 525.29 502.45 531.27
  Q 502.90 531.55 502.88 532.07
  L 502.52 541.37
  L 400.31 462.74
  Q 399.90 462.42 400.20 462.00
  Q 404.16 456.41 409.18 451.88
  Z"
/>
<path fill="#be4f43" d="
  M 320.28 459.97
  L 317.87 468.96
  C 296.18 556.08 337.93 645.46 416.79 687.40
  Q 415.71 687.36 416.03 688.98
  Q 416.12 689.45 416.57 689.62
  Q 421.76 691.57 426.84 693.98
  C 428.59 694.81 431.22 695.10 432.98 697.16
  Q 433.32 697.56 433.83 697.45
  C 435.91 696.99 443.28 700.44 445.36 701.54
  Q 445.82 701.78 446.33 701.69
  Q 446.67 701.63 447.00 701.74
  Q 458.19 705.65 469.79 708.00
  C 473.52 708.76 475.96 710.05 478.72 712.30
  A 0.48 0.47 78.4 0 1 478.20 713.09
  Q 475.97 711.93 473.42 712.29
  Q 472.89 712.36 472.76 712.88
  C 471.53 718.07 476.75 720.86 480.79 721.96
  Q 485.47 723.22 487.81 727.60
  A 1.67 1.58 -57.5 0 1 487.99 728.53
  Q 487.93 728.99 488.35 729.06
  A 0.57 0.57 0.0 0 1 488.81 729.81
  L 488.71 730.13
  A 0.23 0.22 22.3 0 1 488.39 730.26
  Q 486.09 729.17 483.73 729.99
  C 416.12 721.44 353.57 681.64 319.97 621.84
  Q 279.30 549.47 297.21 466.30
  Q 297.21 465.99 297.53 466.01
  Q 297.47 466.32 297.99 466.21
  Q 309.37 463.75 320.28 459.97
  Z"
/>
<path fill="#181618" d="
  M 695.45 519.31
  A 4.01 4.01 0.0 0 1 691.43 523.31
  L 650.37 523.24
  A 9.17 8.72 0.1 0 1 641.22 514.50
  L 641.22 513.82
  A 9.17 8.72 0.1 0 1 650.41 505.12
  L 691.47 505.19
  A 4.01 4.01 0.0 0 1 695.47 509.21
  L 695.45 519.31
  Z"
/>
<path fill="#181618" d="
  M 327.25 509.21
  A 3.99 3.99 0.0 0 1 331.24 505.22
  L 372.28 505.22
  A 8.77 8.33 0.0 0 1 381.05 513.55
  L 381.05 514.91
  A 8.77 8.33 -0.0 0 1 372.28 523.24
  L 331.24 523.24
  A 3.99 3.99 0.0 0 1 327.25 519.25
  L 327.25 509.21
  Z"
/>
<rect fill="#181618" x="-24.42" y="-5.94" transform="translate(371.30,589.18) rotate(-29.8)" width="48.84" height="11.88" rx="4.29"/>
<rect fill="#181618" x="-24.24" y="-6.00" transform="translate(651.43,589.32) rotate(30.1)" width="48.48" height="12.00" rx="4.29"/>
<rect fill="#181618" x="-6.05" y="-26.95" transform="translate(428.21,645.86) rotate(32.4)" width="12.10" height="53.90" rx="4.39"/>
<rect fill="#181618" x="-5.99" y="-26.98" transform="translate(594.52,645.90) rotate(-32.6)" width="11.98" height="53.96" rx="4.48"/>
<path fill="#181618" d="
  M 506.34 694.84
  A 4.00 4.00 0.0 0 1 502.37 690.82
  L 502.57 651.88
  A 8.76 8.58 -89.7 0 1 511.20 643.17
  L 511.98 643.17
  A 8.76 8.58 -89.7 0 1 520.51 651.98
  L 520.31 690.92
  A 4.00 4.00 0.0 0 1 516.28 694.90
  L 506.34 694.84
  Z"
/>
<path fill="#efefee" d="
  M 357.60 722.92
  Q 393.24 748.54 435.87 761.20
  L 435.60 761.75
  A 0.65 0.65 0.0 0 1 434.85 762.08
  C 432.52 761.46 430.52 760.48 428.09 760.46
  C 411.74 760.37 394.22 762.11 380.69 762.65
  Q 347.44 763.98 316.75 768.27
  C 311.37 769.03 293.03 771.41 289.70 775.42
  Q 288.72 776.59 290.07 777.28
  C 295.60 780.13 300.79 781.49 307.50 782.47
  Q 345.92 788.10 384.75 789.54
  C 385.96 789.58 387.92 789.84 389.12 790.79
  Q 396.57 796.72 407.04 799.64
  Q 408.52 800.05 409.35 800.05
  A 1.70 1.69 -27.9 0 1 410.30 800.34
  Q 412.69 801.96 415.66 801.95
  Q 416.00 801.95 416.00 802.29
  L 416.00 802.71
  A 0.55 0.55 0.0 0 0 416.41 803.24
  C 434.67 808.08 450.00 809.40 471.00 811.24
  C 474.70 811.57 478.48 811.53 482.90 811.93
  C 486.73 812.28 491.04 811.94 494.36 812.07
  Q 527.25 813.31 560.07 810.62
  Q 571.56 809.68 578.26 808.26
  C 590.02 805.75 596.69 805.02 607.34 800.95
  Q 607.78 800.78 608.01 800.36
  Q 608.33 799.77 609.07 799.96
  Q 609.54 800.09 609.99 799.92
  Q 617.81 797.13 624.70 792.57
  Q 625.17 792.26 625.13 791.69
  Q 624.97 789.68 627.50 789.56
  Q 651.94 788.42 684.82 784.92
  C 695.23 783.82 709.24 782.31 718.46 777.18
  A 1.01 1.01 0.0 0 0 718.71 775.61
  C 715.44 772.11 708.08 770.67 703.49 769.82
  C 674.29 764.42 643.91 762.80 614.28 761.71
  C 603.24 761.30 592.84 759.46 581.99 762.96
  Q 581.13 763.23 581.25 762.00
  Q 624.05 750.02 660.51 724.82
  Q 661.17 725.25 661.32 725.99
  Q 661.43 726.51 660.90 726.49
  Q 659.85 726.44 659.63 727.64
  Q 659.60 727.80 659.74 727.90
  L 662.19 729.46
  Q 662.52 729.68 662.91 729.63
  Q 666.86 729.13 669.67 731.74
  A 0.77 0.76 51.6 0 0 670.56 731.85
  C 673.70 730.03 674.71 732.67 676.90 733.58
  C 680.58 735.12 684.16 735.04 687.76 736.43
  C 690.30 737.40 692.93 736.87 695.34 737.64
  C 698.92 738.78 702.87 739.20 706.02 739.72
  C 712.25 740.74 718.33 741.30 724.42 742.92
  C 726.00 743.34 727.99 742.93 729.69 744.03
  A 1.36 1.29 58.6 0 0 730.51 744.25
  C 733.38 744.06 735.15 745.72 737.58 746.05
  Q 745.21 747.10 752.71 748.76
  Q 753.38 748.90 752.70 749.00
  L 752.43 749.03
  A 0.50 0.50 0.0 0 0 752.07 749.79
  Q 752.93 751.20 754.28 750.55
  A 0.49 0.49 0.0 0 0 754.41 749.77
  Q 754.15 749.52 754.31 749.31
  Q 754.54 749.00 754.89 749.16
  L 762.43 752.53
  A 1.87 1.87 0.0 0 0 763.59 752.65
  Q 769.37 751.42 772.60 755.98
  A 1.01 1.01 0.0 0 0 773.53 756.41
  Q 778.19 755.99 782.51 757.71
  Q 782.85 757.85 782.67 758.17
  C 782.47 758.53 779.05 757.99 777.82 758.66
  Q 777.45 758.86 777.76 759.13
  C 780.82 761.82 783.71 760.43 786.95 762.17
  Q 787.48 762.45 787.88 762.01
  L 788.50 761.32
  Q 788.68 761.12 788.86 761.31
  L 790.28 762.83
  Q 790.74 763.32 791.23 762.86
  L 792.39 761.78
  Q 792.86 761.34 793.35 761.75
  Q 794.05 762.33 794.00 763.23
  A 1.36 1.30 -64.5 0 0 794.31 764.17
  Q 795.84 765.98 798.24 766.26
  Q 798.80 766.33 799.04 766.84
  Q 801.45 771.84 804.71 773.31
  Q 813.68 777.35 817.86 786.69
  Q 818.13 787.28 818.92 787.26
  A 0.90 0.89 -14.9 0 1 819.72 787.72
  Q 822.08 792.02 820.47 796.60
  Q 820.31 797.07 819.82 796.99
  Q 817.26 796.57 816.82 799.50
  Q 816.77 799.89 817.04 800.17
  L 818.31 801.44
  Q 818.66 801.78 818.40 802.20
  C 817.98 802.87 820.40 805.13 820.75 806.31
  Q 820.87 806.72 820.64 807.07
  L 818.55 810.28
  A 0.98 0.97 47.6 0 1 816.87 810.20
  L 816.40 809.33
  Q 816.12 808.80 815.54 808.95
  L 813.47 809.50
  Q 813.02 809.62 812.59 809.45
  Q 810.01 808.43 808.29 810.60
  C 806.12 813.33 805.04 814.17 801.45 815.28
  C 796.89 816.68 792.79 819.72 788.99 821.27
  C 775.50 826.76 767.74 829.43 757.29 833.08
  C 747.69 836.43 738.05 837.40 728.43 840.09
  C 726.48 840.63 724.73 840.36 722.90 840.86
  Q 718.35 842.10 712.76 843.05
  Q 703.08 844.68 690.43 847.30
  C 687.48 847.91 683.66 847.60 680.17 849.09
  Q 679.71 849.28 679.21 849.19
  Q 675.34 848.44 672.01 850.54
  C 670.99 851.19 667.96 850.30 666.58 850.35
  C 653.01 850.81 640.00 856.01 626.30 854.46
  Q 625.81 854.40 625.34 854.59
  Q 622.99 855.54 620.49 855.64
  C 607.17 856.22 593.91 857.28 580.57 857.54
  Q 560.36 857.94 540.19 859.16
  C 534.93 859.48 528.69 858.96 522.29 859.30
  C 516.02 859.63 508.33 858.98 503.57 858.91
  Q 445.56 858.00 390.75 853.49
  C 379.22 852.54 366.81 849.71 356.01 848.59
  Q 347.92 847.74 339.83 846.87
  C 326.70 845.45 313.46 842.27 300.29 840.04
  C 296.60 839.41 292.36 837.71 288.10 837.29
  Q 288.06 837.29 288.05 837.33
  Q 288.02 837.46 287.98 837.57
  Q 287.95 837.66 287.85 837.64
  C 281.55 836.19 275.50 834.79 269.14 832.80
  C 259.56 829.81 249.46 827.21 240.39 823.81
  C 234.62 821.65 228.54 819.61 223.18 816.55
  C 221.17 815.41 219.02 814.88 217.28 813.30
  Q 212.95 809.40 207.53 807.07
  Q 207.05 806.87 206.75 806.44
  Q 205.30 804.37 202.55 804.30
  Q 202.05 804.28 201.64 803.98
  Q 199.30 802.18 199.33 799.19
  A 1.66 1.66 0.0 0 0 198.98 798.17
  Q 194.12 791.89 200.29 787.20
  Q 200.65 786.93 200.78 786.50
  Q 202.45 780.78 208.04 778.95
  A 1.55 1.55 0.0 0 0 208.84 778.36
  Q 211.31 774.86 215.10 773.14
  C 217.91 771.87 219.53 770.10 222.12 768.77
  C 226.48 766.53 228.72 763.31 233.74 761.72
  C 236.62 760.81 240.74 759.04 243.07 757.22
  C 245.80 755.10 247.82 753.45 251.53 753.14
  Q 255.30 752.83 258.88 751.68
  C 261.49 750.84 263.83 751.04 266.36 750.25
  C 271.59 748.62 276.83 747.64 282.10 745.85
  C 288.36 743.72 294.49 743.79 299.84 741.64
  Q 300.29 741.45 300.77 741.57
  C 303.54 742.27 305.49 740.56 307.37 740.11
  Q 309.58 739.58 311.80 739.18
  Q 312.33 739.09 312.76 738.74
  Q 314.08 737.66 315.80 737.52
  Q 316.29 737.48 316.73 737.24
  Q 318.65 736.22 320.71 736.89
  Q 321.10 737.02 321.50 736.94
  L 324.78 736.34
  A 1.64 1.56 16.3 0 0 325.63 735.90
  Q 327.37 734.17 329.57 735.76
  A 0.70 0.69 -50.9 0 0 330.49 735.66
  C 334.51 731.23 341.71 729.29 347.00 729.51
  C 349.88 729.63 350.13 729.84 352.52 728.13
  C 354.20 726.94 355.87 727.20 357.09 725.00
  A 0.06 0.06 0.0 0 1 357.19 724.98
  L 357.40 725.20
  A 0.33 0.32 26.5 0 0 357.95 725.02
  Q 358.13 723.82 356.87 723.98
  A 0.33 0.32 -3.0 0 1 356.50 723.65
  Q 356.50 723.44 356.50 723.23
  Q 356.50 723.07 356.65 723.05
  L 357.60 722.92
  Z"
/>
<path fill="#d5cdca" d="
  M 435.87 761.20
  Q 508.25 782.08 581.25 762.00
  Q 581.13 763.23 581.99 762.96
  C 592.84 759.46 603.24 761.30 614.28 761.71
  C 643.91 762.80 674.29 764.42 703.49 769.82
  C 708.08 770.67 715.44 772.11 718.71 775.61
  A 1.01 1.01 0.0 0 1 718.46 777.18
  C 709.24 782.31 695.23 783.82 684.82 784.92
  Q 651.94 788.42 627.50 789.56
  Q 624.97 789.68 625.13 791.69
  Q 625.17 792.26 624.70 792.57
  Q 617.81 797.13 609.99 799.92
  Q 609.54 800.09 609.07 799.96
  Q 608.33 799.77 608.01 800.36
  Q 607.78 800.78 607.34 800.95
  C 596.69 805.02 590.02 805.75 578.26 808.26
  Q 571.56 809.68 560.07 810.62
  Q 527.25 813.31 494.36 812.07
  C 491.04 811.94 486.73 812.28 482.90 811.93
  C 478.48 811.53 474.70 811.57 471.00 811.24
  C 450.00 809.40 434.67 808.08 416.41 803.24
  A 0.55 0.55 0.0 0 1 416.00 802.71
  L 416.00 802.29
  Q 416.00 801.95 415.66 801.95
  Q 412.69 801.96 410.30 800.34
  A 1.70 1.69 -27.9 0 0 409.35 800.05
  Q 408.52 800.05 407.04 799.64
  Q 396.57 796.72 389.12 790.79
  C 387.92 789.84 385.96 789.58 384.75 789.54
  Q 345.92 788.10 307.50 782.47
  C 300.79 781.49 295.60 780.13 290.07 777.28
  Q 288.72 776.59 289.70 775.42
  C 293.03 771.41 311.37 769.03 316.75 768.27
  Q 347.44 763.98 380.69 762.65
  C 394.22 762.11 411.74 760.37 428.09 760.46
  C 430.52 760.48 432.52 761.46 434.85 762.08
  A 0.65 0.65 0.0 0 0 435.60 761.75
  L 435.87 761.20
  Z"
/>
</svg>
