<?xml version="1.0" encoding="UTF-8" standalone="no"?>
<!DOCTYPE svg PUBLIC "-//W3C//DTD SVG 1.1//EN" "http://www.w3.org/Graphics/SVG/1.1/DTD/svg11.dtd">
<svg xmlns="http://www.w3.org/2000/svg" version="1.1" viewBox="0.00 0.00 1024.00 1024.00">
<g stroke-width="2.00" fill="none" stroke-linecap="butt">
<path stroke="#a4e0eb" vector-effect="non-scaling-stroke" d="
  M 100.85 578.50
  Q 90.56 592.27 91.69 610.31
  Q 92.34 620.72 101.55 624.32"
/>
<path stroke="#e2fbff" vector-effect="non-scaling-stroke" d="
  M 101.55 624.32
  Q 103.10 647.53 108.63 669.57
  Q 108.76 670.07 108.42 670.47
  C 99.80 680.42 96.96 696.20 104.22 707.30
  C 112.36 719.76 142.36 733.65 156.86 733.00"
/>
<path stroke="#a1b5c7" vector-effect="non-scaling-stroke" d="
  M 156.86 733.00
  C 160.84 744.51 163.52 755.66 163.55 768.20
  Q 163.60 788.61 163.11 808.95"
/>
<path stroke="#a4e0eb" vector-effect="non-scaling-stroke" d="
  M 163.11 808.95
  Q 147.55 809.78 133.06 812.02
  Q 129.25 812.61 126.14 814.08
  A 0.75 0.75 0.0 0 0 126.27 815.49
  Q 135.70 817.99 145.52 818.85
  Q 184.86 822.33 224.21 824.44"
/>
<path stroke="#8697a5" vector-effect="non-scaling-stroke" d="
  M 224.21 824.44
  Q 232.44 831.05 240.76 825.59"
/>
<path stroke="#a4e0eb" vector-effect="non-scaling-stroke" d="
  M 240.76 825.59
  Q 250.77 826.19 260.31 826.49
  C 347.87 829.18 435.35 830.07 522.94 830.39
  Q 653.66 830.86 784.65 827.38"
/>
<path stroke="#8697a5" vector-effect="non-scaling-stroke" d="
  M 784.65 827.38
  Q 790.71 829.18 795.80 826.86"
/>
<path stroke="#a4e0eb" vector-effect="non-scaling-stroke" d="
  M 795.80 826.86
  C 814.01 826.37 974.10 822.22 975.77 809.40
  A 1.05 1.04 25.6 0 0 975.46 808.53
  C 970.32 803.54 952.67 801.93 945.50 801.20
  Q 918.44 798.45 890.82 796.73"
/>
<path stroke="#a1b5c7" vector-effect="non-scaling-stroke" d="
  M 890.82 796.73
  Q 890.14 782.94 892.87 769.28
  Q 893.54 765.91 891.74 758.75
  A 0.07 0.06 35.2 0 0 891.61 758.77
  Q 892.52 765.40 890.23 771.45
  Q 890.09 771.82 890.03 771.42
  Q 887.98 757.95 887.02 744.19"
/>
<path stroke="#a4e0eb" vector-effect="non-scaling-stroke" d="
  M 887.02 744.19
  L 892.72 744.41
  Q 893.26 744.43 893.35 744.96
  Q 893.77 747.32 892.48 749.16
  Q 891.94 749.94 892.66 749.34
  L 896.10 746.49"
/>
<path stroke="#e2fbff" vector-effect="non-scaling-stroke" d="
  M 896.10 746.49
  L 912.89 742.28
  Q 913.38 742.16 913.62 741.71
  C 916.93 735.51 927.94 731.12 933.91 727.26
  A 0.38 0.38 0.0 0 1 934.47 727.46
  Q 934.58 727.78 934.52 728.27"
/>
<path stroke="#a4e0eb" vector-effect="non-scaling-stroke" d="
  M 934.52 728.27
  Q 931.82 731.98 930.19 732.70
  Q 922.78 735.93 916.61 741.13
  C 913.06 744.12 909.87 747.12 905.69 749.35
  Q 899.51 752.65 893.18 756.27
  A 0.93 0.92 38.4 0 0 893.38 757.96
  C 910.39 763.00 927.65 762.92 942.42 751.99
  Q 947.01 748.58 947.81 742.57
  Q 949.23 731.91 945.86 723.68"
/>
<path stroke="#e2fbff" vector-effect="non-scaling-stroke" d="
  M 945.86 723.68
  Q 955.64 714.93 959.42 702.44
  C 961.42 695.85 961.66 687.83 957.22 682.21
  C 952.37 676.07 944.22 679.03 939.31 682.97
  A 0.32 0.32 0.0 0 1 938.82 682.58
  C 961.42 634.46 966.37 580.42 959.50 528.75
  C 946.93 434.21 895.30 345.63 824.34 283.16
  C 764.48 230.46 690.10 193.62 610.93 179.63
  C 520.78 163.70 423.59 172.65 339.01 209.26
  Q 269.57 239.32 216.36 293.37
  A 0.52 0.52 0.0 0 0 216.73 294.25
  L 394.00 294.25
  A 0.94 0.93 1.3 0 0 394.94 293.36
  C 395.53 282.31 391.07 270.84 378.18 270.77
  Q 328.37 270.48 278.56 270.50
  Q 277.86 270.50 275.47 269.85
  Q 274.96 269.72 274.78 269.23
  Q 273.82 266.73 275.63 265.04
  Q 276.05 264.64 276.63 264.63
  C 314.17 263.76 344.75 264.35 378.69 264.36
  C 395.47 264.37 403.55 278.34 403.68 293.70
  A 0.56 0.56 0.0 0 0 404.24 294.25
  L 456.88 294.25
  A 0.63 0.62 -90.0 0 1 457.50 294.88
  L 457.49 301.69
  Q 457.49 302.19 456.99 302.19
  L 209.85 302.14
  A 2.35 2.35 0.0 0 0 208.11 302.91
  Q 130.85 387.47 106.76 499.77
  Q 106.65 500.24 106.21 500.04
  C 96.10 495.45 85.81 490.59 74.77 495.71
  Q 65.74 499.90 64.40 509.71
  C 61.66 529.77 85.35 548.76 99.59 558.15
  Q 100.96 559.05 101.78 559.88
  Q 102.15 560.26 101.97 560.76
  C 100.51 564.79 101.40 569.11 100.93 573.83
  Q 100.89 574.32 101.07 574.78
  Q 101.81 576.67 100.85 578.50"
/>
<path stroke="#86dceb" vector-effect="non-scaling-stroke" d="
  M 945.86 723.68
  Q 942.48 715.86 935.00 715.73
  A 0.62 0.61 -85.7 0 1 934.41 715.04
  C 935.52 706.03 937.06 682.10 924.84 677.82
  A 2.19 2.18 24.9 0 0 922.23 678.77
  C 917.43 686.90 912.42 697.67 905.85 704.43
  C 902.28 708.12 889.26 723.95 893.57 729.11
  Q 893.95 729.57 894.36 729.13
  L 898.71 724.44
  A 0.35 0.35 0.0 0 1 899.30 724.76
  C 898.78 726.89 896.08 735.44 892.34 730.38
  A 1.48 1.46 -63.6 0 1 892.05 729.50
  C 892.17 711.24 902.71 694.65 912.78 679.58
  A 0.82 0.82 0.0 0 0 912.83 678.75
  C 910.20 673.66 905.50 670.38 899.55 671.71
  C 887.84 674.33 883.70 687.30 883.90 697.69"
/>
<path stroke="#e2fbff" vector-effect="non-scaling-stroke" d="
  M 883.90 697.69
  C 882.22 694.06 882.40 690.22 880.81 686.98
  Q 877.71 680.66 872.77 675.63
  Q 872.40 675.25 871.99 675.60
  Q 871.64 675.90 871.43 676.36"
/>
<path stroke="#86dceb" vector-effect="non-scaling-stroke" d="
  M 871.43 676.36
  C 866.23 667.29 859.19 671.84 853.80 676.93
  A 1.14 1.14 0.0 0 0 853.66 678.44
  C 864.68 693.49 876.49 712.53 875.46 732.04
  A 2.20 2.19 -13.8 0 1 874.38 733.82
  Q 872.49 734.94 871.91 732.77
  C 866.33 711.92 859.75 695.77 846.25 679.10
  A 1.02 0.98 27.5 0 1 846.03 678.45
  Q 846.04 678.19 845.88 677.98"
/>
<path stroke="#77a2b5" vector-effect="non-scaling-stroke" d="
  M 845.88 677.98
  Q 846.45 671.86 845.78 665.78"
/>
<path stroke="#e2fbff" vector-effect="non-scaling-stroke" d="
  M 845.78 665.78
  Q 846.96 665.47 849.19 665.89
  Q 852.40 666.49 857.75 665.55
  Q 858.25 665.47 858.25 664.96
  L 858.25 645.79
  A 0.64 0.64 0.0 0 0 857.61 645.15
  L 787.63 645.21"
/>
<path stroke="#bfdff1" vector-effect="non-scaling-stroke" d="
  M 787.63 645.21
  C 787.56 640.73 788.50 618.63 787.19 616.47"
/>
<path stroke="#e2fbff" vector-effect="non-scaling-stroke" d="
  M 787.19 616.47
  Q 788.77 614.42 791.57 612.07
  C 818.84 589.15 842.73 560.06 856.26 526.83
  C 883.05 460.99 867.28 388.06 820.33 335.67
  C 798.45 311.26 768.87 292.54 738.37 280.48
  C 710.30 269.38 681.27 266.63 650.93 271.41
  C 577.48 282.99 510.60 308.19 450.02 351.49
  C 439.31 359.15 430.31 365.72 423.82 374.83
  C 413.29 389.63 413.73 408.39 412.98 425.87
  C 411.46 461.20 414.80 493.82 426.30 527.48
  Q 426.88 529.18 426.77 533.04"
/>
<path stroke="#ceeef8" vector-effect="non-scaling-stroke" d="
  M 426.77 533.04
  Q 426.65 536.50 421.95 535.72"
/>
<path stroke="#e2cbc0" vector-effect="non-scaling-stroke" d="
  M 421.95 535.72
  C 415.93 532.20 409.49 533.28 403.17 532.43"
/>
<path stroke="#79cddf" vector-effect="non-scaling-stroke" d="
  M 403.17 532.43
  C 394.22 528.20 385.82 522.74 377.51 517.40
  C 365.42 509.63 360.73 502.27 354.08 489.82"
/>
<path stroke="#e2fbff" vector-effect="non-scaling-stroke" d="
  M 354.08 489.82
  Q 353.07 482.07 350.59 474.23
  Q 350.42 473.70 349.95 473.99
  Q 349.37 474.34 349.43 475.29"
/>
<path stroke="#86dceb" vector-effect="non-scaling-stroke" d="
  M 349.43 475.29
  C 345.71 458.30 333.89 444.19 316.76 439.91"
/>
<path stroke="#e2cbc0" vector-effect="non-scaling-stroke" d="
  M 316.76 439.91
  L 316.81 432.04
  A 0.83 0.82 -80.6 0 0 316.26 431.26
  Q 314.78 430.74 314.74 429.69"
/>
<path stroke="#6992a5" vector-effect="non-scaling-stroke" d="
  M 314.74 429.69
  C 323.33 432.58 336.37 434.80 337.45 422.23
  Q 337.92 416.76 335.71 412.58"
/>
<path stroke="#86dceb" vector-effect="non-scaling-stroke" d="
  M 335.71 412.58
  Q 335.61 412.39 335.50 412.21"
/>
<path stroke="#6992a5" vector-effect="non-scaling-stroke" d="
  M 335.50 412.21
  C 338.53 410.91 336.52 406.75 334.84 405.19"
/>
<path stroke="#e2cbc0" vector-effect="non-scaling-stroke" d="
  M 334.84 405.19
  Q 336.31 403.07 338.51 402.08
  A 1.39 1.39 0.0 0 0 339.24 400.35
  C 337.24 394.81 335.68 388.91 332.01 384.54
  Q 331.67 384.14 331.79 383.63
  Q 333.21 377.35 330.50 371.22"
/>
<path stroke="#6992a5" vector-effect="non-scaling-stroke" d="
  M 330.50 371.22
  Q 337.52 367.73 339.11 360.41
  C 341.10 351.27 334.76 345.58 326.72 342.83
  Q 326.28 342.68 326.14 343.12
  C 320.08 361.49 296.73 352.62 283.01 356.02
  C 258.66 362.05 265.06 389.98 274.84 405.17
  Q 280.35 413.73 285.54 420.18"
/>
<path stroke="#e2cbc0" vector-effect="non-scaling-stroke" d="
  M 285.54 420.18
  Q 285.55 429.62 282.61 438.37"
/>
<path stroke="#86dceb" vector-effect="non-scaling-stroke" d="
  M 282.61 438.37
  C 272.73 436.10 263.14 446.36 257.33 452.14
  Q 256.93 452.54 257.48 452.67
  Q 259.08 453.04 261.37 452.45"
/>
<path stroke="#e2fbff" vector-effect="non-scaling-stroke" d="
  M 261.37 452.45
  L 260.23 453.48
  Q 259.65 453.99 260.43 453.98
  Q 261.07 453.97 261.17 454.26"
/>
<path stroke="#86dceb" vector-effect="non-scaling-stroke" d="
  M 261.17 454.26
  C 249.99 452.47 243.84 463.80 243.55 473.54
  Q 243.35 480.05 244.72 488.32"
/>
<path stroke="#e2fbff" vector-effect="non-scaling-stroke" d="
  M 244.72 488.32
  Q 246.33 527.28 250.80 564.99
  Q 251.14 567.82 250.34 574.90"
/>
<path stroke="#86dceb" vector-effect="non-scaling-stroke" d="
  M 250.34 574.90
  L 243.30 571.86
  A 0.77 0.77 0.0 0 1 242.85 571.03
  C 245.20 557.40 245.86 535.90 235.01 525.25
  C 231.77 522.06 227.70 527.53 226.41 529.98
  C 216.60 548.69 202.77 571.50 194.60 595.90
  Q 193.26 599.91 191.47 603.67
  A 1.07 1.07 0.0 0 1 189.68 603.90
  Q 188.30 602.26 188.23 599.99
  C 187.51 575.61 201.69 555.66 213.89 537.94
  C 215.33 535.85 221.51 528.81 218.44 526.33
  C 214.46 523.13 209.25 522.53 204.47 521.22
  C 197.79 519.40 192.99 519.18 189.76 525.78
  C 183.91 537.73 181.18 550.15 179.03 563.19
  C 178.47 566.55 176.24 566.94 173.59 565.11
  Q 169.30 562.17 164.29 561.62
  A 1.98 1.98 0.0 0 1 162.56 560.06
  C 160.34 549.52 158.74 538.08 152.64 529.02
  C 149.25 523.98 146.96 521.20 140.68 522.63
  Q 132.33 524.54 126.95 530.67
  A 2.12 2.11 -41.3 0 0 126.78 533.23
  C 136.29 547.54 148.97 561.61 153.18 579.16
  Q 155.47 588.72 155.86 598.63
  Q 156.06 603.89 154.70 598.81
  C 153.28 593.46 150.78 587.78 147.51 581.91
  Q 133.46 556.70 117.76 532.47
  Q 116.81 531.02 115.80 530.34
  Q 115.32 530.01 114.81 530.28
  C 101.74 537.00 103.86 562.90 105.42 574.52
  A 0.88 0.87 -22.3 0 1 105.07 575.34
  L 100.85 578.50"
/>
<path stroke="#8697a5" vector-effect="non-scaling-stroke" d="
  M 341.48 573.01
  Q 342.51 607.67 344.05 624.94
  Q 347.23 660.51 354.98 711.77"
/>
<path stroke="#e2fbff" vector-effect="non-scaling-stroke" d="
  M 354.98 711.77
  Q 356.57 710.73 356.25 712.99"
/>
<path stroke="#8697a5" vector-effect="non-scaling-stroke" d="
  M 356.25 712.99
  L 243.33 712.99"
/>
<path stroke="#e2fbff" vector-effect="non-scaling-stroke" d="
  M 243.33 712.99
  L 247.24 623.41"
/>
<path stroke="#a4e0eb" vector-effect="non-scaling-stroke" d="
  M 247.24 623.41
  L 250.34 574.90"
/>
<path stroke="#738a9e" vector-effect="non-scaling-stroke" d="
  M 464.74 535.81
  Q 466.57 528.28 465.21 523.05
  C 462.87 514.09 451.17 509.52 443.60 515.34
  C 436.77 520.59 437.13 527.82 438.60 535.83"
/>
<path stroke="#ecc2ba" vector-effect="non-scaling-stroke" d="
  M 421.69 535.95
  Q 422.00 536.38 421.95 535.72"
/>
<path stroke="#2b7891" vector-effect="non-scaling-stroke" d="
  M 300.22 453.54
  Q 302.49 457.41 305.36 460.84
  C 310.29 466.72 313.78 472.82 318.06 478.82"
/>
<path stroke="#3bb2cc" vector-effect="non-scaling-stroke" d="
  M 318.06 478.82
  C 320.36 483.25 322.91 487.44 325.00 491.93
  Q 330.15 503.00 336.25 513.45"
/>
<path stroke="#a4e0eb" vector-effect="non-scaling-stroke" d="
  M 336.25 513.45
  L 304.67 514.93
  A 0.25 0.25 0.0 0 0 304.47 515.31
  C 312.65 527.98 324.59 534.57 339.66 535.33"
/>
<path stroke="#2b7891" vector-effect="non-scaling-stroke" d="
  M 339.66 535.33
  Q 340.07 535.04 341.03 535.43"
/>
<path stroke="#a4e0eb" vector-effect="non-scaling-stroke" d="
  M 341.03 535.43
  Q 347.08 534.94 353.63 535.50"
/>
<path stroke="#3bb2cc" vector-effect="non-scaling-stroke" d="
  M 353.63 535.50
  Q 371.75 536.42 389.77 538.41"
/>
<path stroke="#a4b0ad" vector-effect="non-scaling-stroke" d="
  M 389.77 538.41
  C 387.41 542.95 393.30 544.57 392.94 549.29
  Q 392.75 551.68 392.43 553.92"
/>
<path stroke="#4596b3" vector-effect="non-scaling-stroke" d="
  M 392.43 553.92
  Q 391.62 555.84 389.79 555.81
  Q 389.29 555.80 388.93 556.15
  Q 388.27 556.82 388.57 557.73"
/>
<path stroke="#a4b0ad" vector-effect="non-scaling-stroke" d="
  M 388.57 557.73
  Q 388.47 559.43 389.11 561.11
  Q 389.28 561.56 389.73 561.73
  L 393.70 563.19"
/>
<path stroke="#86dceb" vector-effect="non-scaling-stroke" d="
  M 393.70 563.19
  Q 393.31 564.60 391.50 565.00
  Q 370.43 569.72 353.08 572.10"
/>
<path stroke="#a4e0eb" vector-effect="non-scaling-stroke" d="
  M 353.08 572.10
  L 342.71 572.94"
/>
<path stroke="#2b7891" vector-effect="non-scaling-stroke" d="
  M 342.71 572.94
  Q 341.20 573.47 341.48 573.01"
/>
<path stroke="#a4e0eb" vector-effect="non-scaling-stroke" d="
  M 341.48 573.01
  Q 314.01 574.29 292.12 560.10
  C 278.80 551.47 267.91 538.22 260.31 524.19
  Q 251.36 507.65 244.72 488.32"
/>
<path stroke="#a4e0eb" vector-effect="non-scaling-stroke" d="
  M 261.17 454.26
  C 272.40 457.22 280.13 467.44 284.67 477.93
  Q 290.67 491.78 297.66 505.46
  A 0.29 0.28 -65.5 0 0 298.19 505.26
  C 295.13 492.33 292.41 481.01 284.82 469.19
  Q 275.94 455.36 261.37 452.45"
/>
<path stroke="#dde4f1" vector-effect="non-scaling-stroke" d="
  M 787.19 616.47
  L 565.77 616.47"
/>
<path stroke="#a1b5c7" vector-effect="non-scaling-stroke" d="
  M 565.77 616.47
  L 560.24 614.74"
/>
<path stroke="#dde4f1" vector-effect="non-scaling-stroke" d="
  M 560.24 614.74
  C 550.14 609.07 539.22 603.23 530.40 596.70
  Q 503.01 576.46 483.76 548.02
  Q 483.48 547.62 483.00 547.53
  L 481.74 547.30"
/>
<path stroke="#8697a5" vector-effect="non-scaling-stroke" d="
  M 481.74 547.30
  L 481.45 540.80
  Q 481.43 540.32 480.96 540.22
  C 478.90 539.77 476.57 540.20 475.07 540.21
  Q 443.44 540.41 411.80 540.04
  Q 411.40 540.04 411.28 540.41
  Q 411.23 540.57 411.27 540.74"
/>
<path stroke="#ffcfc1" vector-effect="non-scaling-stroke" d="
  M 411.27 540.74
  Q 410.06 540.53 410.09 539.30
  C 410.19 535.65 419.11 536.10 421.69 535.95"
/>
<path stroke="#ecf2f8" vector-effect="non-scaling-stroke" d="
  M 421.69 535.95
  Q 430.74 537.68 438.60 535.83"
/>
<path stroke="#8697a5" vector-effect="non-scaling-stroke" d="
  M 438.60 535.83
  L 464.74 535.81"
/>
<path stroke="#ecf2f8" vector-effect="non-scaling-stroke" d="
  M 464.74 535.81
  L 475.50 537.93
  Q 476.04 538.03 476.27 538.54
  Q 476.54 539.15 477.30 539.36
  A 1.35 1.34 -3.1 0 0 478.91 537.57
  C 473.37 523.47 470.97 511.91 456.11 504.47
  Q 451.88 502.35 448.55 502.80
  C 434.44 504.70 428.49 520.71 427.68 533.31
  A 0.33 0.33 0.0 0 1 427.08 533.48
  L 426.77 533.04"
/>
<path stroke="#866767" vector-effect="non-scaling-stroke" d="
  M 411.27 540.74
  C 412.43 542.31 411.73 556.16 411.70 559.07"
/>
<path stroke="#e2cbc0" vector-effect="non-scaling-stroke" d="
  M 411.70 559.07
  Q 410.77 563.04 406.25 562.97
  Q 400.01 562.86 393.70 563.19"
/>
<path stroke="#a18589" vector-effect="non-scaling-stroke" d="
  M 388.57 557.73
  Q 388.63 555.97 390.93 556.49
  Q 391.46 556.60 391.88 556.27
  Q 392.75 555.57 392.43 553.92"
/>
<path stroke="#a4e0eb" vector-effect="non-scaling-stroke" d="
  M 349.43 475.29
  Q 352.13 493.27 351.65 511.54
  Q 351.63 512.10 351.08 512.13
  L 340.38 512.76"
/>
<path stroke="#2b7891" vector-effect="non-scaling-stroke" d="
  M 340.38 512.76
  C 337.63 488.34 335.02 474.39 330.43 456.55
  Q 329.07 451.28 324.76 451.40"
/>
<path stroke="#3bb2cc" vector-effect="non-scaling-stroke" d="
  M 324.76 451.40
  L 322.26 452.23
  A 1.20 1.19 69.8 0 1 320.77 451.54
  L 318.25 445.22"
/>
<path stroke="#86dceb" vector-effect="non-scaling-stroke" d="
  M 247.24 623.41
  Q 231.19 632.39 213.01 632.26
  Q 199.98 632.16 187.19 632.38
  A 0.36 0.36 0.0 0 1 187.07 631.68
  C 200.13 627.46 212.77 618.78 222.98 609.84
  C 232.43 601.57 239.03 594.73 242.27 583.45
  A 0.91 0.91 0.0 0 0 240.87 582.46
  Q 234.57 586.94 228.53 591.82
  C 213.92 603.60 205.29 619.73 185.62 620.80"
/>
<path stroke="#4596b3" vector-effect="non-scaling-stroke" d="
  M 185.62 620.80
  L 183.75 620.21"
/>
<path stroke="#86dceb" vector-effect="non-scaling-stroke" d="
  M 183.75 620.21
  Q 179.82 617.27 175.48 616.22"
/>
<path stroke="#4596b3" vector-effect="non-scaling-stroke" d="
  M 175.48 616.22
  Q 174.78 614.11 174.74 612.25
  Q 174.58 604.97 174.25 576.48
  A 0.68 0.66 4.0 0 0 173.66 575.82
  L 172.19 575.65
  Q 171.61 575.58 171.57 576.16
  C 170.52 590.08 171.89 604.26 171.09 618.33"
/>
<path stroke="#86dceb" vector-effect="non-scaling-stroke" d="
  M 171.09 618.33
  Q 163.34 619.73 155.30 619.16
  Q 154.61 619.11 154.69 619.80
  L 155.02 622.64
  Q 155.06 622.98 154.72 623.01
  C 154.29 623.06 154.24 622.92 154.13 622.55
  C 151.27 613.53 149.49 609.21 143.25 604.25
  C 132.08 595.36 121.03 590.27 108.51 584.47
  A 0.44 0.44 0.0 0 0 107.93 585.06
  Q 116.54 603.16 135.28 610.87
  C 137.03 611.59 137.94 611.86 140.07 611.93
  C 147.25 612.18 147.36 619.17 151.27 623.28
  Q 155.99 628.24 160.91 633.05
  Q 161.30 633.43 160.86 633.75
  L 158.93 635.22"
/>
<path stroke="#4596b3" vector-effect="non-scaling-stroke" d="
  M 158.93 635.22
  Q 157.87 634.19 156.95 634.72"
/>
<path stroke="#86dceb" vector-effect="non-scaling-stroke" d="
  M 156.95 634.72
  C 137.70 636.33 119.92 632.56 101.55 624.32"
/>
<path stroke="#96a1a1" vector-effect="non-scaling-stroke" d="
  M 403.17 532.43
  C 396.66 531.77 393.20 532.54 389.77 538.41"
/>
<path stroke="#dde4f1" vector-effect="non-scaling-stroke" d="
  M 787.63 645.21
  L 565.79 645.19"
/>
<path stroke="#a4b0ad" vector-effect="non-scaling-stroke" d="
  M 316.76 439.91
  L 318.25 445.22"
/>
<path stroke="#96a1a1" vector-effect="non-scaling-stroke" d="
  M 318.25 445.22
  Q 319.06 449.66 320.89 452.64"
/>
<path stroke="#866767" vector-effect="non-scaling-stroke" d="
  M 320.89 452.64
  Q 322.81 458.56 321.15 462.97
  C 318.59 469.75 309.65 463.22 306.66 460.75
  C 304.17 458.69 303.07 455.76 300.22 453.54"
/>
<path stroke="#a4b0ad" vector-effect="non-scaling-stroke" d="
  M 300.22 453.54
  Q 298.44 450.80 295.52 448.43
  Q 295.16 448.14 295.06 447.68
  Q 294.81 446.43 293.49 446.15
  Q 293.08 446.06 293.03 445.65
  C 292.81 443.76 284.19 439.16 282.61 438.37"
/>
<path stroke="#94a6b5" vector-effect="non-scaling-stroke" d="
  M 845.78 665.78
  L 845.25 665.75"
/>
<path stroke="#8697a5" vector-effect="non-scaling-stroke" d="
  M 845.25 665.75
  L 400.27 665.75"
/>
<path stroke="#96d1e0" vector-effect="non-scaling-stroke" d="
  M 354.08 489.82
  C 355.04 505.38 354.09 523.65 353.63 535.50"
/>
<path stroke="#a4e0eb" vector-effect="non-scaling-stroke" d="
  M 871.43 676.36
  C 876.18 684.06 877.19 693.40 879.02 701.95
  C 879.51 704.29 880.78 705.28 883.13 704.26
  A 0.85 0.85 0.0 0 0 883.65 703.51
  L 883.90 697.69"
/>
<path stroke="#86dceb" vector-effect="non-scaling-stroke" d="
  M 934.52 728.27
  L 937.58 723.86
  A 1.20 1.20 0.0 0 0 936.74 721.98
  C 927.04 720.76 921.09 728.02 914.49 733.55
  C 908.46 738.59 902.49 742.35 896.10 746.49"
/>
<path stroke="#4596b3" vector-effect="non-scaling-stroke" d="
  M 887.02 744.19
  C 885.13 734.11 886.31 722.03 886.07 711.63
  Q 886.06 711.00 885.43 711.00
  L 883.56 711.00
  Q 883.03 711.00 883.03 711.53
  L 882.61 742.26"
/>
<path stroke="#86dceb" vector-effect="non-scaling-stroke" d="
  M 882.61 742.26
  Q 878.44 742.38 874.69 744.42
  C 872.07 745.85 869.74 745.18 867.87 742.85
  C 860.17 733.25 850.49 724.39 838.47 721.90
  Q 837.91 721.79 838.21 722.27
  C 841.77 728.06 845.16 734.22 850.36 738.75
  C 860.19 747.31 868.09 751.89 881.02 757.18"
/>
<path stroke="#a4e0eb" vector-effect="non-scaling-stroke" d="
  M 881.02 757.18
  L 877.34 756.97"
/>
<path stroke="#86dceb" vector-effect="non-scaling-stroke" d="
  M 877.34 756.97
  Q 876.28 756.23 873.75 756.13
  Q 858.63 755.52 846.24 758.71"
/>
<path stroke="#866767" vector-effect="non-scaling-stroke" d="
  M 330.50 371.22
  C 322.92 374.03 312.19 373.43 304.20 371.81
  A 0.36 0.36 0.0 0 0 303.81 372.33
  C 305.54 375.66 309.83 383.21 308.03 386.74
  C 304.38 393.92 303.97 402.20 309.97 408.06
  C 312.31 410.35 316.68 413.53 320.14 412.95
  Q 320.67 412.86 320.86 412.36
  L 322.15 409.07
  Q 322.39 408.45 323.02 408.22
  Q 328.85 405.98 334.84 405.19"
/>
<path stroke="#2b7891" vector-effect="non-scaling-stroke" d="
  M 335.50 412.21
  C 334.23 412.42 329.57 413.17 328.84 414.37
  Q 328.37 415.13 329.16 414.71
  Q 332.00 413.23 335.71 412.58"
/>
<path stroke="#866767" vector-effect="non-scaling-stroke" d="
  M 314.74 429.69
  C 308.07 426.20 301.85 419.70 300.85 412.03
  C 300.13 406.40 301.03 400.43 301.07 394.75
  C 301.14 383.75 284.57 387.01 289.63 398.82
  C 290.09 399.87 291.19 400.75 291.79 401.86
  Q 292.03 402.32 291.81 402.79
  Q 287.69 411.58 285.54 420.18"
/>
<path stroke="#3987a1" vector-effect="non-scaling-stroke" d="
  M 845.88 677.98
  C 845.70 678.75 845.45 679.29 844.76 679.80
  C 837.22 685.41 837.35 707.48 837.99 714.89
  A 0.88 0.87 -20.9 0 1 837.64 715.66
  C 836.04 716.84 833.76 716.87 832.83 718.80
  Q 828.29 728.29 828.00 738.63
  C 827.68 750.29 834.16 754.40 844.49 756.62"
/>
<path stroke="#6992a5" vector-effect="non-scaling-stroke" d="
  M 243.33 712.99
  L 190.94 712.99
  Q 190.20 712.99 190.18 713.74
  L 189.93 729.30"
/>
<path stroke="#e2fbff" vector-effect="non-scaling-stroke" d="
  M 189.93 729.30
  Q 188.27 739.06 189.05 748.77
  C 189.76 757.57 187.80 766.66 186.57 775.37
  C 185.74 781.26 185.24 790.43 183.53 797.93"
/>
<path stroke="#86dceb" vector-effect="non-scaling-stroke" d="
  M 183.53 797.93
  Q 183.73 795.89 183.07 794.23"
/>
<path stroke="#e2fbff" vector-effect="non-scaling-stroke" d="
  M 461.04 645.05
  L 390.75 645.19
  A 0.40 0.40 0.0 0 0 390.35 645.59
  L 390.22 664.96
  Q 390.21 665.45 390.70 665.47
  L 400.27 665.75"
/>
<path stroke="#6992a5" vector-effect="non-scaling-stroke" d="
  M 400.27 665.75
  Q 400.72 689.16 400.15 712.49
  Q 400.13 712.98 399.64 712.98
  L 356.25 712.99"
/>
<path stroke="#6992a5" vector-effect="non-scaling-stroke" d="
  M 354.98 711.77
  Q 355.45 704.45 353.98 696.74"
/>
<path stroke="#e2fbff" vector-effect="non-scaling-stroke" d="
  M 353.98 696.74
  L 354.85 696.18
  Q 355.31 695.88 355.31 695.34
  Q 355.32 690.31 354.52 681.75
  C 353.48 670.69 353.06 652.80 352.49 638.00
  Q 351.22 605.19 353.08 572.10"
/>
<path stroke="#1b3e5b" vector-effect="non-scaling-stroke" d="
  M 845.25 665.75
  C 845.68 667.84 840.43 667.80 839.20 667.77
  C 805.97 666.86 779.35 667.75 749.56 667.70
  C 733.21 667.68 715.22 667.14 698.00 667.47
  C 632.86 668.71 567.58 667.41 502.43 667.55
  C 473.97 667.61 445.45 667.47 416.99 667.75
  Q 416.46 667.76 416.40 668.29
  Q 416.26 669.48 416.26 671.50
  Q 416.21 704.84 416.27 738.19
  Q 416.28 746.16 417.58 749.52
  C 419.96 755.68 425.60 760.25 432.50 760.25
  Q 611.20 760.24 789.89 760.26
  C 795.73 760.26 804.96 760.81 812.67 760.05
  Q 813.16 760.00 813.42 759.59
  C 819.63 749.98 824.18 742.36 825.79 732.61
  Q 825.99 731.38 827.17 731.80
  C 828.01 732.10 828.05 733.05 827.81 733.86
  Q 823.71 747.81 815.61 759.80
  Q 815.38 760.14 815.79 760.15
  Q 829.96 760.73 844.04 759.18
  Q 844.62 759.12 844.51 758.55
  Q 844.29 757.48 844.49 756.62"
/>
<path stroke="#2b7891" vector-effect="non-scaling-stroke" d="
  M 844.49 756.62
  Q 846.55 757.00 846.24 758.71"
/>
<path stroke="#6992a5" vector-effect="non-scaling-stroke" d="
  M 846.24 758.71
  Q 843.42 770.00 831.48 771.14
  Q 831.02 771.18 831.02 771.64
  L 831.01 794.10"
/>
<path stroke="#2b7891" vector-effect="non-scaling-stroke" d="
  M 831.01 794.10
  L 830.93 798.48
  Q 830.92 799.10 830.30 799.10
  L 804.49 799.23"
/>
<path stroke="#284c6d" vector-effect="non-scaling-stroke" d="
  M 804.49 799.23
  Q 789.72 798.73 775.01 799.23"
/>
<path stroke="#2b7891" vector-effect="non-scaling-stroke" d="
  M 775.01 799.23
  L 348.00 799.25"
/>
<path stroke="#8697a5" vector-effect="non-scaling-stroke" d="
  M 348.00 799.25
  L 295.05 799.25"
/>
<path stroke="#2b7891" vector-effect="non-scaling-stroke" d="
  M 295.05 799.25
  L 279.03 799.23"
/>
<path stroke="#8697a5" vector-effect="non-scaling-stroke" d="
  M 279.03 799.23
  L 248.48 799.13"
/>
<path stroke="#284c6d" vector-effect="non-scaling-stroke" d="
  M 248.48 799.13
  L 218.85 799.31"
/>
<path stroke="#8697a5" vector-effect="non-scaling-stroke" d="
  M 218.85 799.31
  L 207.76 799.50
  Q 207.25 799.51 207.25 798.99
  L 207.25 772.48
  Q 207.25 771.86 206.63 771.87
  C 187.79 772.17 190.49 740.60 189.93 729.30"
/>
<path stroke="#1d6986" vector-effect="non-scaling-stroke" d="
  M 324.76 451.40
  Q 325.25 452.40 326.74 452.45
  Q 327.23 452.47 327.56 452.85
  Q 328.73 454.25 329.22 456.00
  Q 336.92 484.04 339.03 512.96"
/>
<path stroke="#96d1e0" vector-effect="non-scaling-stroke" d="
  M 339.03 512.96
  L 336.25 513.45"
/>
<path stroke="#1d6986" vector-effect="non-scaling-stroke" d="
  M 318.06 478.82
  C 319.96 478.72 329.22 478.60 329.32 474.67
  Q 329.65 461.68 320.89 452.64"
/>
<path stroke="#8697a5" vector-effect="non-scaling-stroke" d="
  M 340.38 512.76
  L 341.03 535.43"
/>
<path stroke="#8697a5" vector-effect="non-scaling-stroke" d="
  M 339.66 535.33
  L 339.03 512.96"
/>
<path stroke="#8697a5" vector-effect="non-scaling-stroke" d="
  M 353.98 696.74
  Q 347.36 651.74 344.81 617.19
  Q 344.04 606.67 342.71 572.94"
/>
<path stroke="#7e99b9" vector-effect="non-scaling-stroke" d="
  M 565.77 616.47
  L 565.79 645.19"
/>
<path stroke="#a1b5c7" vector-effect="non-scaling-stroke" d="
  M 565.79 645.19
  L 537.74 645.07"
/>
<path stroke="#7e99b9" vector-effect="non-scaling-stroke" d="
  M 560.24 614.74
  Q 529.05 613.78 497.46 617.84"
/>
<path stroke="#bfdff1" vector-effect="non-scaling-stroke" d="
  M 497.46 617.84
  Q 489.79 613.81 484.13 606.42
  A 0.53 0.53 0.0 0 0 483.38 606.33
  L 483.11 606.54"
/>
<path stroke="#647b97" vector-effect="non-scaling-stroke" d="
  M 481.74 547.30
  L 481.71 558.22
  Q 481.71 558.66 481.27 558.67
  L 462.55 558.99
  Q 462.09 559.00 462.28 559.42
  L 483.11 606.54"
/>
<path stroke="#6992a5" vector-effect="non-scaling-stroke" d="
  M 483.11 606.54
  L 499.70 645.00"
/>
<path stroke="#8697a5" vector-effect="non-scaling-stroke" d="
  M 499.70 645.00
  L 495.45 644.97"
/>
<path stroke="#1b3e5b" vector-effect="non-scaling-stroke" d="
  M 495.45 644.97
  Q 488.86 632.45 485.98 625.79
  Q 475.14 600.76 458.21 563.49
  Q 457.11 561.08 456.26 559.55
  Q 455.95 558.99 455.30 558.99
  L 438.51 559.01
  A 0.42 0.42 0.0 0 0 438.11 559.56
  Q 454.70 612.89 459.73 629.76
  Q 460.70 633.04 463.61 644.98"
/>
<path stroke="#8697a5" vector-effect="non-scaling-stroke" d="
  M 463.61 644.98
  Q 461.71 645.40 461.04 645.05"
/>
<path stroke="#6992a5" vector-effect="non-scaling-stroke" d="
  M 461.04 645.05
  L 433.88 559.53
  Q 433.72 559.03 433.20 559.03
  L 411.70 559.07"
/>
<path stroke="#83b0c7" vector-effect="non-scaling-stroke" d="
  M 175.48 616.22
  Q 175.85 622.16 176.10 628.02
  C 176.43 635.78 177.60 644.98 177.52 653.58
  A 0.16 0.14 -82.8 0 0 177.62 653.73
  Q 177.68 653.75 177.73 653.75
  A 0.32 0.20 -82.8 0 0 177.94 653.49
  L 183.75 620.21"
/>
<path stroke="#83b0c7" vector-effect="non-scaling-stroke" d="
  M 185.62 620.80
  Q 182.38 646.83 180.00 672.38
  C 179.75 674.98 178.43 678.69 178.46 680.75
  C 179.09 718.65 181.59 756.38 183.07 794.23"
/>
<path stroke="#4596b3" vector-effect="non-scaling-stroke" d="
  M 183.07 794.23
  C 182.96 796.45 182.41 803.44 183.69 804.99"
/>
<path stroke="#a1b5c7" vector-effect="non-scaling-stroke" d="
  M 183.69 804.99
  Q 183.94 805.89 183.55 807.29"
/>
<path stroke="#4596b3" vector-effect="non-scaling-stroke" d="
  M 183.55 807.29
  L 183.79 812.72
  Q 183.84 813.84 182.72 813.82
  L 163.03 813.45
  Q 162.13 813.44 162.32 812.55
  L 163.11 808.95"
/>
<path stroke="#83b0c7" vector-effect="non-scaling-stroke" d="
  M 156.86 733.00
  Q 145.02 700.96 118.66 679.29
  A 0.63 0.62 -53.4 0 1 118.54 678.45
  L 120.53 675.51
  A 0.58 0.58 0.0 0 1 121.38 675.39
  Q 145.13 695.00 158.02 722.65
  C 161.83 730.81 163.84 739.54 165.32 748.40
  A 0.26 0.26 0.0 0 0 165.83 748.34
  C 165.29 741.49 165.74 733.51 165.75 728.36
  Q 165.77 705.53 165.73 682.70
  Q 165.72 677.84 164.70 673.02
  Q 160.69 653.97 156.95 634.72"
/>
<path stroke="#83b0c7" vector-effect="non-scaling-stroke" d="
  M 158.93 635.22
  L 166.04 667.71
  Q 166.19 668.39 166.28 667.70
  Q 169.47 642.70 171.09 618.33"
/>
<path stroke="#83b0c7" vector-effect="non-scaling-stroke" d="
  M 497.46 617.84
  Q 499.60 618.60 503.25 618.67
  Q 520.22 618.99 537.06 619.03
  A 0.69 0.68 90.0 0 1 537.74 619.72
  L 537.74 645.07"
/>
<path stroke="#e2fbff" vector-effect="non-scaling-stroke" d="
  M 537.74 645.07
  L 499.70 645.00"
/>
<path stroke="#94a6b5" vector-effect="non-scaling-stroke" d="
  M 495.45 644.97
  L 463.61 644.98"
/>
<path stroke="#4596b3" vector-effect="non-scaling-stroke" d="
  M 890.82 796.73
  L 891.11 814.82
  Q 891.13 815.76 890.19 815.76
  L 880.74 815.75
  Q 880.21 815.75 880.22 815.22
  L 880.82 796.22"
/>
<path stroke="#a1b5c7" vector-effect="non-scaling-stroke" d="
  M 880.82 796.22
  L 881.67 758.02"
/>
<path stroke="#83b0c7" vector-effect="non-scaling-stroke" d="
  M 881.67 758.02
  L 882.61 742.26"
/>
<path stroke="#a4e0eb" vector-effect="non-scaling-stroke" d="
  M 880.82 796.22
  L 841.00 794.27"
/>
<path stroke="#e2fbff" vector-effect="non-scaling-stroke" d="
  M 881.67 758.02
  Q 881.43 757.11 881.02 757.18"
/>
<path stroke="#e2fbff" vector-effect="non-scaling-stroke" d="
  M 877.34 756.97
  Q 876.94 757.40 876.39 757.58
  Q 875.90 757.74 875.59 758.16
  C 866.03 771.21 854.38 785.05 841.00 794.27"
/>
<path stroke="#86dceb" vector-effect="non-scaling-stroke" d="
  M 841.00 794.27
  L 831.01 794.10"
/>
<path stroke="#a1b5c7" vector-effect="non-scaling-stroke" d="
  M 218.85 799.31
  L 219.12 804.79"
/>
<path stroke="#a4e0eb" vector-effect="non-scaling-stroke" d="
  M 219.12 804.79
  Q 219.31 804.99 219.28 805.19
  Q 219.22 805.67 218.74 805.68
  Q 201.35 805.95 183.55 807.29"
/>
<path stroke="#a4e0eb" vector-effect="non-scaling-stroke" d="
  M 183.69 804.99
  L 183.53 797.93"
/>
<path stroke="#2b7891" vector-effect="non-scaling-stroke" d="
  M 795.80 826.86
  Q 804.27 819.72 800.26 811.65
  C 791.68 794.36 766.90 813.09 784.65 827.38"
/>
<path stroke="#2b7891" vector-effect="non-scaling-stroke" d="
  M 240.76 825.59
  L 244.66 820.19
  Q 244.93 819.81 245.39 819.83
  Q 262.45 820.43 279.49 819.78
  C 282.36 819.67 281.81 815.46 280.99 814.25"
/>
<path stroke="#a4e0eb" vector-effect="non-scaling-stroke" d="
  M 280.99 814.25
  L 279.03 799.23"
/>
<path stroke="#a4e0eb" vector-effect="non-scaling-stroke" d="
  M 295.05 799.25
  L 293.90 813.91"
/>
<path stroke="#2b7891" vector-effect="non-scaling-stroke" d="
  M 293.90 813.91
  Q 293.73 816.83 294.52 818.62
  A 2.19 2.19 0.0 0 0 296.51 819.93
  Q 333.61 820.13 370.25 820.05
  Q 371.48 820.05 372.58 819.56
  Q 373.06 819.35 373.17 818.83
  Q 373.59 816.74 372.63 814.61"
/>
<path stroke="#a4e0eb" vector-effect="non-scaling-stroke" d="
  M 372.63 814.61
  C 371.34 808.92 354.98 803.62 348.29 801.90"
/>
<path stroke="#2b7891" vector-effect="non-scaling-stroke" d="
  M 348.29 801.90
  Q 348.98 799.95 347.82 800.28"
/>
<path stroke="#a4e0eb" vector-effect="non-scaling-stroke" d="
  M 347.82 800.28
  L 348.00 799.25"
/>
<path stroke="#4596b3" vector-effect="non-scaling-stroke" d="
  M 775.01 799.23
  L 775.17 803.30
  Q 775.20 803.99 775.90 804.00
  L 803.99 804.01
  Q 804.48 804.01 804.48 803.52
  L 804.49 799.23"
/>
<path stroke="#a1b5c7" vector-effect="non-scaling-stroke" d="
  M 248.48 799.13
  L 248.72 803.47
  Q 248.76 804.05 248.18 804.03
  L 230.06 803.41"
/>
<path stroke="#83b0c7" vector-effect="non-scaling-stroke" d="
  M 230.06 803.41
  L 221.61 804.50"
/>
<path stroke="#4596b3" vector-effect="non-scaling-stroke" d="
  M 221.61 804.50
  L 219.12 804.79"
/>
<path stroke="#8697a5" vector-effect="non-scaling-stroke" d="
  M 347.82 800.28
  Q 341.88 806.21 338.21 813.78
  Q 337.97 814.27 337.42 814.26
  L 293.90 813.91"
/>
<path stroke="#8697a5" vector-effect="non-scaling-stroke" d="
  M 280.99 814.25
  L 245.65 814.01
  Q 245.18 814.00 245.02 813.56
  Q 241.60 803.90 230.95 804.83"
/>
<path stroke="#e2fbff" vector-effect="non-scaling-stroke" d="
  M 230.95 804.83
  C 229.93 804.83 229.53 804.62 230.06 803.41"
/>
<path stroke="#2b7891" vector-effect="non-scaling-stroke" d="
  M 221.03 814.69
  Q 221.66 819.94 224.21 824.44"
/>
<path stroke="#8697a5" vector-effect="non-scaling-stroke" d="
  M 348.29 801.90
  Q 342.76 806.71 339.74 813.72
  Q 339.53 814.21 340.05 814.21
  L 372.63 814.61"
/>
<path stroke="#6992a5" vector-effect="non-scaling-stroke" d="
  M 230.95 804.83
  Q 223.55 806.32 221.03 814.69"
/>
<path stroke="#86dceb" vector-effect="non-scaling-stroke" d="
  M 221.03 814.69
  Q 219.75 809.77 221.61 804.50"
/>
<path stroke="#e2fbff" vector-effect="non-scaling-stroke" d="
  M 48.27 736.52
  C 52.02 746.03 66.97 752.81 75.76 755.73
  C 99.71 763.68 126.33 766.34 151.57 761.87
  Q 156.08 761.07 160.58 759.15
  A 1.42 1.42 0.0 0 0 160.37 756.47
  Q 147.47 753.22 136.36 745.02
  C 128.77 739.42 122.67 731.78 115.02 726.81
  Q 95.75 714.28 71.93 716.03
  C 61.63 716.78 43.10 723.41 48.27 736.52"
/>
<path stroke="#e2fbff" vector-effect="non-scaling-stroke" d="
  M 204.33 445.42
  A 3.57 3.57 0.0 0 0 200.76 441.85
  A 3.57 3.57 0.0 0 0 197.19 445.42
  A 3.57 3.57 0.0 0 0 200.76 448.99
  A 3.57 3.57 0.0 0 0 204.33 445.42"
/>
<path stroke="#dde4f1" vector-effect="non-scaling-stroke" d="
  M 585.73 314.27
  C 586.54 318.18 589.64 326.97 595.23 324.45
  C 640.93 303.87 694.10 300.75 742.00 316.40
  C 748.79 318.62 750.87 313.74 752.05 308.00
  Q 753.17 302.48 748.60 300.72
  C 697.70 281.06 642.28 284.41 592.78 306.57
  C 589.55 308.02 584.73 309.52 585.73 314.27"
/>
<path stroke="#dde4f1" vector-effect="non-scaling-stroke" d="
  M 637.23 586.10
  Q 637.18 586.71 637.54 587.35
  Q 637.79 587.79 638.27 587.96
  C 656.04 594.44 674.12 598.13 693.07 596.27
  C 706.03 594.99 718.77 590.42 730.57 584.58
  Q 731.90 583.91 733.30 581.80"
/>
<path stroke="#94a6b5" vector-effect="non-scaling-stroke" d="
  M 733.30 581.80
  C 811.98 543.46 831.09 442.50 772.39 377.49
  C 713.29 312.05 608.73 327.37 567.97 404.96
  C 534.65 468.39 558.14 542.35 619.56 577.94
  Q 628.03 582.85 637.23 586.10"
/>
<path stroke="#728ba7" vector-effect="non-scaling-stroke" d="
  M 733.30 581.80
  C 703.05 595.65 668.52 597.63 637.23 586.10"
/>
<path stroke="#ecf2f8" vector-effect="non-scaling-stroke" d="
  M 420.64 469.75
  C 420.64 473.54 424.13 478.03 428.00 478.02
  Q 459.99 477.87 491.98 478.31
  C 502.78 478.46 508.73 475.96 508.73 464.10
  Q 508.73 436.46 508.95 408.81
  C 509.01 401.62 504.51 398.06 497.69 398.02
  Q 465.26 397.85 432.85 398.23
  C 425.14 398.32 420.84 400.44 420.80 408.75
  Q 420.64 439.26 420.64 469.75"
/>
<path stroke="#94a6b5" vector-effect="non-scaling-stroke" d="
  M 685.12 352.14
  A 5.00 5.00 0.0 0 0 680.12 347.14
  A 5.00 5.00 0.0 0 0 675.12 352.14
  A 5.00 5.00 0.0 0 0 680.12 357.14
  A 5.00 5.00 0.0 0 0 685.12 352.14"
/>
<path stroke="#1b3e5b" vector-effect="non-scaling-stroke" d="
  M 670.04 371.08
  Q 668.16 371.26 668.54 372.14"
/>
<path stroke="#728ba7" vector-effect="non-scaling-stroke" d="
  M 668.54 372.14
  Q 659.59 370.79 650.40 373.02"
/>
<path stroke="#77a2b5" vector-effect="non-scaling-stroke" d="
  M 650.40 373.02
  Q 637.07 376.95 624.94 385.94
  Q 595.86 407.46 586.82 442.99"
/>
<path stroke="#3987a1" vector-effect="non-scaling-stroke" d="
  M 586.82 442.99
  C 580.57 467.77 585.02 492.70 597.63 514.35
  Q 598.32 515.54 598.98 515.03"
/>
<path stroke="#365c7d" vector-effect="non-scaling-stroke" d="
  M 598.98 515.03
  L 598.84 515.59
  Q 598.73 516.06 598.99 516.47
  C 627.88 561.64 684.26 575.39 730.42 547.40
  Q 750.17 535.41 762.01 515.26"
/>
<path stroke="#1b3e5b" vector-effect="non-scaling-stroke" d="
  M 762.01 515.26
  Q 762.73 514.40 763.06 513.81
  Q 772.68 496.77 775.25 476.92"
/>
<path stroke="#728ba7" vector-effect="non-scaling-stroke" d="
  M 775.25 476.92
  C 780.27 416.59 736.08 366.81 674.90 368.00
  C 669.65 368.10 663.95 369.66 658.51 370.42
  A 0.17 0.17 0.0 0 0 658.53 370.75
  L 670.04 371.08"
/>
<path stroke="#647b97" vector-effect="non-scaling-stroke" d="
  M 775.25 476.92
  L 756.35 476.87
  A 0.44 0.44 0.0 0 1 755.91 476.39
  C 760.19 422.55 725.65 375.67 670.04 371.08"
/>
<path stroke="#284c6d" vector-effect="non-scaling-stroke" d="
  M 762.01 515.26
  L 720.22 514.93"
/>
<path stroke="#6992a5" vector-effect="non-scaling-stroke" d="
  M 720.22 514.93
  Q 731.93 497.31 734.46 476.70"
/>
<path stroke="#647b97" vector-effect="non-scaling-stroke" d="
  M 734.46 476.70
  L 754.04 477.03
  Q 754.57 477.04 754.61 476.51
  C 759.19 422.92 724.11 375.32 668.54 372.14"
/>
<path stroke="#83b0c7" vector-effect="non-scaling-stroke" d="
  M 720.22 514.93
  L 664.77 514.98"
/>
<path stroke="#86dceb" vector-effect="non-scaling-stroke" d="
  M 664.77 514.98
  Q 666.21 483.76 653.82 455.41
  C 651.59 450.31 648.26 446.44 642.76 446.24
  C 624.10 445.55 609.63 443.90 586.82 442.99"
/>
<path stroke="#bfdff1" vector-effect="non-scaling-stroke" d="
  M 734.46 476.70
  C 739.92 423.79 701.99 380.19 650.40 373.02"
/>
<path stroke="#4596b3" vector-effect="non-scaling-stroke" d="
  M 664.77 514.98
  L 598.98 515.03"
/>
<path stroke="#ceeef8" vector-effect="non-scaling-stroke" d="
  M 432.85 444.19
  Q 432.81 444.33 432.75 444.49
  A 0.26 0.26 0.0 0 0 433.03 444.83
  Q 443.11 443.66 453.26 444.06
  A 1.05 1.02 -62.3 0 0 453.96 443.83
  Q 454.08 443.73 454.20 443.62
  Q 454.50 443.33 454.91 443.33
  L 473.58 443.05
  A 1.69 1.69 0.0 0 1 475.27 445.02
  Q 475.04 446.44 476.08 447.20
  Q 476.69 447.64 476.02 447.98
  L 475.00 448.51
  Q 474.37 448.83 475.07 448.80
  C 477.36 448.71 491.35 448.11 492.46 449.16
  Q 492.62 449.31 492.85 449.31
  L 495.53 449.20
  Q 496.00 449.18 496.00 448.71
  L 496.00 428.23
  Q 496.00 427.58 495.36 427.64
  C 493.37 427.83 491.76 426.92 490.00 426.96
  Q 460.74 427.52 431.45 428.12
  Q 430.49 428.14 431.26 428.71
  Q 431.85 429.16 432.50 428.98
  A 0.41 0.40 -75.2 0 1 432.89 429.66
  Q 432.01 430.59 431.77 431.92
  Q 431.70 432.32 431.88 432.69
  Q 432.39 433.69 431.63 434.45
  Q 431.31 434.77 431.28 435.23
  Q 431.08 439.31 431.22 443.40
  A 0.62 0.62 0.0 0 0 431.84 444.00
  L 432.70 444.00
  Q 432.90 444.00 432.85 444.19"
/>
<path stroke="#86dceb" vector-effect="non-scaling-stroke" d="
  M 455.48 442.18
  C 458.63 441.58 471.95 441.41 474.11 442.54
  Q 474.60 442.80 474.80 442.28
  Q 475.03 441.70 474.71 441.00
  A 2.52 2.47 33.7 0 1 474.50 440.00
  L 474.50 435.54
  Q 474.50 434.91 473.88 434.98
  C 467.54 435.72 461.32 434.96 454.90 435.41
  Q 454.41 435.45 453.96 435.26
  Q 453.11 434.90 451.24 434.81
  Q 441.67 434.36 432.36 434.52
  A 0.95 0.95 0.0 0 0 431.43 435.51
  L 431.76 443.20
  Q 431.78 443.68 432.26 443.69
  C 440.21 443.97 447.65 443.68 455.48 442.18"
/>
<path stroke="#4596b3" vector-effect="non-scaling-stroke" d="
  M 337.53 472.93
  Q 339.25 473.29 340.96 473.16
  Q 341.81 473.10 341.55 473.90
  L 341.00 475.58
  Q 340.81 476.15 341.29 475.79
  Q 342.40 474.96 341.93 473.34
  Q 341.79 472.88 341.31 472.83
  L 335.89 472.36
  A 0.37 0.36 -8.2 0 0 335.52 472.85
  L 336.43 475.29
  Q 336.60 475.75 337.09 475.75
  L 338.25 475.75
  A 0.26 0.23 48.1 0 0 338.24 475.26
  Q 336.84 474.89 336.90 473.41
  Q 336.92 472.80 337.53 472.93"
/>
<path stroke="#86dceb" vector-effect="non-scaling-stroke" d="
  M 604.44 497.25
  C 605.09 500.62 607.08 508.54 611.07 508.51
  Q 630.78 508.36 650.50 508.80
  Q 652.50 508.84 655.38 507.65
  A 0.91 0.89 83.8 0 0 655.93 506.95
  C 657.50 497.14 653.55 474.55 647.99 466.11
  Q 647.71 465.69 647.23 465.53
  C 642.25 463.89 637.06 464.00 632.49 463.63
  Q 617.98 462.47 603.40 463.25
  C 599.24 463.48 598.18 465.69 598.96 469.51
  Q 601.78 483.37 604.44 497.25"
/>
<path stroke="#86dceb" vector-effect="non-scaling-stroke" d="
  M 629.42 481.97
  Q 629.72 483.37 628.76 484.38
  A 0.44 0.44 0.0 0 1 628.00 484.07
  L 628.00 483.25
  A 0.42 0.42 0.0 0 0 627.27 482.96
  Q 626.37 483.91 625.05 483.59
  A 0.64 0.64 0.0 0 0 624.26 484.18
  Q 624.16 486.43 625.50 488.11
  Q 625.77 488.45 626.19 488.33
  L 628.25 487.76
  Q 628.77 487.61 629.01 488.09
  L 630.98 492.06
  A 0.54 0.54 0.0 0 1 630.11 492.68
  Q 629.15 491.69 628.67 490.30
  A 1.76 1.76 0.0 0 0 625.25 490.88
  L 625.25 495.19
  Q 625.25 495.80 625.70 496.20
  L 628.34 498.56
  Q 628.67 498.85 629.11 498.84
  L 648.21 498.64
  A 0.96 0.95 -87.7 0 0 649.16 497.76
  C 649.46 493.87 649.34 483.97 646.70 480.86
  Q 646.36 480.46 645.83 480.47
  Q 642.40 480.58 640.58 483.45
  Q 640.21 484.04 639.54 483.87
  L 635.23 482.74
  A 0.53 0.53 0.0 0 1 635.03 481.81
  Q 635.58 481.38 636.25 481.47
  Q 636.87 481.55 636.95 480.93
  Q 637.27 478.50 636.13 476.34
  Q 635.83 475.77 635.19 475.70
  L 632.98 475.45
  Q 632.53 475.40 632.50 474.95
  L 632.14 470.66
  A 0.77 0.76 -2.8 0 0 631.36 469.96
  L 622.55 470.09
  Q 621.90 470.10 621.81 470.74
  Q 621.27 474.49 623.92 476.94
  A 1.22 1.21 -65.7 0 1 624.30 477.95
  L 623.95 481.20
  A 0.55 0.54 12.4 0 0 624.33 481.78
  Q 626.60 482.52 628.62 481.58
  Q 629.27 481.28 629.42 481.97"
/>
<path stroke="#a4e0eb" vector-effect="non-scaling-stroke" d="
  M 320.06 613.23
  C 315.05 626.80 311.04 637.88 294.50 639.35
  A 0.22 0.22 0.0 0 0 294.48 639.79
  C 309.36 642.26 319.69 625.89 320.91 612.97"
/>
<path stroke="#94a6b5" vector-effect="non-scaling-stroke" d="
  M 320.91 612.97
  Q 320.76 611.79 320.19 611.81
  Q 301.44 612.61 282.69 613.17
  Q 280.87 613.22 280.19 613.78
  A 0.25 0.25 0.0 0 0 280.35 614.22
  Q 300.72 614.22 318.49 613.00
  Q 319.64 612.92 320.06 613.23"
/>
<path stroke="#3987a1" vector-effect="non-scaling-stroke" d="
  M 320.91 612.97
  Q 320.32 613.00 320.06 613.23"
/>
<path stroke="#ecf2f8" vector-effect="non-scaling-stroke" d="
  M 280.31 615.46
  C 279.48 622.49 282.00 632.94 288.25 637.10
  A 0.20 0.20 0.0 0 0 288.51 636.81
  Q 280.85 627.72 281.33 615.73
  Q 281.34 615.32 280.86 615.13
  A 0.41 0.40 13.9 0 0 280.31 615.46"
/>
<path stroke="#e2fbff" vector-effect="non-scaling-stroke" d="
  M 124.02 658.84
  Q 124.07 658.99 124.16 659.11
  Q 124.28 659.28 124.48 659.26
  L 131.31 658.59
  A 0.47 0.46 -4.6 0 0 131.73 658.11
  C 131.56 653.38 127.85 646.94 122.30 647.88
  C 115.79 648.98 115.73 658.64 123.61 658.57
  Q 123.91 658.57 124.02 658.84"
/>
<path stroke="#3987a1" vector-effect="non-scaling-stroke" d="
  M 798.0762 699.6464
  A 4.15 3.68 92.4 0 0 801.9268 695.6541
  A 4.15 3.68 92.4 0 0 798.4238 691.3536
  A 4.15 3.68 92.4 0 0 794.5732 695.3459
  A 4.15 3.68 92.4 0 0 798.0762 699.6464"
/>
<path stroke="#3987a1" vector-effect="non-scaling-stroke" d="
  M 808.7258 723.3377
  A 3.79 3.14 100.4 0 0 812.4984 720.1768
  A 3.79 3.14 100.4 0 0 810.0942 715.8823
  A 3.79 3.14 100.4 0 0 806.3216 719.0432
  A 3.79 3.14 100.4 0 0 808.7258 723.3377"
/>
<path stroke="#3987a1" vector-effect="non-scaling-stroke" d="
  M 829.13 719.69
  C 824.34 721.98 821.65 728.17 824.90 732.63
  A 0.56 0.56 0.0 0 0 825.89 732.46
  L 829.69 720.17
  A 0.40 0.40 0.0 0 0 829.13 719.69"
/>
</g>
<path fill="#ffffff" d="
  M 0.00 0.00
  L 1024.00 0.00
  L 1024.00 1024.00
  L 0.00 1024.00
  L 0.00 0.00
  Z
  M 100.85 578.50
  Q 90.56 592.27 91.69 610.31
  Q 92.34 620.72 101.55 624.32
  Q 103.10 647.53 108.63 669.57
  Q 108.76 670.07 108.42 670.47
  C 99.80 680.42 96.96 696.20 104.22 707.30
  C 112.36 719.76 142.36 733.65 156.86 733.00
  C 160.84 744.51 163.52 755.66 163.55 768.20
  Q 163.60 788.61 163.11 808.95
  Q 147.55 809.78 133.06 812.02
  Q 129.25 812.61 126.14 814.08
  A 0.75 0.75 0.0 0 0 126.27 815.49
  Q 135.70 817.99 145.52 818.85
  Q 184.86 822.33 224.21 824.44
  Q 232.44 831.05 240.76 825.59
  Q 250.77 826.19 260.31 826.49
  C 347.87 829.18 435.35 830.07 522.94 830.39
  Q 653.66 830.86 784.65 827.38
  Q 790.71 829.18 795.80 826.86
  C 814.01 826.37 974.10 822.22 975.77 809.40
  A 1.05 1.04 25.6 0 0 975.46 808.53
  C 970.32 803.54 952.67 801.93 945.50 801.20
  Q 918.44 798.45 890.82 796.73
  Q 890.14 782.94 892.87 769.28
  Q 893.54 765.91 891.74 758.75
  A 0.07 0.06 35.2 0 0 891.61 758.77
  Q 892.52 765.40 890.23 771.45
  Q 890.09 771.82 890.03 771.42
  Q 887.98 757.95 887.02 744.19
  L 892.72 744.41
  Q 893.26 744.43 893.35 744.96
  Q 893.77 747.32 892.48 749.16
  Q 891.94 749.94 892.66 749.34
  L 896.10 746.49
  L 912.89 742.28
  Q 913.38 742.16 913.62 741.71
  C 916.93 735.51 927.94 731.12 933.91 727.26
  A 0.38 0.38 0.0 0 1 934.47 727.46
  Q 934.58 727.78 934.52 728.27
  Q 931.82 731.98 930.19 732.70
  Q 922.78 735.93 916.61 741.13
  C 913.06 744.12 909.87 747.12 905.69 749.35
  Q 899.51 752.65 893.18 756.27
  A 0.93 0.92 38.4 0 0 893.38 757.96
  C 910.39 763.00 927.65 762.92 942.42 751.99
  Q 947.01 748.58 947.81 742.57
  Q 949.23 731.91 945.86 723.68
  Q 955.64 714.93 959.42 702.44
  C 961.42 695.85 961.66 687.83 957.22 682.21
  C 952.37 676.07 944.22 679.03 939.31 682.97
  A 0.32 0.32 0.0 0 1 938.82 682.58
  C 961.42 634.46 966.37 580.42 959.50 528.75
  C 946.93 434.21 895.30 345.63 824.34 283.16
  C 764.48 230.46 690.10 193.62 610.93 179.63
  C 520.78 163.70 423.59 172.65 339.01 209.26
  Q 269.57 239.32 216.36 293.37
  A 0.52 0.52 0.0 0 0 216.73 294.25
  L 394.00 294.25
  A 0.94 0.93 1.3 0 0 394.94 293.36
  C 395.53 282.31 391.07 270.84 378.18 270.77
  Q 328.37 270.48 278.56 270.50
  Q 277.86 270.50 275.47 269.85
  Q 274.96 269.72 274.78 269.23
  Q 273.82 266.73 275.63 265.04
  Q 276.05 264.64 276.63 264.63
  C 314.17 263.76 344.75 264.35 378.69 264.36
  C 395.47 264.37 403.55 278.34 403.68 293.70
  A 0.56 0.56 0.0 0 0 404.24 294.25
  L 456.88 294.25
  A 0.63 0.62 -90.0 0 1 457.50 294.88
  L 457.49 301.69
  Q 457.49 302.19 456.99 302.19
  L 209.85 302.14
  A 2.35 2.35 0.0 0 0 208.11 302.91
  Q 130.85 387.47 106.76 499.77
  Q 106.65 500.24 106.21 500.04
  C 96.10 495.45 85.81 490.59 74.77 495.71
  Q 65.74 499.90 64.40 509.71
  C 61.66 529.77 85.35 548.76 99.59 558.15
  Q 100.96 559.05 101.78 559.88
  Q 102.15 560.26 101.97 560.76
  C 100.51 564.79 101.40 569.11 100.93 573.83
  Q 100.89 574.32 101.07 574.78
  Q 101.81 576.67 100.85 578.50
  Z
  M 48.27 736.52
  C 52.02 746.03 66.97 752.81 75.76 755.73
  C 99.71 763.68 126.33 766.34 151.57 761.87
  Q 156.08 761.07 160.58 759.15
  A 1.42 1.42 0.0 0 0 160.37 756.47
  Q 147.47 753.22 136.36 745.02
  C 128.77 739.42 122.67 731.78 115.02 726.81
  Q 95.75 714.28 71.93 716.03
  C 61.63 716.78 43.10 723.41 48.27 736.52
  Z"
/>
<path fill="#c4f6fe" d="
  M 945.86 723.68
  Q 942.48 715.86 935.00 715.73
  A 0.62 0.61 -85.7 0 1 934.41 715.04
  C 935.52 706.03 937.06 682.10 924.84 677.82
  A 2.19 2.18 24.9 0 0 922.23 678.77
  C 917.43 686.90 912.42 697.67 905.85 704.43
  C 902.28 708.12 889.26 723.95 893.57 729.11
  Q 893.95 729.57 894.36 729.13
  L 898.71 724.44
  A 0.35 0.35 0.0 0 1 899.30 724.76
  C 898.78 726.89 896.08 735.44 892.34 730.38
  A 1.48 1.46 -63.6 0 1 892.05 729.50
  C 892.17 711.24 902.71 694.65 912.78 679.58
  A 0.82 0.82 0.0 0 0 912.83 678.75
  C 910.20 673.66 905.50 670.38 899.55 671.71
  C 887.84 674.33 883.70 687.30 883.90 697.69
  C 882.22 694.06 882.40 690.22 880.81 686.98
  Q 877.71 680.66 872.77 675.63
  Q 872.40 675.25 871.99 675.60
  Q 871.64 675.90 871.43 676.36
  C 866.23 667.29 859.19 671.84 853.80 676.93
  A 1.14 1.14 0.0 0 0 853.66 678.44
  C 864.68 693.49 876.49 712.53 875.46 732.04
  A 2.20 2.19 -13.8 0 1 874.38 733.82
  Q 872.49 734.94 871.91 732.77
  C 866.33 711.92 859.75 695.77 846.25 679.10
  A 1.02 0.98 27.5 0 1 846.03 678.45
  Q 846.04 678.19 845.88 677.98
  Q 846.45 671.86 845.78 665.78
  Q 846.96 665.47 849.19 665.89
  Q 852.40 666.49 857.75 665.55
  Q 858.25 665.47 858.25 664.96
  L 858.25 645.79
  A 0.64 0.64 0.0 0 0 857.61 645.15
  L 787.63 645.21
  C 787.56 640.73 788.50 618.63 787.19 616.47
  Q 788.77 614.42 791.57 612.07
  C 818.84 589.15 842.73 560.06 856.26 526.83
  C 883.05 460.99 867.28 388.06 820.33 335.67
  C 798.45 311.26 768.87 292.54 738.37 280.48
  C 710.30 269.38 681.27 266.63 650.93 271.41
  C 577.48 282.99 510.60 308.19 450.02 351.49
  C 439.31 359.15 430.31 365.72 423.82 374.83
  C 413.29 389.63 413.73 408.39 412.98 425.87
  C 411.46 461.20 414.80 493.82 426.30 527.48
  Q 426.88 529.18 426.77 533.04
  Q 426.65 536.50 421.95 535.72
  C 415.93 532.20 409.49 533.28 403.17 532.43
  C 394.22 528.20 385.82 522.74 377.51 517.40
  C 365.42 509.63 360.73 502.27 354.08 489.82
  Q 353.07 482.07 350.59 474.23
  Q 350.42 473.70 349.95 473.99
  Q 349.37 474.34 349.43 475.29
  C 345.71 458.30 333.89 444.19 316.76 439.91
  L 316.81 432.04
  A 0.83 0.82 -80.6 0 0 316.26 431.26
  Q 314.78 430.74 314.74 429.69
  C 323.33 432.58 336.37 434.80 337.45 422.23
  Q 337.92 416.76 335.71 412.58
  Q 335.61 412.39 335.50 412.21
  C 338.53 410.91 336.52 406.75 334.84 405.19
  Q 336.31 403.07 338.51 402.08
  A 1.39 1.39 0.0 0 0 339.24 400.35
  C 337.24 394.81 335.68 388.91 332.01 384.54
  Q 331.67 384.14 331.79 383.63
  Q 333.21 377.35 330.50 371.22
  Q 337.52 367.73 339.11 360.41
  C 341.10 351.27 334.76 345.58 326.72 342.83
  Q 326.28 342.68 326.14 343.12
  C 320.08 361.49 296.73 352.62 283.01 356.02
  C 258.66 362.05 265.06 389.98 274.84 405.17
  Q 280.35 413.73 285.54 420.18
  Q 285.55 429.62 282.61 438.37
  C 272.73 436.10 263.14 446.36 257.33 452.14
  Q 256.93 452.54 257.48 452.67
  Q 259.08 453.04 261.37 452.45
  L 260.23 453.48
  Q 259.65 453.99 260.43 453.98
  Q 261.07 453.97 261.17 454.26
  C 249.99 452.47 243.84 463.80 243.55 473.54
  Q 243.35 480.05 244.72 488.32
  Q 246.33 527.28 250.80 564.99
  Q 251.14 567.82 250.34 574.90
  L 243.30 571.86
  A 0.77 0.77 0.0 0 1 242.85 571.03
  C 245.20 557.40 245.86 535.90 235.01 525.25
  C 231.77 522.06 227.70 527.53 226.41 529.98
  C 216.60 548.69 202.77 571.50 194.60 595.90
  Q 193.26 599.91 191.47 603.67
  A 1.07 1.07 0.0 0 1 189.68 603.90
  Q 188.30 602.26 188.23 599.99
  C 187.51 575.61 201.69 555.66 213.89 537.94
  C 215.33 535.85 221.51 528.81 218.44 526.33
  C 214.46 523.13 209.25 522.53 204.47 521.22
  C 197.79 519.40 192.99 519.18 189.76 525.78
  C 183.91 537.73 181.18 550.15 179.03 563.19
  C 178.47 566.55 176.24 566.94 173.59 565.11
  Q 169.30 562.17 164.29 561.62
  A 1.98 1.98 0.0 0 1 162.56 560.06
  C 160.34 549.52 158.74 538.08 152.64 529.02
  C 149.25 523.98 146.96 521.20 140.68 522.63
  Q 132.33 524.54 126.95 530.67
  A 2.12 2.11 -41.3 0 0 126.78 533.23
  C 136.29 547.54 148.97 561.61 153.18 579.16
  Q 155.47 588.72 155.86 598.63
  Q 156.06 603.89 154.70 598.81
  C 153.28 593.46 150.78 587.78 147.51 581.91
  Q 133.46 556.70 117.76 532.47
  Q 116.81 531.02 115.80 530.34
  Q 115.32 530.01 114.81 530.28
  C 101.74 537.00 103.86 562.90 105.42 574.52
  A 0.88 0.87 -22.3 0 1 105.07 575.34
  L 100.85 578.50
  Q 101.81 576.67 101.07 574.78
  Q 100.89 574.32 100.93 573.83
  C 101.40 569.11 100.51 564.79 101.97 560.76
  Q 102.15 560.26 101.78 559.88
  Q 100.96 559.05 99.59 558.15
  C 85.35 548.76 61.66 529.77 64.40 509.71
  Q 65.74 499.90 74.77 495.71
  C 85.81 490.59 96.10 495.45 106.21 500.04
  Q 106.65 500.24 106.76 499.77
  Q 130.85 387.47 208.11 302.91
  A 2.35 2.35 0.0 0 1 209.85 302.14
  L 456.99 302.19
  Q 457.49 302.19 457.49 301.69
  L 457.50 294.88
  A 0.63 0.62 90.0 0 0 456.88 294.25
  L 404.24 294.25
  A 0.56 0.56 0.0 0 1 403.68 293.70
  C 403.55 278.34 395.47 264.37 378.69 264.36
  C 344.75 264.35 314.17 263.76 276.63 264.63
  Q 276.05 264.64 275.63 265.04
  Q 273.82 266.73 274.78 269.23
  Q 274.96 269.72 275.47 269.85
  Q 277.86 270.50 278.56 270.50
  Q 328.37 270.48 378.18 270.77
  C 391.07 270.84 395.53 282.31 394.94 293.36
  A 0.94 0.93 1.3 0 1 394.00 294.25
  L 216.73 294.25
  A 0.52 0.52 0.0 0 1 216.36 293.37
  Q 269.57 239.32 339.01 209.26
  C 423.59 172.65 520.78 163.70 610.93 179.63
  C 690.10 193.62 764.48 230.46 824.34 283.16
  C 895.30 345.63 946.93 434.21 959.50 528.75
  C 966.37 580.42 961.42 634.46 938.82 682.58
  A 0.32 0.32 0.0 0 0 939.31 682.97
  C 944.22 679.03 952.37 676.07 957.22 682.21
  C 961.66 687.83 961.42 695.85 959.42 702.44
  Q 955.64 714.93 945.86 723.68
  Z
  M 204.33 445.42
  A 3.57 3.57 0.0 0 0 200.76 441.85
  A 3.57 3.57 0.0 0 0 197.19 445.42
  A 3.57 3.57 0.0 0 0 200.76 448.99
  A 3.57 3.57 0.0 0 0 204.33 445.42
  Z"
/>
<path fill="#ffffff" d="
  M 787.19 616.47
  L 565.77 616.47
  L 560.24 614.74
  C 550.14 609.07 539.22 603.23 530.40 596.70
  Q 503.01 576.46 483.76 548.02
  Q 483.48 547.62 483.00 547.53
  L 481.74 547.30
  L 481.45 540.80
  Q 481.43 540.32 480.96 540.22
  C 478.90 539.77 476.57 540.20 475.07 540.21
  Q 443.44 540.41 411.80 540.04
  Q 411.40 540.04 411.28 540.41
  Q 411.23 540.57 411.27 540.74
  Q 410.06 540.53 410.09 539.30
  C 410.19 535.65 419.11 536.10 421.69 535.95
  Q 430.74 537.68 438.60 535.83
  L 464.74 535.81
  L 475.50 537.93
  Q 476.04 538.03 476.27 538.54
  Q 476.54 539.15 477.30 539.36
  A 1.35 1.34 -3.1 0 0 478.91 537.57
  C 473.37 523.47 470.97 511.91 456.11 504.47
  Q 451.88 502.35 448.55 502.80
  C 434.44 504.70 428.49 520.71 427.68 533.31
  A 0.33 0.33 0.0 0 1 427.08 533.48
  L 426.77 533.04
  Q 426.88 529.18 426.30 527.48
  C 414.80 493.82 411.46 461.20 412.98 425.87
  C 413.73 408.39 413.29 389.63 423.82 374.83
  C 430.31 365.72 439.31 359.15 450.02 351.49
  C 510.60 308.19 577.48 282.99 650.93 271.41
  C 681.27 266.63 710.30 269.38 738.37 280.48
  C 768.87 292.54 798.45 311.26 820.33 335.67
  C 867.28 388.06 883.05 460.99 856.26 526.83
  C 842.73 560.06 818.84 589.15 791.57 612.07
  Q 788.77 614.42 787.19 616.47
  Z
  M 585.73 314.27
  C 586.54 318.18 589.64 326.97 595.23 324.45
  C 640.93 303.87 694.10 300.75 742.00 316.40
  C 748.79 318.62 750.87 313.74 752.05 308.00
  Q 753.17 302.48 748.60 300.72
  C 697.70 281.06 642.28 284.41 592.78 306.57
  C 589.55 308.02 584.73 309.52 585.73 314.27
  Z
  M 637.23 586.10
  Q 637.18 586.71 637.54 587.35
  Q 637.79 587.79 638.27 587.96
  C 656.04 594.44 674.12 598.13 693.07 596.27
  C 706.03 594.99 718.77 590.42 730.57 584.58
  Q 731.90 583.91 733.30 581.80
  C 811.98 543.46 831.09 442.50 772.39 377.49
  C 713.29 312.05 608.73 327.37 567.97 404.96
  C 534.65 468.39 558.14 542.35 619.56 577.94
  Q 628.03 582.85 637.23 586.10
  Z
  M 420.64 469.75
  C 420.64 473.54 424.13 478.03 428.00 478.02
  Q 459.99 477.87 491.98 478.31
  C 502.78 478.46 508.73 475.96 508.73 464.10
  Q 508.73 436.46 508.95 408.81
  C 509.01 401.62 504.51 398.06 497.69 398.02
  Q 465.26 397.85 432.85 398.23
  C 425.14 398.32 420.84 400.44 420.80 408.75
  Q 420.64 439.26 420.64 469.75
  Z"
/>
<path fill="#bac8e3" d="
  M 595.23 324.45
  C 589.64 326.97 586.54 318.18 585.73 314.27
  C 584.73 309.52 589.55 308.02 592.78 306.57
  C 642.28 284.41 697.70 281.06 748.60 300.72
  Q 753.17 302.48 752.05 308.00
  C 750.87 313.74 748.79 318.62 742.00 316.40
  C 694.10 300.75 640.93 303.87 595.23 324.45
  Z"
/>
<path fill="#294d6b" d="
  M 733.30 581.80
  C 703.05 595.65 668.52 597.63 637.23 586.10
  Q 628.03 582.85 619.56 577.94
  C 558.14 542.35 534.65 468.39 567.97 404.96
  C 608.73 327.37 713.29 312.05 772.39 377.49
  C 831.09 442.50 811.98 543.46 733.30 581.80
  Z
  M 685.12 352.14
  A 5.00 5.00 0.0 0 0 680.12 347.14
  A 5.00 5.00 0.0 0 0 675.12 352.14
  A 5.00 5.00 0.0 0 0 680.12 357.14
  A 5.00 5.00 0.0 0 0 685.12 352.14
  Z
  M 670.04 371.08
  Q 668.16 371.26 668.54 372.14
  Q 659.59 370.79 650.40 373.02
  Q 637.07 376.95 624.94 385.94
  Q 595.86 407.46 586.82 442.99
  C 580.57 467.77 585.02 492.70 597.63 514.35
  Q 598.32 515.54 598.98 515.03
  L 598.84 515.59
  Q 598.73 516.06 598.99 516.47
  C 627.88 561.64 684.26 575.39 730.42 547.40
  Q 750.17 535.41 762.01 515.26
  Q 762.73 514.40 763.06 513.81
  Q 772.68 496.77 775.25 476.92
  C 780.27 416.59 736.08 366.81 674.90 368.00
  C 669.65 368.10 663.95 369.66 658.51 370.42
  A 0.17 0.17 0.0 0 0 658.53 370.75
  L 670.04 371.08
  Z"
/>
<path fill="#0d2e4b" d="
  M 330.50 371.22
  C 322.92 374.03 312.19 373.43 304.20 371.81
  A 0.36 0.36 0.0 0 0 303.81 372.33
  C 305.54 375.66 309.83 383.21 308.03 386.74
  C 304.38 393.92 303.97 402.20 309.97 408.06
  C 312.31 410.35 316.68 413.53 320.14 412.95
  Q 320.67 412.86 320.86 412.36
  L 322.15 409.07
  Q 322.39 408.45 323.02 408.22
  Q 328.85 405.98 334.84 405.19
  C 336.52 406.75 338.53 410.91 335.50 412.21
  C 334.23 412.42 329.57 413.17 328.84 414.37
  Q 328.37 415.13 329.16 414.71
  Q 332.00 413.23 335.71 412.58
  Q 337.92 416.76 337.45 422.23
  C 336.37 434.80 323.33 432.58 314.74 429.69
  C 308.07 426.20 301.85 419.70 300.85 412.03
  C 300.13 406.40 301.03 400.43 301.07 394.75
  C 301.14 383.75 284.57 387.01 289.63 398.82
  C 290.09 399.87 291.19 400.75 291.79 401.86
  Q 292.03 402.32 291.81 402.79
  Q 287.69 411.58 285.54 420.18
  Q 280.35 413.73 274.84 405.17
  C 265.06 389.98 258.66 362.05 283.01 356.02
  C 296.73 352.62 320.08 361.49 326.14 343.12
  Q 326.28 342.68 326.72 342.83
  C 334.76 345.58 341.10 351.27 339.11 360.41
  Q 337.52 367.73 330.50 371.22
  Z"
/>
<circle fill="#ffffff" cx="680.12" cy="352.14" r="5.00"/>
<path fill="#bac8e3" d="
  M 775.25 476.92
  L 756.35 476.87
  A 0.44 0.44 0.0 0 1 755.91 476.39
  C 760.19 422.55 725.65 375.67 670.04 371.08
  L 658.53 370.75
  A 0.17 0.17 0.0 0 1 658.51 370.42
  C 663.95 369.66 669.65 368.10 674.90 368.00
  C 736.08 366.81 780.27 416.59 775.25 476.92
  Z"
/>
<path fill="#ff9f82" d="
  M 330.50 371.22
  Q 333.21 377.35 331.79 383.63
  Q 331.67 384.14 332.01 384.54
  C 335.68 388.91 337.24 394.81 339.24 400.35
  A 1.39 1.39 0.0 0 1 338.51 402.08
  Q 336.31 403.07 334.84 405.19
  Q 328.85 405.98 323.02 408.22
  Q 322.39 408.45 322.15 409.07
  L 320.86 412.36
  Q 320.67 412.86 320.14 412.95
  C 316.68 413.53 312.31 410.35 309.97 408.06
  C 303.97 402.20 304.38 393.92 308.03 386.74
  C 309.83 383.21 305.54 375.66 303.81 372.33
  A 0.36 0.36 0.0 0 1 304.20 371.81
  C 312.19 373.43 322.92 374.03 330.50 371.22
  Z"
/>
<path fill="#0d2e4b" d="
  M 670.04 371.08
  C 725.65 375.67 760.19 422.55 755.91 476.39
  A 0.44 0.44 0.0 0 0 756.35 476.87
  L 775.25 476.92
  Q 772.68 496.77 763.06 513.81
  Q 762.73 514.40 762.01 515.26
  L 720.22 514.93
  Q 731.93 497.31 734.46 476.70
  L 754.04 477.03
  Q 754.57 477.04 754.61 476.51
  C 759.19 422.92 724.11 375.32 668.54 372.14
  Q 668.16 371.26 670.04 371.08
  Z"
/>
<path fill="#bac8e3" d="
  M 668.54 372.14
  C 724.11 375.32 759.19 422.92 754.61 476.51
  Q 754.57 477.04 754.04 477.03
  L 734.46 476.70
  C 739.92 423.79 701.99 380.19 650.40 373.02
  Q 659.59 370.79 668.54 372.14
  Z"
/>
<path fill="#c4f6fe" d="
  M 650.40 373.02
  C 701.99 380.19 739.92 423.79 734.46 476.70
  Q 731.93 497.31 720.22 514.93
  L 664.77 514.98
  Q 666.21 483.76 653.82 455.41
  C 651.59 450.31 648.26 446.44 642.76 446.24
  C 624.10 445.55 609.63 443.90 586.82 442.99
  Q 595.86 407.46 624.94 385.94
  Q 637.07 376.95 650.40 373.02
  Z"
/>
<path fill="#ff9f82" d="
  M 314.74 429.69
  Q 314.78 430.74 316.26 431.26
  A 0.83 0.82 -80.6 0 1 316.81 432.04
  L 316.76 439.91
  L 318.25 445.22
  Q 319.06 449.66 320.89 452.64
  Q 322.81 458.56 321.15 462.97
  C 318.59 469.75 309.65 463.22 306.66 460.75
  C 304.17 458.69 303.07 455.76 300.22 453.54
  Q 298.44 450.80 295.52 448.43
  Q 295.16 448.14 295.06 447.68
  Q 294.81 446.43 293.49 446.15
  Q 293.08 446.06 293.03 445.65
  C 292.81 443.76 284.19 439.16 282.61 438.37
  Q 285.55 429.62 285.54 420.18
  Q 287.69 411.58 291.81 402.79
  Q 292.03 402.32 291.79 401.86
  C 291.19 400.75 290.09 399.87 289.63 398.82
  C 284.57 387.01 301.14 383.75 301.07 394.75
  C 301.03 400.43 300.13 406.40 300.85 412.03
  C 301.85 419.70 308.07 426.20 314.74 429.69
  Z"
/>
<path fill="#d8e5f1" d="
  M 428.00 478.02
  C 424.13 478.03 420.64 473.54 420.64 469.75
  Q 420.64 439.26 420.80 408.75
  C 420.84 400.44 425.14 398.32 432.85 398.23
  Q 465.26 397.85 497.69 398.02
  C 504.51 398.06 509.01 401.62 508.95 408.81
  Q 508.73 436.46 508.73 464.10
  C 508.73 475.96 502.78 478.46 491.98 478.31
  Q 459.99 477.87 428.00 478.02
  Z
  M 432.85 444.19
  Q 432.81 444.33 432.75 444.49
  A 0.26 0.26 0.0 0 0 433.03 444.83
  Q 443.11 443.66 453.26 444.06
  A 1.05 1.02 -62.3 0 0 453.96 443.83
  Q 454.08 443.73 454.20 443.62
  Q 454.50 443.33 454.91 443.33
  L 473.58 443.05
  A 1.69 1.69 0.0 0 1 475.27 445.02
  Q 475.04 446.44 476.08 447.20
  Q 476.69 447.64 476.02 447.98
  L 475.00 448.51
  Q 474.37 448.83 475.07 448.80
  C 477.36 448.71 491.35 448.11 492.46 449.16
  Q 492.62 449.31 492.85 449.31
  L 495.53 449.20
  Q 496.00 449.18 496.00 448.71
  L 496.00 428.23
  Q 496.00 427.58 495.36 427.64
  C 493.37 427.83 491.76 426.92 490.00 426.96
  Q 460.74 427.52 431.45 428.12
  Q 430.49 428.14 431.26 428.71
  Q 431.85 429.16 432.50 428.98
  A 0.41 0.40 -75.2 0 1 432.89 429.66
  Q 432.01 430.59 431.77 431.92
  Q 431.70 432.32 431.88 432.69
  Q 432.39 433.69 431.63 434.45
  Q 431.31 434.77 431.28 435.23
  Q 431.08 439.31 431.22 443.40
  A 0.62 0.62 0.0 0 0 431.84 444.00
  L 432.70 444.00
  Q 432.90 444.00 432.85 444.19
  Z"
/>
<path fill="#48c1d7" d="
  M 335.50 412.21
  Q 335.61 412.39 335.71 412.58
  Q 332.00 413.23 329.16 414.71
  Q 328.37 415.13 328.84 414.37
  C 329.57 413.17 334.23 412.42 335.50 412.21
  Z"
/>
<path fill="#c4f6fe" d="
  M 432.70 444.00
  L 431.84 444.00
  A 0.62 0.62 0.0 0 1 431.22 443.40
  Q 431.08 439.31 431.28 435.23
  Q 431.31 434.77 431.63 434.45
  Q 432.39 433.69 431.88 432.69
  Q 431.70 432.32 431.77 431.92
  Q 432.01 430.59 432.89 429.66
  A 0.41 0.40 -75.2 0 0 432.50 428.98
  Q 431.85 429.16 431.26 428.71
  Q 430.49 428.14 431.45 428.12
  Q 460.74 427.52 490.00 426.96
  C 491.76 426.92 493.37 427.83 495.36 427.64
  Q 496.00 427.58 496.00 428.23
  L 496.00 448.71
  Q 496.00 449.18 495.53 449.20
  L 492.85 449.31
  Q 492.62 449.31 492.46 449.16
  C 491.35 448.11 477.36 448.71 475.07 448.80
  Q 474.37 448.83 475.00 448.51
  L 476.02 447.98
  Q 476.69 447.64 476.08 447.20
  Q 475.04 446.44 475.27 445.02
  A 1.69 1.69 0.0 0 0 473.58 443.05
  L 454.91 443.33
  Q 454.50 443.33 454.20 443.62
  Q 454.08 443.73 453.96 443.83
  A 1.05 1.02 -62.3 0 1 453.26 444.06
  Q 443.11 443.66 433.03 444.83
  A 0.26 0.26 0.0 0 1 432.75 444.49
  Q 432.81 444.33 432.85 444.19
  Q 432.90 444.00 432.70 444.00
  Z
  M 455.48 442.18
  C 458.63 441.58 471.95 441.41 474.11 442.54
  Q 474.60 442.80 474.80 442.28
  Q 475.03 441.70 474.71 441.00
  A 2.52 2.47 33.7 0 1 474.50 440.00
  L 474.50 435.54
  Q 474.50 434.91 473.88 434.98
  C 467.54 435.72 461.32 434.96 454.90 435.41
  Q 454.41 435.45 453.96 435.26
  Q 453.11 434.90 451.24 434.81
  Q 441.67 434.36 432.36 434.52
  A 0.95 0.95 0.0 0 0 431.43 435.51
  L 431.76 443.20
  Q 431.78 443.68 432.26 443.69
  C 440.21 443.97 447.65 443.68 455.48 442.18
  Z"
/>
<path fill="#48c1d7" d="
  M 474.11 442.54
  C 471.95 441.41 458.63 441.58 455.48 442.18
  C 447.65 443.68 440.21 443.97 432.26 443.69
  Q 431.78 443.68 431.76 443.20
  L 431.43 435.51
  A 0.95 0.95 0.0 0 1 432.36 434.52
  Q 441.67 434.36 451.24 434.81
  Q 453.11 434.90 453.96 435.26
  Q 454.41 435.45 454.90 435.41
  C 461.32 434.96 467.54 435.72 473.88 434.98
  Q 474.50 434.91 474.50 435.54
  L 474.50 440.00
  A 2.52 2.47 33.7 0 0 474.71 441.00
  Q 475.03 441.70 474.80 442.28
  Q 474.60 442.80 474.11 442.54
  Z"
/>
<path fill="#48c1d7" d="
  M 282.61 438.37
  C 284.19 439.16 292.81 443.76 293.03 445.65
  Q 293.08 446.06 293.49 446.15
  Q 294.81 446.43 295.06 447.68
  Q 295.16 448.14 295.52 448.43
  Q 298.44 450.80 300.22 453.54
  Q 302.49 457.41 305.36 460.84
  C 310.29 466.72 313.78 472.82 318.06 478.82
  C 320.36 483.25 322.91 487.44 325.00 491.93
  Q 330.15 503.00 336.25 513.45
  L 304.67 514.93
  A 0.25 0.25 0.0 0 0 304.47 515.31
  C 312.65 527.98 324.59 534.57 339.66 535.33
  Q 340.07 535.04 341.03 535.43
  Q 347.08 534.94 353.63 535.50
  Q 371.75 536.42 389.77 538.41
  C 387.41 542.95 393.30 544.57 392.94 549.29
  Q 392.75 551.68 392.43 553.92
  Q 391.62 555.84 389.79 555.81
  Q 389.29 555.80 388.93 556.15
  Q 388.27 556.82 388.57 557.73
  Q 388.47 559.43 389.11 561.11
  Q 389.28 561.56 389.73 561.73
  L 393.70 563.19
  Q 393.31 564.60 391.50 565.00
  Q 370.43 569.72 353.08 572.10
  L 342.71 572.94
  Q 341.20 573.47 341.48 573.01
  Q 314.01 574.29 292.12 560.10
  C 278.80 551.47 267.91 538.22 260.31 524.19
  Q 251.36 507.65 244.72 488.32
  Q 243.35 480.05 243.55 473.54
  C 243.84 463.80 249.99 452.47 261.17 454.26
  C 272.40 457.22 280.13 467.44 284.67 477.93
  Q 290.67 491.78 297.66 505.46
  A 0.29 0.28 -65.5 0 0 298.19 505.26
  C 295.13 492.33 292.41 481.01 284.82 469.19
  Q 275.94 455.36 261.37 452.45
  Q 259.08 453.04 257.48 452.67
  Q 256.93 452.54 257.33 452.14
  C 263.14 446.36 272.73 436.10 282.61 438.37
  Z"
/>
<path fill="#48c1d7" d="
  M 316.76 439.91
  C 333.89 444.19 345.71 458.30 349.43 475.29
  Q 352.13 493.27 351.65 511.54
  Q 351.63 512.10 351.08 512.13
  L 340.38 512.76
  C 337.63 488.34 335.02 474.39 330.43 456.55
  Q 329.07 451.28 324.76 451.40
  L 322.26 452.23
  A 1.20 1.19 69.8 0 1 320.77 451.54
  L 318.25 445.22
  L 316.76 439.91
  Z
  M 337.53 472.93
  Q 339.25 473.29 340.96 473.16
  Q 341.81 473.10 341.55 473.90
  L 341.00 475.58
  Q 340.81 476.15 341.29 475.79
  Q 342.40 474.96 341.93 473.34
  Q 341.79 472.88 341.31 472.83
  L 335.89 472.36
  A 0.37 0.36 -8.2 0 0 335.52 472.85
  L 336.43 475.29
  Q 336.60 475.75 337.09 475.75
  L 338.25 475.75
  A 0.26 0.23 48.1 0 0 338.24 475.26
  Q 336.84 474.89 336.90 473.41
  Q 336.92 472.80 337.53 472.93
  Z"
/>
<circle fill="#ffffff" cx="200.76" cy="445.42" r="3.57"/>
<path fill="#48c1d7" d="
  M 586.82 442.99
  C 609.63 443.90 624.10 445.55 642.76 446.24
  C 648.26 446.44 651.59 450.31 653.82 455.41
  Q 666.21 483.76 664.77 514.98
  L 598.98 515.03
  Q 598.32 515.54 597.63 514.35
  C 585.02 492.70 580.57 467.77 586.82 442.99
  Z
  M 604.44 497.25
  C 605.09 500.62 607.08 508.54 611.07 508.51
  Q 630.78 508.36 650.50 508.80
  Q 652.50 508.84 655.38 507.65
  A 0.91 0.89 83.8 0 0 655.93 506.95
  C 657.50 497.14 653.55 474.55 647.99 466.11
  Q 647.71 465.69 647.23 465.53
  C 642.25 463.89 637.06 464.00 632.49 463.63
  Q 617.98 462.47 603.40 463.25
  C 599.24 463.48 598.18 465.69 598.96 469.51
  Q 601.78 483.37 604.44 497.25
  Z"
/>
<path fill="#2da3c0" d="
  M 318.25 445.22
  L 320.77 451.54
  A 1.20 1.19 69.8 0 0 322.26 452.23
  L 324.76 451.40
  Q 325.25 452.40 326.74 452.45
  Q 327.23 452.47 327.56 452.85
  Q 328.73 454.25 329.22 456.00
  Q 336.92 484.04 339.03 512.96
  L 336.25 513.45
  Q 330.15 503.00 325.00 491.93
  C 322.91 487.44 320.36 483.25 318.06 478.82
  C 319.96 478.72 329.22 478.60 329.32 474.67
  Q 329.65 461.68 320.89 452.64
  Q 319.06 449.66 318.25 445.22
  Z"
/>
<path fill="#0d2e4b" d="
  M 340.38 512.76
  L 341.03 535.43
  Q 340.07 535.04 339.66 535.33
  L 339.03 512.96
  Q 336.92 484.04 329.22 456.00
  Q 328.73 454.25 327.56 452.85
  Q 327.23 452.47 326.74 452.45
  Q 325.25 452.40 324.76 451.40
  Q 329.07 451.28 330.43 456.55
  C 335.02 474.39 337.63 488.34 340.38 512.76
  Z"
/>
<path fill="#ffffff" d="
  M 261.37 452.45
  Q 275.94 455.36 284.82 469.19
  C 292.41 481.01 295.13 492.33 298.19 505.26
  A 0.29 0.28 -65.5 0 1 297.66 505.46
  Q 290.67 491.78 284.67 477.93
  C 280.13 467.44 272.40 457.22 261.17 454.26
  Q 261.07 453.97 260.43 453.98
  Q 259.65 453.99 260.23 453.48
  L 261.37 452.45
  Z"
/>
<path fill="#0d2e4b" d="
  M 320.89 452.64
  Q 329.65 461.68 329.32 474.67
  C 329.22 478.60 319.96 478.72 318.06 478.82
  C 313.78 472.82 310.29 466.72 305.36 460.84
  Q 302.49 457.41 300.22 453.54
  C 303.07 455.76 304.17 458.69 306.66 460.75
  C 309.65 463.22 318.59 469.75 321.15 462.97
  Q 322.81 458.56 320.89 452.64
  Z"
/>
<path fill="#c4f6fe" d="
  M 611.07 508.51
  C 607.08 508.54 605.09 500.62 604.44 497.25
  Q 601.78 483.37 598.96 469.51
  C 598.18 465.69 599.24 463.48 603.40 463.25
  Q 617.98 462.47 632.49 463.63
  C 637.06 464.00 642.25 463.89 647.23 465.53
  Q 647.71 465.69 647.99 466.11
  C 653.55 474.55 657.50 497.14 655.93 506.95
  A 0.91 0.89 83.8 0 1 655.38 507.65
  Q 652.50 508.84 650.50 508.80
  Q 630.78 508.36 611.07 508.51
  Z
  M 629.42 481.97
  Q 629.72 483.37 628.76 484.38
  A 0.44 0.44 0.0 0 1 628.00 484.07
  L 628.00 483.25
  A 0.42 0.42 0.0 0 0 627.27 482.96
  Q 626.37 483.91 625.05 483.59
  A 0.64 0.64 0.0 0 0 624.26 484.18
  Q 624.16 486.43 625.50 488.11
  Q 625.77 488.45 626.19 488.33
  L 628.25 487.76
  Q 628.77 487.61 629.01 488.09
  L 630.98 492.06
  A 0.54 0.54 0.0 0 1 630.11 492.68
  Q 629.15 491.69 628.67 490.30
  A 1.76 1.76 0.0 0 0 625.25 490.88
  L 625.25 495.19
  Q 625.25 495.80 625.70 496.20
  L 628.34 498.56
  Q 628.67 498.85 629.11 498.84
  L 648.21 498.64
  A 0.96 0.95 -87.7 0 0 649.16 497.76
  C 649.46 493.87 649.34 483.97 646.70 480.86
  Q 646.36 480.46 645.83 480.47
  Q 642.40 480.58 640.58 483.45
  Q 640.21 484.04 639.54 483.87
  L 635.23 482.74
  A 0.53 0.53 0.0 0 1 635.03 481.81
  Q 635.58 481.38 636.25 481.47
  Q 636.87 481.55 636.95 480.93
  Q 637.27 478.50 636.13 476.34
  Q 635.83 475.77 635.19 475.70
  L 632.98 475.45
  Q 632.53 475.40 632.50 474.95
  L 632.14 470.66
  A 0.77 0.76 -2.8 0 0 631.36 469.96
  L 622.55 470.09
  Q 621.90 470.10 621.81 470.74
  Q 621.27 474.49 623.92 476.94
  A 1.22 1.21 -65.7 0 1 624.30 477.95
  L 623.95 481.20
  A 0.55 0.54 12.4 0 0 624.33 481.78
  Q 626.60 482.52 628.62 481.58
  Q 629.27 481.28 629.42 481.97
  Z"
/>
<path fill="#48c1d7" d="
  M 628.62 481.58
  Q 626.60 482.52 624.33 481.78
  A 0.55 0.54 12.4 0 1 623.95 481.20
  L 624.30 477.95
  A 1.22 1.21 -65.7 0 0 623.92 476.94
  Q 621.27 474.49 621.81 470.74
  Q 621.90 470.10 622.55 470.09
  L 631.36 469.96
  A 0.77 0.76 -2.8 0 1 632.14 470.66
  L 632.50 474.95
  Q 632.53 475.40 632.98 475.45
  L 635.19 475.70
  Q 635.83 475.77 636.13 476.34
  Q 637.27 478.50 636.95 480.93
  Q 636.87 481.55 636.25 481.47
  Q 635.58 481.38 635.03 481.81
  A 0.53 0.53 0.0 0 0 635.23 482.74
  L 639.54 483.87
  Q 640.21 484.04 640.58 483.45
  Q 642.40 480.58 645.83 480.47
  Q 646.36 480.46 646.70 480.86
  C 649.34 483.97 649.46 493.87 649.16 497.76
  A 0.96 0.95 -87.7 0 1 648.21 498.64
  L 629.11 498.84
  Q 628.67 498.85 628.34 498.56
  L 625.70 496.20
  Q 625.25 495.80 625.25 495.19
  L 625.25 490.88
  A 1.76 1.76 0.0 0 1 628.67 490.30
  Q 629.15 491.69 630.11 492.68
  A 0.54 0.54 0.0 0 0 630.98 492.06
  L 629.01 488.09
  Q 628.77 487.61 628.25 487.76
  L 626.19 488.33
  Q 625.77 488.45 625.50 488.11
  Q 624.16 486.43 624.26 484.18
  A 0.64 0.64 0.0 0 1 625.05 483.59
  Q 626.37 483.91 627.27 482.96
  A 0.42 0.42 0.0 0 1 628.00 483.25
  L 628.00 484.07
  A 0.44 0.44 0.0 0 0 628.76 484.38
  Q 629.72 483.37 629.42 481.97
  Q 629.27 481.28 628.62 481.58
  Z"
/>
<path fill="#426a8f" d="
  M 336.90 473.41
  Q 336.84 474.89 338.24 475.26
  A 0.26 0.23 48.1 0 1 338.25 475.75
  L 337.09 475.75
  Q 336.60 475.75 336.43 475.29
  L 335.52 472.85
  A 0.37 0.36 -8.2 0 1 335.89 472.36
  L 341.31 472.83
  Q 341.79 472.88 341.93 473.34
  Q 342.40 474.96 341.29 475.79
  Q 340.81 476.15 341.00 475.58
  L 341.55 473.90
  Q 341.81 473.10 340.96 473.16
  Q 339.25 473.29 337.53 472.93
  Q 336.92 472.80 336.90 473.41
  Z"
/>
<path fill="#ffffff" d="
  M 354.08 489.82
  C 355.04 505.38 354.09 523.65 353.63 535.50
  Q 347.08 534.94 341.03 535.43
  L 340.38 512.76
  L 351.08 512.13
  Q 351.63 512.10 351.65 511.54
  Q 352.13 493.27 349.43 475.29
  Q 349.37 474.34 349.95 473.99
  Q 350.42 473.70 350.59 474.23
  Q 353.07 482.07 354.08 489.82
  Z"
/>
<path fill="#ffffff" d="
  M 244.72 488.32
  Q 251.36 507.65 260.31 524.19
  C 267.91 538.22 278.80 551.47 292.12 560.10
  Q 314.01 574.29 341.48 573.01
  Q 342.51 607.67 344.05 624.94
  Q 347.23 660.51 354.98 711.77
  Q 356.57 710.73 356.25 712.99
  L 243.33 712.99
  L 247.24 623.41
  L 250.34 574.90
  Q 251.14 567.82 250.80 564.99
  Q 246.33 527.28 244.72 488.32
  Z
  M 320.06 613.23
  C 315.05 626.80 311.04 637.88 294.50 639.35
  A 0.22 0.22 0.0 0 0 294.48 639.79
  C 309.36 642.26 319.69 625.89 320.91 612.97
  Q 320.76 611.79 320.19 611.81
  Q 301.44 612.61 282.69 613.17
  Q 280.87 613.22 280.19 613.78
  A 0.25 0.25 0.0 0 0 280.35 614.22
  Q 300.72 614.22 318.49 613.00
  Q 319.64 612.92 320.06 613.23
  Z
  M 280.31 615.46
  C 279.48 622.49 282.00 632.94 288.25 637.10
  A 0.20 0.20 0.0 0 0 288.51 636.81
  Q 280.85 627.72 281.33 615.73
  Q 281.34 615.32 280.86 615.13
  A 0.41 0.40 13.9 0 0 280.31 615.46
  Z"
/>
<path fill="#2da3c0" d="
  M 354.08 489.82
  C 360.73 502.27 365.42 509.63 377.51 517.40
  C 385.82 522.74 394.22 528.20 403.17 532.43
  C 396.66 531.77 393.20 532.54 389.77 538.41
  Q 371.75 536.42 353.63 535.50
  C 354.09 523.65 355.04 505.38 354.08 489.82
  Z"
/>
<path fill="#d8e5f1" d="
  M 464.74 535.81
  Q 466.57 528.28 465.21 523.05
  C 462.87 514.09 451.17 509.52 443.60 515.34
  C 436.77 520.59 437.13 527.82 438.60 535.83
  Q 430.74 537.68 421.69 535.95
  Q 422.00 536.38 421.95 535.72
  Q 426.65 536.50 426.77 533.04
  L 427.08 533.48
  A 0.33 0.33 0.0 0 0 427.68 533.31
  C 428.49 520.71 434.44 504.70 448.55 502.80
  Q 451.88 502.35 456.11 504.47
  C 470.97 511.91 473.37 523.47 478.91 537.57
  A 1.35 1.34 -3.1 0 1 477.30 539.36
  Q 476.54 539.15 476.27 538.54
  Q 476.04 538.03 475.50 537.93
  L 464.74 535.81
  Z"
/>
<path fill="#0d2e4b" d="
  M 464.74 535.81
  L 438.60 535.83
  C 437.13 527.82 436.77 520.59 443.60 515.34
  C 451.17 509.52 462.87 514.09 465.21 523.05
  Q 466.57 528.28 464.74 535.81
  Z"
/>
<path fill="#ffffff" d="
  M 339.03 512.96
  L 339.66 535.33
  C 324.59 534.57 312.65 527.98 304.47 515.31
  A 0.25 0.25 0.0 0 1 304.67 514.93
  L 336.25 513.45
  L 339.03 512.96
  Z"
/>
<path fill="#426a8f" d="
  M 720.22 514.93
  L 762.01 515.26
  Q 750.17 535.41 730.42 547.40
  C 684.26 575.39 627.88 561.64 598.99 516.47
  Q 598.73 516.06 598.84 515.59
  L 598.98 515.03
  L 664.77 514.98
  L 720.22 514.93
  Z"
/>
<path fill="#48c1d7" d="
  M 250.34 574.90
  L 247.24 623.41
  Q 231.19 632.39 213.01 632.26
  Q 199.98 632.16 187.19 632.38
  A 0.36 0.36 0.0 0 1 187.07 631.68
  C 200.13 627.46 212.77 618.78 222.98 609.84
  C 232.43 601.57 239.03 594.73 242.27 583.45
  A 0.91 0.91 0.0 0 0 240.87 582.46
  Q 234.57 586.94 228.53 591.82
  C 213.92 603.60 205.29 619.73 185.62 620.80
  L 183.75 620.21
  Q 179.82 617.27 175.48 616.22
  Q 174.78 614.11 174.74 612.25
  Q 174.58 604.97 174.25 576.48
  A 0.68 0.66 4.0 0 0 173.66 575.82
  L 172.19 575.65
  Q 171.61 575.58 171.57 576.16
  C 170.52 590.08 171.89 604.26 171.09 618.33
  Q 163.34 619.73 155.30 619.16
  Q 154.61 619.11 154.69 619.80
  L 155.02 622.64
  Q 155.06 622.98 154.72 623.01
  C 154.29 623.06 154.24 622.92 154.13 622.55
  C 151.27 613.53 149.49 609.21 143.25 604.25
  C 132.08 595.36 121.03 590.27 108.51 584.47
  A 0.44 0.44 0.0 0 0 107.93 585.06
  Q 116.54 603.16 135.28 610.87
  C 137.03 611.59 137.94 611.86 140.07 611.93
  C 147.25 612.18 147.36 619.17 151.27 623.28
  Q 155.99 628.24 160.91 633.05
  Q 161.30 633.43 160.86 633.75
  L 158.93 635.22
  Q 157.87 634.19 156.95 634.72
  C 137.70 636.33 119.92 632.56 101.55 624.32
  Q 92.34 620.72 91.69 610.31
  Q 90.56 592.27 100.85 578.50
  L 105.07 575.34
  A 0.88 0.87 -22.3 0 0 105.42 574.52
  C 103.86 562.90 101.74 537.00 114.81 530.28
  Q 115.32 530.01 115.80 530.34
  Q 116.81 531.02 117.76 532.47
  Q 133.46 556.70 147.51 581.91
  C 150.78 587.78 153.28 593.46 154.70 598.81
  Q 156.06 603.89 155.86 598.63
  Q 155.47 588.72 153.18 579.16
  C 148.97 561.61 136.29 547.54 126.78 533.23
  A 2.12 2.11 -41.3 0 1 126.95 530.67
  Q 132.33 524.54 140.68 522.63
  C 146.96 521.20 149.25 523.98 152.64 529.02
  C 158.74 538.08 160.34 549.52 162.56 560.06
  A 1.98 1.98 0.0 0 0 164.29 561.62
  Q 169.30 562.17 173.59 565.11
  C 176.24 566.94 178.47 566.55 179.03 563.19
  C 181.18 550.15 183.91 537.73 189.76 525.78
  C 192.99 519.18 197.79 519.40 204.47 521.22
  C 209.25 522.53 214.46 523.13 218.44 526.33
  C 221.51 528.81 215.33 535.85 213.89 537.94
  C 201.69 555.66 187.51 575.61 188.23 599.99
  Q 188.30 602.26 189.68 603.90
  A 1.07 1.07 0.0 0 0 191.47 603.67
  Q 193.26 599.91 194.60 595.90
  C 202.77 571.50 216.60 548.69 226.41 529.98
  C 227.70 527.53 231.77 522.06 235.01 525.25
  C 245.86 535.90 245.20 557.40 242.85 571.03
  A 0.77 0.77 0.0 0 0 243.30 571.86
  L 250.34 574.90
  Z"
/>
<path fill="#ff9f82" d="
  M 403.17 532.43
  C 409.49 533.28 415.93 532.20 421.95 535.72
  Q 422.00 536.38 421.69 535.95
  C 419.11 536.10 410.19 535.65 410.09 539.30
  Q 410.06 540.53 411.27 540.74
  C 412.43 542.31 411.73 556.16 411.70 559.07
  Q 410.77 563.04 406.25 562.97
  Q 400.01 562.86 393.70 563.19
  L 389.73 561.73
  Q 389.28 561.56 389.11 561.11
  Q 388.47 559.43 388.57 557.73
  Q 388.63 555.97 390.93 556.49
  Q 391.46 556.60 391.88 556.27
  Q 392.75 555.57 392.43 553.92
  Q 392.75 551.68 392.94 549.29
  C 393.30 544.57 387.41 542.95 389.77 538.41
  C 393.20 532.54 396.66 531.77 403.17 532.43
  Z"
/>
<path fill="#0d2e4b" d="
  M 481.74 547.30
  L 481.71 558.22
  Q 481.71 558.66 481.27 558.67
  L 462.55 558.99
  Q 462.09 559.00 462.28 559.42
  L 483.11 606.54
  L 499.70 645.00
  L 495.45 644.97
  Q 488.86 632.45 485.98 625.79
  Q 475.14 600.76 458.21 563.49
  Q 457.11 561.08 456.26 559.55
  Q 455.95 558.99 455.30 558.99
  L 438.51 559.01
  A 0.42 0.42 0.0 0 0 438.11 559.56
  Q 454.70 612.89 459.73 629.76
  Q 460.70 633.04 463.61 644.98
  Q 461.71 645.40 461.04 645.05
  L 433.88 559.53
  Q 433.72 559.03 433.20 559.03
  L 411.70 559.07
  C 411.73 556.16 412.43 542.31 411.27 540.74
  Q 411.23 540.57 411.28 540.41
  Q 411.40 540.04 411.80 540.04
  Q 443.44 540.41 475.07 540.21
  C 476.57 540.20 478.90 539.77 480.96 540.22
  Q 481.43 540.32 481.45 540.80
  L 481.74 547.30
  Z"
/>
<path fill="#bac8e3" d="
  M 481.74 547.30
  L 483.00 547.53
  Q 483.48 547.62 483.76 548.02
  Q 503.01 576.46 530.40 596.70
  C 539.22 603.23 550.14 609.07 560.24 614.74
  Q 529.05 613.78 497.46 617.84
  Q 489.79 613.81 484.13 606.42
  A 0.53 0.53 0.0 0 0 483.38 606.33
  L 483.11 606.54
  L 462.28 559.42
  Q 462.09 559.00 462.55 558.99
  L 481.27 558.67
  Q 481.71 558.66 481.71 558.22
  L 481.74 547.30
  Z"
/>
<path fill="#426a8f" d="
  M 392.43 553.92
  Q 392.75 555.57 391.88 556.27
  Q 391.46 556.60 390.93 556.49
  Q 388.63 555.97 388.57 557.73
  Q 388.27 556.82 388.93 556.15
  Q 389.29 555.80 389.79 555.81
  Q 391.62 555.84 392.43 553.92
  Z"
/>
<path fill="#c4f6fe" d="
  M 411.70 559.07
  L 433.20 559.03
  Q 433.72 559.03 433.88 559.53
  L 461.04 645.05
  L 390.75 645.19
  A 0.40 0.40 0.0 0 0 390.35 645.59
  L 390.22 664.96
  Q 390.21 665.45 390.70 665.47
  L 400.27 665.75
  Q 400.72 689.16 400.15 712.49
  Q 400.13 712.98 399.64 712.98
  L 356.25 712.99
  Q 356.57 710.73 354.98 711.77
  Q 355.45 704.45 353.98 696.74
  L 354.85 696.18
  Q 355.31 695.88 355.31 695.34
  Q 355.32 690.31 354.52 681.75
  C 353.48 670.69 353.06 652.80 352.49 638.00
  Q 351.22 605.19 353.08 572.10
  Q 370.43 569.72 391.50 565.00
  Q 393.31 564.60 393.70 563.19
  Q 400.01 562.86 406.25 562.97
  Q 410.77 563.04 411.70 559.07
  Z"
/>
<path fill="#294d6b" d="
  M 495.45 644.97
  L 463.61 644.98
  Q 460.70 633.04 459.73 629.76
  Q 454.70 612.89 438.11 559.56
  A 0.42 0.42 0.0 0 1 438.51 559.01
  L 455.30 558.99
  Q 455.95 558.99 456.26 559.55
  Q 457.11 561.08 458.21 563.49
  Q 475.14 600.76 485.98 625.79
  Q 488.86 632.45 495.45 644.97
  Z"
/>
<path fill="#ffffff" d="
  M 353.08 572.10
  Q 351.22 605.19 352.49 638.00
  C 353.06 652.80 353.48 670.69 354.52 681.75
  Q 355.32 690.31 355.31 695.34
  Q 355.31 695.88 354.85 696.18
  L 353.98 696.74
  Q 347.36 651.74 344.81 617.19
  Q 344.04 606.67 342.71 572.94
  L 353.08 572.10
  Z"
/>
<path fill="#0d2e4b" d="
  M 342.71 572.94
  Q 344.04 606.67 344.81 617.19
  Q 347.36 651.74 353.98 696.74
  Q 355.45 704.45 354.98 711.77
  Q 347.23 660.51 344.05 624.94
  Q 342.51 607.67 341.48 573.01
  Q 341.20 573.47 342.71 572.94
  Z"
/>
<path fill="#426a8f" d="
  M 175.48 616.22
  Q 175.85 622.16 176.10 628.02
  C 176.43 635.78 177.60 644.98 177.52 653.58
  A 0.16 0.14 -82.8 0 0 177.62 653.73
  Q 177.68 653.75 177.73 653.75
  A 0.32 0.20 -82.8 0 0 177.94 653.49
  L 183.75 620.21
  L 185.62 620.80
  Q 182.38 646.83 180.00 672.38
  C 179.75 674.98 178.43 678.69 178.46 680.75
  C 179.09 718.65 181.59 756.38 183.07 794.23
  C 182.96 796.45 182.41 803.44 183.69 804.99
  Q 183.94 805.89 183.55 807.29
  L 183.79 812.72
  Q 183.84 813.84 182.72 813.82
  L 163.03 813.45
  Q 162.13 813.44 162.32 812.55
  L 163.11 808.95
  Q 163.60 788.61 163.55 768.20
  C 163.52 755.66 160.84 744.51 156.86 733.00
  Q 145.02 700.96 118.66 679.29
  A 0.63 0.62 -53.4 0 1 118.54 678.45
  L 120.53 675.51
  A 0.58 0.58 0.0 0 1 121.38 675.39
  Q 145.13 695.00 158.02 722.65
  C 161.83 730.81 163.84 739.54 165.32 748.40
  A 0.26 0.26 0.0 0 0 165.83 748.34
  C 165.29 741.49 165.74 733.51 165.75 728.36
  Q 165.77 705.53 165.73 682.70
  Q 165.72 677.84 164.70 673.02
  Q 160.69 653.97 156.95 634.72
  Q 157.87 634.19 158.93 635.22
  L 166.04 667.71
  Q 166.19 668.39 166.28 667.70
  Q 169.47 642.70 171.09 618.33
  C 171.89 604.26 170.52 590.08 171.57 576.16
  Q 171.61 575.58 172.19 575.65
  L 173.66 575.82
  A 0.68 0.66 4.0 0 1 174.25 576.48
  Q 174.58 604.97 174.74 612.25
  Q 174.78 614.11 175.48 616.22
  Z"
/>
<path fill="#bac8e3" d="
  M 733.30 581.80
  Q 731.90 583.91 730.57 584.58
  C 718.77 590.42 706.03 594.99 693.07 596.27
  C 674.12 598.13 656.04 594.44 638.27 587.96
  Q 637.79 587.79 637.54 587.35
  Q 637.18 586.71 637.23 586.10
  C 668.52 597.63 703.05 595.65 733.30 581.80
  Z"
/>
<path fill="#c4f6fe" d="
  M 247.24 623.41
  L 243.33 712.99
  L 190.94 712.99
  Q 190.20 712.99 190.18 713.74
  L 189.93 729.30
  Q 188.27 739.06 189.05 748.77
  C 189.76 757.57 187.80 766.66 186.57 775.37
  C 185.74 781.26 185.24 790.43 183.53 797.93
  Q 183.73 795.89 183.07 794.23
  C 181.59 756.38 179.09 718.65 178.46 680.75
  C 178.43 678.69 179.75 674.98 180.00 672.38
  Q 182.38 646.83 185.62 620.80
  C 205.29 619.73 213.92 603.60 228.53 591.82
  Q 234.57 586.94 240.87 582.46
  A 0.91 0.91 0.0 0 1 242.27 583.45
  C 239.03 594.73 232.43 601.57 222.98 609.84
  C 212.77 618.78 200.13 627.46 187.07 631.68
  A 0.36 0.36 0.0 0 0 187.19 632.38
  Q 199.98 632.16 213.01 632.26
  Q 231.19 632.39 247.24 623.41
  Z"
/>
<path fill="#c4f6fe" d="
  M 171.09 618.33
  Q 169.47 642.70 166.28 667.70
  Q 166.19 668.39 166.04 667.71
  L 158.93 635.22
  L 160.86 633.75
  Q 161.30 633.43 160.91 633.05
  Q 155.99 628.24 151.27 623.28
  C 147.36 619.17 147.25 612.18 140.07 611.93
  C 137.94 611.86 137.03 611.59 135.28 610.87
  Q 116.54 603.16 107.93 585.06
  A 0.44 0.44 0.0 0 1 108.51 584.47
  C 121.03 590.27 132.08 595.36 143.25 604.25
  C 149.49 609.21 151.27 613.53 154.13 622.55
  C 154.24 622.92 154.29 623.06 154.72 623.01
  Q 155.06 622.98 155.02 622.64
  L 154.69 619.80
  Q 154.61 619.11 155.30 619.16
  Q 163.34 619.73 171.09 618.33
  Z"
/>
<path fill="#c4f6fe" d="
  M 497.46 617.84
  Q 499.60 618.60 503.25 618.67
  Q 520.22 618.99 537.06 619.03
  A 0.69 0.68 90.0 0 1 537.74 619.72
  L 537.74 645.07
  L 499.70 645.00
  L 483.11 606.54
  L 483.38 606.33
  A 0.53 0.53 0.0 0 1 484.13 606.42
  Q 489.79 613.81 497.46 617.84
  Z"
/>
<path fill="#294d6b" d="
  M 320.91 612.97
  Q 320.32 613.00 320.06 613.23
  Q 319.64 612.92 318.49 613.00
  Q 300.72 614.22 280.35 614.22
  A 0.25 0.25 0.0 0 1 280.19 613.78
  Q 280.87 613.22 282.69 613.17
  Q 301.44 612.61 320.19 611.81
  Q 320.76 611.79 320.91 612.97
  Z"
/>
<path fill="#48c1d7" d="
  M 320.91 612.97
  C 319.69 625.89 309.36 642.26 294.48 639.79
  A 0.22 0.22 0.0 0 1 294.50 639.35
  C 311.04 637.88 315.05 626.80 320.06 613.23
  Q 320.32 613.00 320.91 612.97
  Z"
/>
<path fill="#426a8f" d="
  M 560.24 614.74
  L 565.77 616.47
  L 565.79 645.19
  L 537.74 645.07
  L 537.74 619.72
  A 0.69 0.68 90.0 0 0 537.06 619.03
  Q 520.22 618.99 503.25 618.67
  Q 499.60 618.60 497.46 617.84
  Q 529.05 613.78 560.24 614.74
  Z"
/>
<path fill="#d8e5f1" d="
  M 288.25 637.10
  C 282.00 632.94 279.48 622.49 280.31 615.46
  A 0.41 0.40 13.9 0 1 280.86 615.13
  Q 281.34 615.32 281.33 615.73
  Q 280.85 627.72 288.51 636.81
  A 0.20 0.20 0.0 0 1 288.25 637.10
  Z"
/>
<path fill="#c4f6fe" d="
  M 175.48 616.22
  Q 179.82 617.27 183.75 620.21
  L 177.94 653.49
  A 0.32 0.20 -82.8 0 1 177.73 653.75
  Q 177.68 653.75 177.62 653.73
  A 0.16 0.14 -82.8 0 1 177.52 653.58
  C 177.60 644.98 176.43 635.78 176.10 628.02
  Q 175.85 622.16 175.48 616.22
  Z"
/>
<path fill="#bac8e3" d="
  M 565.77 616.47
  L 787.19 616.47
  C 788.50 618.63 787.56 640.73 787.63 645.21
  L 565.79 645.19
  L 565.77 616.47
  Z"
/>
<path fill="#c4f6fe" d="
  M 101.55 624.32
  C 119.92 632.56 137.70 636.33 156.95 634.72
  Q 160.69 653.97 164.70 673.02
  Q 165.72 677.84 165.73 682.70
  Q 165.77 705.53 165.75 728.36
  C 165.74 733.51 165.29 741.49 165.83 748.34
  A 0.26 0.26 0.0 0 1 165.32 748.40
  C 163.84 739.54 161.83 730.81 158.02 722.65
  Q 145.13 695.00 121.38 675.39
  A 0.58 0.58 0.0 0 0 120.53 675.51
  L 118.54 678.45
  A 0.63 0.62 -53.4 0 0 118.66 679.29
  Q 145.02 700.96 156.86 733.00
  C 142.36 733.65 112.36 719.76 104.22 707.30
  C 96.96 696.20 99.80 680.42 108.42 670.47
  Q 108.76 670.07 108.63 669.57
  Q 103.10 647.53 101.55 624.32
  Z
  M 124.02 658.84
  Q 124.07 658.99 124.16 659.11
  Q 124.28 659.28 124.48 659.26
  L 131.31 658.59
  A 0.47 0.46 -4.6 0 0 131.73 658.11
  C 131.56 653.38 127.85 646.94 122.30 647.88
  C 115.79 648.98 115.73 658.64 123.61 658.57
  Q 123.91 658.57 124.02 658.84
  Z"
/>
<path fill="#ffffff" d="
  M 461.04 645.05
  Q 461.71 645.40 463.61 644.98
  L 495.45 644.97
  L 499.70 645.00
  L 537.74 645.07
  L 565.79 645.19
  L 787.63 645.21
  L 857.61 645.15
  A 0.64 0.64 0.0 0 1 858.25 645.79
  L 858.25 664.96
  Q 858.25 665.47 857.75 665.55
  Q 852.40 666.49 849.19 665.89
  Q 846.96 665.47 845.78 665.78
  L 845.25 665.75
  L 400.27 665.75
  L 390.70 665.47
  Q 390.21 665.45 390.22 664.96
  L 390.35 645.59
  A 0.40 0.40 0.0 0 1 390.75 645.19
  L 461.04 645.05
  Z"
/>
<path fill="#ffffff" d="
  M 123.61 658.57
  C 115.73 658.64 115.79 648.98 122.30 647.88
  C 127.85 646.94 131.56 653.38 131.73 658.11
  A 0.47 0.46 -4.6 0 1 131.31 658.59
  L 124.48 659.26
  Q 124.28 659.28 124.16 659.11
  Q 124.07 658.99 124.02 658.84
  Q 123.91 658.57 123.61 658.57
  Z"
/>
<path fill="#0d2e4b" d="
  M 400.27 665.75
  L 845.25 665.75
  C 845.68 667.84 840.43 667.80 839.20 667.77
  C 805.97 666.86 779.35 667.75 749.56 667.70
  C 733.21 667.68 715.22 667.14 698.00 667.47
  C 632.86 668.71 567.58 667.41 502.43 667.55
  C 473.97 667.61 445.45 667.47 416.99 667.75
  Q 416.46 667.76 416.40 668.29
  Q 416.26 669.48 416.26 671.50
  Q 416.21 704.84 416.27 738.19
  Q 416.28 746.16 417.58 749.52
  C 419.96 755.68 425.60 760.25 432.50 760.25
  Q 611.20 760.24 789.89 760.26
  C 795.73 760.26 804.96 760.81 812.67 760.05
  Q 813.16 760.00 813.42 759.59
  C 819.63 749.98 824.18 742.36 825.79 732.61
  Q 825.99 731.38 827.17 731.80
  C 828.01 732.10 828.05 733.05 827.81 733.86
  Q 823.71 747.81 815.61 759.80
  Q 815.38 760.14 815.79 760.15
  Q 829.96 760.73 844.04 759.18
  Q 844.62 759.12 844.51 758.55
  Q 844.29 757.48 844.49 756.62
  Q 846.55 757.00 846.24 758.71
  Q 843.42 770.00 831.48 771.14
  Q 831.02 771.18 831.02 771.64
  L 831.01 794.10
  L 830.93 798.48
  Q 830.92 799.10 830.30 799.10
  L 804.49 799.23
  Q 789.72 798.73 775.01 799.23
  L 348.00 799.25
  L 295.05 799.25
  L 279.03 799.23
  L 248.48 799.13
  L 218.85 799.31
  L 207.76 799.50
  Q 207.25 799.51 207.25 798.99
  L 207.25 772.48
  Q 207.25 771.86 206.63 771.87
  C 187.79 772.17 190.49 740.60 189.93 729.30
  L 190.18 713.74
  Q 190.20 712.99 190.94 712.99
  L 243.33 712.99
  L 356.25 712.99
  L 399.64 712.98
  Q 400.13 712.98 400.15 712.49
  Q 400.72 689.16 400.27 665.75
  Z"
/>
<path fill="#294d6b" d="
  M 845.25 665.75
  L 845.78 665.78
  Q 846.45 671.86 845.88 677.98
  C 845.70 678.75 845.45 679.29 844.76 679.80
  C 837.22 685.41 837.35 707.48 837.99 714.89
  A 0.88 0.87 -20.9 0 1 837.64 715.66
  C 836.04 716.84 833.76 716.87 832.83 718.80
  Q 828.29 728.29 828.00 738.63
  C 827.68 750.29 834.16 754.40 844.49 756.62
  Q 844.29 757.48 844.51 758.55
  Q 844.62 759.12 844.04 759.18
  Q 829.96 760.73 815.79 760.15
  Q 815.38 760.14 815.61 759.80
  Q 823.71 747.81 827.81 733.86
  C 828.05 733.05 828.01 732.10 827.17 731.80
  Q 825.99 731.38 825.79 732.61
  C 824.18 742.36 819.63 749.98 813.42 759.59
  Q 813.16 760.00 812.67 760.05
  C 804.96 760.81 795.73 760.26 789.89 760.26
  Q 611.20 760.24 432.50 760.25
  C 425.60 760.25 419.96 755.68 417.58 749.52
  Q 416.28 746.16 416.27 738.19
  Q 416.21 704.84 416.26 671.50
  Q 416.26 669.48 416.40 668.29
  Q 416.46 667.76 416.99 667.75
  C 445.45 667.47 473.97 667.61 502.43 667.55
  C 567.58 667.41 632.86 668.71 698.00 667.47
  C 715.22 667.14 733.21 667.68 749.56 667.70
  C 779.35 667.75 805.97 666.86 839.20 667.77
  C 840.43 667.80 845.68 667.84 845.25 665.75
  Z
  M 798.0762 699.6464
  A 4.15 3.68 92.4 0 0 801.9268 695.6541
  A 4.15 3.68 92.4 0 0 798.4238 691.3536
  A 4.15 3.68 92.4 0 0 794.5732 695.3459
  A 4.15 3.68 92.4 0 0 798.0762 699.6464
  Z
  M 808.7258 723.3377
  A 3.79 3.14 100.4 0 0 812.4984 720.1768
  A 3.79 3.14 100.4 0 0 810.0942 715.8823
  A 3.79 3.14 100.4 0 0 806.3216 719.0432
  A 3.79 3.14 100.4 0 0 808.7258 723.3377
  Z
  M 829.13 719.69
  C 824.34 721.98 821.65 728.17 824.90 732.63
  A 0.56 0.56 0.0 0 0 825.89 732.46
  L 829.69 720.17
  A 0.40 0.40 0.0 0 0 829.13 719.69
  Z"
/>
<path fill="#48c1d7" d="
  M 871.43 676.36
  C 876.18 684.06 877.19 693.40 879.02 701.95
  C 879.51 704.29 880.78 705.28 883.13 704.26
  A 0.85 0.85 0.0 0 0 883.65 703.51
  L 883.90 697.69
  C 883.70 687.30 887.84 674.33 899.55 671.71
  C 905.50 670.38 910.20 673.66 912.83 678.75
  A 0.82 0.82 0.0 0 1 912.78 679.58
  C 902.71 694.65 892.17 711.24 892.05 729.50
  A 1.48 1.46 -63.6 0 0 892.34 730.38
  C 896.08 735.44 898.78 726.89 899.30 724.76
  A 0.35 0.35 0.0 0 0 898.71 724.44
  L 894.36 729.13
  Q 893.95 729.57 893.57 729.11
  C 889.26 723.95 902.28 708.12 905.85 704.43
  C 912.42 697.67 917.43 686.90 922.23 678.77
  A 2.19 2.18 24.9 0 1 924.84 677.82
  C 937.06 682.10 935.52 706.03 934.41 715.04
  A 0.62 0.61 -85.7 0 0 935.00 715.73
  Q 942.48 715.86 945.86 723.68
  Q 949.23 731.91 947.81 742.57
  Q 947.01 748.58 942.42 751.99
  C 927.65 762.92 910.39 763.00 893.38 757.96
  A 0.93 0.92 38.4 0 1 893.18 756.27
  Q 899.51 752.65 905.69 749.35
  C 909.87 747.12 913.06 744.12 916.61 741.13
  Q 922.78 735.93 930.19 732.70
  Q 931.82 731.98 934.52 728.27
  L 937.58 723.86
  A 1.20 1.20 0.0 0 0 936.74 721.98
  C 927.04 720.76 921.09 728.02 914.49 733.55
  C 908.46 738.59 902.49 742.35 896.10 746.49
  L 892.66 749.34
  Q 891.94 749.94 892.48 749.16
  Q 893.77 747.32 893.35 744.96
  Q 893.26 744.43 892.72 744.41
  L 887.02 744.19
  C 885.13 734.11 886.31 722.03 886.07 711.63
  Q 886.06 711.00 885.43 711.00
  L 883.56 711.00
  Q 883.03 711.00 883.03 711.53
  L 882.61 742.26
  Q 878.44 742.38 874.69 744.42
  C 872.07 745.85 869.74 745.18 867.87 742.85
  C 860.17 733.25 850.49 724.39 838.47 721.90
  Q 837.91 721.79 838.21 722.27
  C 841.77 728.06 845.16 734.22 850.36 738.75
  C 860.19 747.31 868.09 751.89 881.02 757.18
  L 877.34 756.97
  Q 876.28 756.23 873.75 756.13
  Q 858.63 755.52 846.24 758.71
  Q 846.55 757.00 844.49 756.62
  C 834.16 754.40 827.68 750.29 828.00 738.63
  Q 828.29 728.29 832.83 718.80
  C 833.76 716.87 836.04 716.84 837.64 715.66
  A 0.88 0.87 -20.9 0 0 837.99 714.89
  C 837.35 707.48 837.22 685.41 844.76 679.80
  C 845.45 679.29 845.70 678.75 845.88 677.98
  Q 846.04 678.19 846.03 678.45
  A 1.02 0.98 27.5 0 0 846.25 679.10
  C 859.75 695.77 866.33 711.92 871.91 732.77
  Q 872.49 734.94 874.38 733.82
  A 2.20 2.19 -13.8 0 0 875.46 732.04
  C 876.49 712.53 864.68 693.49 853.66 678.44
  A 1.14 1.14 0.0 0 1 853.80 676.93
  C 859.19 671.84 866.23 667.29 871.43 676.36
  Z"
/>
<path fill="#ffffff" d="
  M 883.90 697.69
  L 883.65 703.51
  A 0.85 0.85 0.0 0 1 883.13 704.26
  C 880.78 705.28 879.51 704.29 879.02 701.95
  C 877.19 693.40 876.18 684.06 871.43 676.36
  Q 871.64 675.90 871.99 675.60
  Q 872.40 675.25 872.77 675.63
  Q 877.71 680.66 880.81 686.98
  C 882.40 690.22 882.22 694.06 883.90 697.69
  Z"
/>
<ellipse fill="#48c1d7" cx="0.00" cy="0.00" transform="translate(798.25,695.50) rotate(92.4)" rx="4.15" ry="3.68"/>
<path fill="#426a8f" d="
  M 887.02 744.19
  Q 887.98 757.95 890.03 771.42
  Q 890.09 771.82 890.23 771.45
  Q 892.52 765.40 891.61 758.77
  A 0.07 0.06 35.2 0 1 891.74 758.75
  Q 893.54 765.91 892.87 769.28
  Q 890.14 782.94 890.82 796.73
  L 891.11 814.82
  Q 891.13 815.76 890.19 815.76
  L 880.74 815.75
  Q 880.21 815.75 880.22 815.22
  L 880.82 796.22
  L 881.67 758.02
  L 882.61 742.26
  L 883.03 711.53
  Q 883.03 711.00 883.56 711.00
  L 885.43 711.00
  Q 886.06 711.00 886.07 711.63
  C 886.31 722.03 885.13 734.11 887.02 744.19
  Z"
/>
<ellipse fill="#48c1d7" cx="0.00" cy="0.00" transform="translate(809.41,719.61) rotate(100.4)" rx="3.79" ry="3.14"/>
<path fill="#c4f6fe" d="
  M 75.76 755.73
  C 66.97 752.81 52.02 746.03 48.27 736.52
  C 43.10 723.41 61.63 716.78 71.93 716.03
  Q 95.75 714.28 115.02 726.81
  C 122.67 731.78 128.77 739.42 136.36 745.02
  Q 147.47 753.22 160.37 756.47
  A 1.42 1.42 0.0 0 1 160.58 759.15
  Q 156.08 761.07 151.57 761.87
  C 126.33 766.34 99.71 763.68 75.76 755.73
  Z"
/>
<path fill="#48c1d7" d="
  M 824.90 732.63
  C 821.65 728.17 824.34 721.98 829.13 719.69
  A 0.40 0.40 0.0 0 1 829.69 720.17
  L 825.89 732.46
  A 0.56 0.56 0.0 0 1 824.90 732.63
  Z"
/>
<path fill="#c4f6fe" d="
  M 882.61 742.26
  L 881.67 758.02
  Q 881.43 757.11 881.02 757.18
  C 868.09 751.89 860.19 747.31 850.36 738.75
  C 845.16 734.22 841.77 728.06 838.21 722.27
  Q 837.91 721.79 838.47 721.90
  C 850.49 724.39 860.17 733.25 867.87 742.85
  C 869.74 745.18 872.07 745.85 874.69 744.42
  Q 878.44 742.38 882.61 742.26
  Z"
/>
<path fill="#c4f6fe" d="
  M 934.52 728.27
  Q 934.58 727.78 934.47 727.46
  A 0.38 0.38 0.0 0 0 933.91 727.26
  C 927.94 731.12 916.93 735.51 913.62 741.71
  Q 913.38 742.16 912.89 742.28
  L 896.10 746.49
  C 902.49 742.35 908.46 738.59 914.49 733.55
  C 921.09 728.02 927.04 720.76 936.74 721.98
  A 1.20 1.20 0.0 0 1 937.58 723.86
  L 934.52 728.27
  Z"
/>
<path fill="#ffffff" d="
  M 189.93 729.30
  C 190.49 740.60 187.79 772.17 206.63 771.87
  Q 207.25 771.86 207.25 772.48
  L 207.25 798.99
  Q 207.25 799.51 207.76 799.50
  L 218.85 799.31
  L 219.12 804.79
  Q 219.31 804.99 219.28 805.19
  Q 219.22 805.67 218.74 805.68
  Q 201.35 805.95 183.55 807.29
  Q 183.94 805.89 183.69 804.99
  L 183.53 797.93
  C 185.24 790.43 185.74 781.26 186.57 775.37
  C 187.80 766.66 189.76 757.57 189.05 748.77
  Q 188.27 739.06 189.93 729.30
  Z"
/>
<path fill="#c4f6fe" d="
  M 877.34 756.97
  Q 876.94 757.40 876.39 757.58
  Q 875.90 757.74 875.59 758.16
  C 866.03 771.21 854.38 785.05 841.00 794.27
  L 831.01 794.10
  L 831.02 771.64
  Q 831.02 771.18 831.48 771.14
  Q 843.42 770.00 846.24 758.71
  Q 858.63 755.52 873.75 756.13
  Q 876.28 756.23 877.34 756.97
  Z"
/>
<path fill="#ffffff" d="
  M 877.34 756.97
  L 881.02 757.18
  Q 881.43 757.11 881.67 758.02
  L 880.82 796.22
  L 841.00 794.27
  C 854.38 785.05 866.03 771.21 875.59 758.16
  Q 875.90 757.74 876.39 757.58
  Q 876.94 757.40 877.34 756.97
  Z"
/>
<path fill="#48c1d7" d="
  M 841.00 794.27
  L 880.82 796.22
  L 880.22 815.22
  Q 880.21 815.75 880.74 815.75
  L 890.19 815.76
  Q 891.13 815.76 891.11 814.82
  L 890.82 796.73
  Q 918.44 798.45 945.50 801.20
  C 952.67 801.93 970.32 803.54 975.46 808.53
  A 1.05 1.04 25.6 0 1 975.77 809.40
  C 974.10 822.22 814.01 826.37 795.80 826.86
  Q 804.27 819.72 800.26 811.65
  C 791.68 794.36 766.90 813.09 784.65 827.38
  Q 653.66 830.86 522.94 830.39
  C 435.35 830.07 347.87 829.18 260.31 826.49
  Q 250.77 826.19 240.76 825.59
  L 244.66 820.19
  Q 244.93 819.81 245.39 819.83
  Q 262.45 820.43 279.49 819.78
  C 282.36 819.67 281.81 815.46 280.99 814.25
  L 279.03 799.23
  L 295.05 799.25
  L 293.90 813.91
  Q 293.73 816.83 294.52 818.62
  A 2.19 2.19 0.0 0 0 296.51 819.93
  Q 333.61 820.13 370.25 820.05
  Q 371.48 820.05 372.58 819.56
  Q 373.06 819.35 373.17 818.83
  Q 373.59 816.74 372.63 814.61
  C 371.34 808.92 354.98 803.62 348.29 801.90
  Q 348.98 799.95 347.82 800.28
  L 348.00 799.25
  L 775.01 799.23
  L 775.17 803.30
  Q 775.20 803.99 775.90 804.00
  L 803.99 804.01
  Q 804.48 804.01 804.48 803.52
  L 804.49 799.23
  L 830.30 799.10
  Q 830.92 799.10 830.93 798.48
  L 831.01 794.10
  L 841.00 794.27
  Z"
/>
<path fill="#48c1d7" d="
  M 183.07 794.23
  Q 183.73 795.89 183.53 797.93
  L 183.69 804.99
  C 182.41 803.44 182.96 796.45 183.07 794.23
  Z"
/>
<path fill="#426a8f" d="
  M 248.48 799.13
  L 248.72 803.47
  Q 248.76 804.05 248.18 804.03
  L 230.06 803.41
  L 221.61 804.50
  L 219.12 804.79
  L 218.85 799.31
  L 248.48 799.13
  Z"
/>
<path fill="#426a8f" d="
  M 804.49 799.23
  L 804.48 803.52
  Q 804.48 804.01 803.99 804.01
  L 775.90 804.00
  Q 775.20 803.99 775.17 803.30
  L 775.01 799.23
  Q 789.72 798.73 804.49 799.23
  Z"
/>
<path fill="#ffffff" d="
  M 248.48 799.13
  L 279.03 799.23
  L 280.99 814.25
  L 245.65 814.01
  Q 245.18 814.00 245.02 813.56
  Q 241.60 803.90 230.95 804.83
  C 229.93 804.83 229.53 804.62 230.06 803.41
  L 248.18 804.03
  Q 248.76 804.05 248.72 803.47
  L 248.48 799.13
  Z"
/>
<path fill="#ffffff" d="
  M 295.05 799.25
  L 348.00 799.25
  L 347.82 800.28
  Q 341.88 806.21 338.21 813.78
  Q 337.97 814.27 337.42 814.26
  L 293.90 813.91
  L 295.05 799.25
  Z"
/>
<path fill="#0d2e4b" d="
  M 347.82 800.28
  Q 348.98 799.95 348.29 801.90
  Q 342.76 806.71 339.74 813.72
  Q 339.53 814.21 340.05 814.21
  L 372.63 814.61
  Q 373.59 816.74 373.17 818.83
  Q 373.06 819.35 372.58 819.56
  Q 371.48 820.05 370.25 820.05
  Q 333.61 820.13 296.51 819.93
  A 2.19 2.19 0.0 0 1 294.52 818.62
  Q 293.73 816.83 293.90 813.91
  L 337.42 814.26
  Q 337.97 814.27 338.21 813.78
  Q 341.88 806.21 347.82 800.28
  Z"
/>
<path fill="#ffffff" d="
  M 348.29 801.90
  C 354.98 803.62 371.34 808.92 372.63 814.61
  L 340.05 814.21
  Q 339.53 814.21 339.74 813.72
  Q 342.76 806.71 348.29 801.90
  Z"
/>
<path fill="#c4f6fe" d="
  M 230.06 803.41
  C 229.53 804.62 229.93 804.83 230.95 804.83
  Q 223.55 806.32 221.03 814.69
  Q 219.75 809.77 221.61 804.50
  L 230.06 803.41
  Z"
/>
<path fill="#48c1d7" d="
  M 221.61 804.50
  Q 219.75 809.77 221.03 814.69
  Q 221.66 819.94 224.21 824.44
  Q 184.86 822.33 145.52 818.85
  Q 135.70 817.99 126.27 815.49
  A 0.75 0.75 0.0 0 1 126.14 814.08
  Q 129.25 812.61 133.06 812.02
  Q 147.55 809.78 163.11 808.95
  L 162.32 812.55
  Q 162.13 813.44 163.03 813.45
  L 182.72 813.82
  Q 183.84 813.84 183.79 812.72
  L 183.55 807.29
  Q 201.35 805.95 218.74 805.68
  Q 219.22 805.67 219.28 805.19
  Q 219.31 804.99 219.12 804.79
  L 221.61 804.50
  Z"
/>
<path fill="#0d2e4b" d="
  M 280.99 814.25
  C 281.81 815.46 282.36 819.67 279.49 819.78
  Q 262.45 820.43 245.39 819.83
  Q 244.93 819.81 244.66 820.19
  L 240.76 825.59
  Q 232.44 831.05 224.21 824.44
  Q 221.66 819.94 221.03 814.69
  Q 223.55 806.32 230.95 804.83
  Q 241.60 803.90 245.02 813.56
  Q 245.18 814.00 245.65 814.01
  L 280.99 814.25
  Z"
/>
<path fill="#0d2e4b" d="
  M 795.80 826.86
  Q 790.71 829.18 784.65 827.38
  C 766.90 813.09 791.68 794.36 800.26 811.65
  Q 804.27 819.72 795.80 826.86
  Z"
/>
</svg>
