<?xml version="1.0" encoding="UTF-8" standalone="no"?>
<!DOCTYPE svg PUBLIC "-//W3C//DTD SVG 1.1//EN" "http://www.w3.org/Graphics/SVG/1.1/DTD/svg11.dtd">
<svg xmlns="http://www.w3.org/2000/svg" version="1.1" viewBox="0.00 0.00 1024.00 1024.00">
<g stroke-width="2.00" fill="none" stroke-linecap="butt">
<path stroke="#898990" vector-effect="non-scaling-stroke" d="
  M 315.20 205.34
  Q 296.77 205.91 278.31 205.75
  C 266.23 205.64 258.87 212.36 258.61 224.56
  Q 258.44 232.25 258.46 240.19"
/>
<path stroke="#d6edf1" vector-effect="non-scaling-stroke" d="
  M 258.46 240.19
  C 255.21 240.53 254.38 241.97 252.10 243.74
  C 193.60 289.02 147.39 349.48 125.98 420.94
  C 118.61 445.55 113.28 469.97 111.83 496.24
  C 110.37 522.63 111.17 548.41 115.61 573.86
  Q 126.48 636.19 158.90 690.43"
/>
<path stroke="#c0d3da" vector-effect="non-scaling-stroke" d="
  M 158.90 690.43
  C 194.32 751.37 248.65 804.08 310.26 838.19"
/>
<path stroke="#d6edf1" vector-effect="non-scaling-stroke" d="
  M 310.26 838.19
  C 385.72 880.82 478.32 901.07 566.25 890.36"
/>
<path stroke="#c0d3da" vector-effect="non-scaling-stroke" d="
  M 566.25 890.36
  Q 661.67 879.02 743.69 829.19
  Q 758.68 820.08 781.32 802.74"
/>
<path stroke="#e7e7ea" vector-effect="non-scaling-stroke" d="
  M 781.32 802.74
  L 817.11 802.89
  Q 817.67 802.89 817.68 802.33
  Q 817.93 787.52 817.61 772.96
  Q 817.56 770.83 816.97 769.03"
/>
<path stroke="#c0d3da" vector-effect="non-scaling-stroke" d="
  M 816.97 769.03
  C 818.04 767.27 819.07 765.69 820.50 764.10
  C 870.11 709.32 903.47 641.89 913.06 568.29"
/>
<path stroke="#d6edf1" vector-effect="non-scaling-stroke" d="
  M 913.06 568.29
  Q 921.95 501.09 903.09 436.48"
/>
<path stroke="#c0d3da" vector-effect="non-scaling-stroke" d="
  M 903.09 436.48
  C 888.03 384.42 861.70 336.96 825.94 296.29
  Q 819.80 289.30 814.12 282.68"
/>
<path stroke="#e7e7ea" vector-effect="non-scaling-stroke" d="
  M 814.12 282.68
  Q 815.83 273.14 814.94 266.57
  C 813.68 257.38 807.25 247.65 798.40 244.19
  C 796.21 243.33 784.83 240.63 784.49 244.46
  C 784.18 248.04 784.39 252.09 787.41 254.59
  C 794.33 260.33 800.22 264.35 807.00 272.13
  Q 807.34 272.52 807.09 272.98
  Q 806.63 273.82 805.43 274.32"
/>
<path stroke="#c0d3da" vector-effect="non-scaling-stroke" d="
  M 805.43 274.32
  Q 796.43 265.96 789.80 258.71
  Q 787.11 255.78 783.74 254.60
  Q 783.29 254.45 783.25 253.97
  L 783.11 251.98"
/>
<path stroke="#898990" vector-effect="non-scaling-stroke" d="
  M 783.11 251.98
  Q 782.94 238.18 782.99 224.31
  C 783.03 212.63 774.55 205.41 763.00 205.57
  Q 746.83 205.81 713.50 205.34"
/>
<path stroke="#d6edf1" vector-effect="non-scaling-stroke" d="
  M 713.50 205.34
  Q 712.50 203.23 709.73 201.80
  C 648.70 170.41 582.32 154.13 513.68 154.93
  C 464.29 155.50 416.44 163.25 369.84 179.52
  C 352.31 185.64 333.94 193.89 318.06 201.80
  Q 316.13 202.75 315.20 205.34"
/>
<path stroke="#607782" vector-effect="non-scaling-stroke" d="
  M 713.50 205.34
  C 699.55 206.09 681.66 205.51 671.75 205.54
  Q 498.71 206.06 325.67 205.43
  C 323.09 205.42 318.71 205.64 315.20 205.34"
/>
<path stroke="#4a5c6b" vector-effect="non-scaling-stroke" d="
  M 783.11 251.98
  L 782.58 259.49"
/>
<path stroke="#71707a" vector-effect="non-scaling-stroke" d="
  M 782.58 259.49
  L 612.64 259.49"
/>
<path stroke="#222331" vector-effect="non-scaling-stroke" d="
  M 612.64 259.49
  Q 612.30 259.29 612.20 259.11
  A 1.15 1.15 0.0 0 1 613.07 257.41
  Q 619.22 256.65 625.50 256.78
  C 676.21 257.78 726.83 257.13 777.51 257.62
  C 782.44 257.67 780.28 254.01 780.60 251.02
  Q 780.88 248.43 780.84 247.35
  Q 780.35 236.15 780.47 224.98
  Q 780.52 220.04 779.34 217.25
  C 775.67 208.57 769.14 207.70 759.77 207.73
  Q 697.04 207.87 634.31 207.41
  C 604.47 207.19 574.64 207.49 544.81 207.34
  Q 429.86 206.74 393.19 207.21
  C 371.23 207.50 353.41 207.17 333.57 207.53
  Q 307.69 208.01 276.75 207.76
  C 269.56 207.70 265.88 211.62 262.29 217.36
  C 260.98 219.45 261.25 221.19 261.19 223.49
  Q 260.78 240.22 260.62 256.87
  Q 260.62 257.32 261.06 257.32
  C 286.99 257.25 312.82 257.32 338.75 257.79
  C 366.55 258.30 394.45 257.59 422.25 257.13
  Q 425.92 257.07 429.51 258.07
  Q 430.02 258.21 429.71 258.64
  Q 429.24 259.28 429.23 259.62"
/>
<path stroke="#71707a" vector-effect="non-scaling-stroke" d="
  M 429.23 259.62
  C 410.21 259.30 390.99 259.78 372.19 259.72
  Q 320.61 259.58 269.03 259.45
  C 267.23 259.45 265.01 259.83 262.90 259.97"
/>
<path stroke="#898990" vector-effect="non-scaling-stroke" d="
  M 262.90 259.97
  L 258.01 259.24"
/>
<path stroke="#607782" vector-effect="non-scaling-stroke" d="
  M 258.01 259.24
  Q 259.13 249.52 258.46 240.19"
/>
<path stroke="#d6edf1" vector-effect="non-scaling-stroke" d="
  M 258.01 259.24
  Q 257.99 494.42 258.00 729.69
  C 258.01 748.72 277.57 746.14 290.50 746.51"
/>
<path stroke="#96c1cc" vector-effect="non-scaling-stroke" d="
  M 290.50 746.51
  Q 290.41 747.17 290.70 747.80
  Q 299.72 767.20 306.34 780.58
  C 310.96 789.93 317.17 794.27 327.79 794.27
  Q 428.92 794.22 530.06 794.27
  C 535.83 794.27 543.06 794.65 549.61 794.46
  Q 550.15 794.44 550.17 794.98
  L 550.52 802.22
  Q 550.55 803.06 551.39 803.07
  Q 572.44 803.54 592.01 803.41
  C 645.02 803.06 698.05 803.23 751.06 803.24
  C 757.86 803.24 768.71 802.75 777.64 803.45
  A 0.45 0.45 0.0 0 1 777.88 804.25
  Q 720.18 849.46 650.10 871.05
  C 642.20 873.49 633.59 876.08 625.93 877.88
  Q 601.37 883.66 592.75 884.73
  Q 580.17 886.29 567.78 888.72
  A 1.65 1.59 16.8 0 0 566.94 889.15
  Q 566.04 890.00 566.25 890.36"
/>
<path stroke="#96c1cc" vector-effect="non-scaling-stroke" d="
  M 310.26 838.19
  Q 310.39 838.06 310.42 837.93
  Q 310.47 837.68 310.24 837.55
  C 256.84 807.39 206.76 762.28 172.83 711.08
  Q 165.98 700.74 158.90 690.43"
/>
<path stroke="#e7e7ea" vector-effect="non-scaling-stroke" d="
  M 455.25 306.76
  C 451.28 310.58 461.99 310.98 463.25 310.98
  Q 532.24 311.02 601.21 310.98
  C 610.03 310.98 614.85 307.63 615.86 298.35
  Q 616.79 289.86 615.74 281.36
  A 1.12 1.08 -78.6 0 0 615.24 280.57
  Q 614.26 279.95 612.79 280.28"
/>
<path stroke="#96c1cc" vector-effect="non-scaling-stroke" d="
  M 903.09 436.48
  C 902.63 436.81 902.38 437.23 902.15 436.46
  C 889.48 393.53 870.19 355.17 843.58 319.17
  Q 832.23 303.81 819.98 291.09
  Q 817.94 288.97 817.97 291.90
  Q 818.53 348.50 817.86 405.00
  Q 817.75 415.03 817.83 425.00
  C 818.34 484.73 817.60 544.45 818.13 604.19
  C 818.59 657.34 818.25 710.61 817.76 763.75
  A 0.70 0.70 0.0 0 0 818.96 764.24
  Q 823.37 759.62 827.51 754.76
  C 856.66 720.53 879.76 682.07 894.60 639.55
  C 896.53 634.03 898.48 627.13 900.49 620.95
  C 905.04 606.99 907.55 592.24 910.30 577.84
  C 910.88 574.80 911.01 570.95 911.88 567.43
  A 0.45 0.40 -39.5 0 1 912.73 567.46
  Q 912.71 567.73 913.06 568.29"
/>
<path stroke="#a8bac5" vector-effect="non-scaling-stroke" d="
  M 816.97 769.03
  Q 800.46 786.94 781.32 802.74"
/>
<path stroke="#c0d3da" vector-effect="non-scaling-stroke" d="
  M 290.50 746.51
  Q 527.58 746.44 764.66 746.56
  Q 770.42 746.56 773.51 745.24
  Q 782.76 741.29 782.94 729.49
  C 783.27 707.14 783.02 688.43 783.04 668.00
  Q 783.23 481.25 782.87 294.50
  C 782.87 291.38 783.16 286.07 782.77 281.83"
/>
<path stroke="#a8bac5" vector-effect="non-scaling-stroke" d="
  M 782.77 281.83
  L 782.58 259.49"
/>
<path stroke="#80818b" vector-effect="non-scaling-stroke" d="
  M 612.64 259.49
  L 612.79 280.28"
/>
<path stroke="#9899a1" vector-effect="non-scaling-stroke" d="
  M 612.79 280.28
  Q 612.34 285.26 612.15 290.36
  C 611.77 300.25 603.25 306.77 593.76 306.76
  Q 524.49 306.74 455.25 306.76"
/>
<path stroke="#80818b" vector-effect="non-scaling-stroke" d="
  M 455.25 306.76
  L 451.30 306.78"
/>
<path stroke="#9899a1" vector-effect="non-scaling-stroke" d="
  M 451.30 306.78
  Q 436.65 306.75 431.63 294.76
  C 429.91 290.66 430.18 285.73 430.23 281.15"
/>
<path stroke="#80818b" vector-effect="non-scaling-stroke" d="
  M 430.23 281.15
  Q 429.86 270.71 429.98 260.00
  Q 429.98 259.76 429.23 259.62"
/>
<path stroke="#e7e7ea" vector-effect="non-scaling-stroke" d="
  M 262.90 259.97
  Q 272.16 271.34 282.49 281.28
  Q 282.83 281.61 283.30 281.66
  Q 286.90 281.99 290.50 282.00
  Q 356.75 282.19 423.00 282.29
  Q 424.49 282.29 430.23 281.15"
/>
<path stroke="#e7e7ea" vector-effect="non-scaling-stroke" d="
  M 451.30 306.78
  Q 451.57 307.47 451.40 307.96
  Q 451.21 308.49 450.66 308.36
  Q 448.41 307.81 446.50 308.79
  A 0.71 0.71 0.0 0 0 446.15 309.65
  C 449.35 318.68 455.91 322.00 465.25 322.15
  C 509.49 322.85 553.71 321.77 597.93 322.57
  C 609.07 322.77 618.35 320.70 623.54 310.21
  C 626.78 303.67 625.66 290.72 625.42 283.34
  Q 625.39 282.38 626.35 282.35
  C 664.33 281.35 697.41 282.53 740.75 282.12
  C 752.05 282.01 768.71 282.57 782.77 281.83"
/>
<path stroke="#a8bac5" vector-effect="non-scaling-stroke" d="
  M 814.12 282.68
  L 805.43 274.32"
/>
<path stroke="#9899a1" vector-effect="non-scaling-stroke" d="
  M 444.70 296.49
  L 447.56 296.78"
/>
<path stroke="#80818b" vector-effect="non-scaling-stroke" d="
  M 447.56 296.78
  L 454.77 296.70"
/>
<path stroke="#9899a1" vector-effect="non-scaling-stroke" d="
  M 454.77 296.70
  Q 523.96 297.15 593.18 297.01
  C 603.19 296.99 602.85 290.03 602.70 282.40"
/>
<path stroke="#80818b" vector-effect="non-scaling-stroke" d="
  M 602.70 282.40
  L 602.63 259.30"
/>
<path stroke="#222331" vector-effect="non-scaling-stroke" d="
  M 602.63 259.30
  C 603.64 257.02 597.46 256.98 595.62 257.00
  Q 523.31 258.03 451.00 256.90
  C 447.34 256.85 443.68 257.37 440.06 257.80
  C 436.76 258.18 436.99 265.52 437.04 267.86
  Q 437.22 277.20 437.01 286.54
  C 436.91 290.53 437.71 296.30 442.31 297.44
  Q 444.59 298.00 444.70 296.49"
/>
<path stroke="#71707a" vector-effect="non-scaling-stroke" d="
  M 602.63 259.30
  C 592.54 259.91 581.11 259.54 572.75 259.53
  Q 508.27 259.43 443.27 259.55"
/>
<path stroke="#898990" vector-effect="non-scaling-stroke" d="
  M 443.27 259.55
  L 440.08 259.77
  Q 439.52 259.81 439.50 260.37
  C 439.24 269.15 439.87 275.75 439.59 287.23
  Q 439.42 294.13 444.70 296.49"
/>
<path stroke="#e7e7ea" vector-effect="non-scaling-stroke" d="
  M 602.70 282.40
  L 456.23 282.48
  Q 455.68 282.48 455.71 283.03
  Q 456.07 290.00 454.77 296.70"
/>
<path stroke="#e7e7ea" vector-effect="non-scaling-stroke" d="
  M 447.56 296.78
  Q 445.67 290.06 443.68 283.28
  Q 442.40 278.91 442.35 274.97
  Q 442.27 267.09 443.27 259.55"
/>
<path stroke="#898990" vector-effect="non-scaling-stroke" d="
  M 714.47 341.61
  A 0.27 0.27 0.0 0 0 714.20 341.34
  L 325.72 341.34
  A 0.27 0.27 0.0 0 0 325.45 341.61
  L 325.45 347.23
  A 0.27 0.27 0.0 0 0 325.72 347.50
  L 714.20 347.50
  A 0.27 0.27 0.0 0 0 714.47 347.23
  L 714.47 341.61"
/>
<path stroke="#fce3b7" vector-effect="non-scaling-stroke" d="
  M 646.50 362.76
  L 646.71 363.22
  Q 646.91 363.66 646.46 363.86
  Q 640.18 366.55 632.67 372.41
  Q 601.57 396.69 588.44 407.68
  Q 585.92 409.79 579.08 414.05"
/>
<path stroke="#818080" vector-effect="non-scaling-stroke" d="
  M 579.08 414.05
  C 494.44 414.10 409.82 413.57 325.18 414.11
  Q 324.68 414.11 324.46 414.55
  Q 323.86 415.70 324.76 416.54
  Q 325.12 416.87 325.61 416.87
  L 575.97 416.48"
/>
<path stroke="#fce3b7" vector-effect="non-scaling-stroke" d="
  M 575.97 416.48
  C 576.46 417.20 576.42 417.89 575.65 418.41
  Q 567.33 424.05 561.48 431.24
  Q 558.80 434.53 560.50 438.79"
/>
<path stroke="#898990" vector-effect="non-scaling-stroke" d="
  M 560.50 438.79
  C 535.78 438.29 511.31 438.80 486.75 438.70
  Q 406.27 438.40 325.78 438.52
  Q 325.33 438.52 325.32 438.97
  L 325.26 444.02
  Q 325.25 444.76 325.99 444.76
  L 563.44 444.79"
/>
<path stroke="#ddad89" vector-effect="non-scaling-stroke" d="
  M 563.44 444.79
  Q 564.42 446.05 567.58 447.06"
/>
<path stroke="#818080" vector-effect="non-scaling-stroke" d="
  M 567.58 447.06
  Q 545.23 466.15 523.14 483.07"
/>
<path stroke="#898990" vector-effect="non-scaling-stroke" d="
  M 523.14 483.07
  L 326.03 482.99
  Q 325.50 482.99 325.50 483.52
  L 325.50 488.48
  Q 325.50 488.99 326.01 488.99
  L 516.20 488.95"
/>
<path stroke="#818080" vector-effect="non-scaling-stroke" d="
  M 516.20 488.95
  L 505.03 498.66
  Q 504.62 499.01 504.08 499.01
  L 324.75 498.99
  Q 324.05 498.99 324.05 499.69
  L 324.05 501.08
  Q 324.05 501.67 324.64 501.70
  Q 328.20 501.86 331.75 501.87
  Q 416.09 502.11 500.20 501.89
  Q 501.05 501.89 500.39 502.42
  L 473.02 524.53"
/>
<path stroke="#898990" vector-effect="non-scaling-stroke" d="
  M 473.02 524.53
  C 466.06 524.01 457.89 524.47 452.74 524.48
  Q 389.32 524.60 325.87 524.39
  Q 325.24 524.39 325.24 525.02
  L 325.26 529.99
  Q 325.26 530.49 325.76 530.49
  C 372.66 530.51 419.90 531.53 466.75 529.87"
/>
<path stroke="#818080" vector-effect="non-scaling-stroke" d="
  M 466.75 529.87
  L 403.19 581.80
  Q 402.75 582.16 402.18 582.16
  L 324.55 582.29
  Q 323.92 582.29 323.74 582.88
  C 323.34 584.17 324.20 584.62 325.38 584.64
  Q 361.81 585.14 398.26 584.79
  Q 399.06 584.78 398.52 585.36
  Q 397.62 586.32 395.83 587.83
  Q 384.25 597.55 372.46 607.00
  Q 372.03 607.34 371.48 607.34
  L 325.96 607.08
  Q 325.50 607.07 325.50 607.54
  L 325.50 612.72
  Q 325.50 613.14 325.92 613.15
  Q 345.42 613.64 364.89 612.64
  A 0.15 0.15 0.0 0 1 365.00 612.91
  C 354.85 621.27 343.61 629.65 335.17 639.64
  Q 318.46 659.41 305.17 681.67
  C 302.52 686.10 300.92 690.94 297.96 695.14
  Q 296.28 697.52 294.54 700.33
  A 2.32 2.32 0.0 0 0 294.62 702.88
  Q 295.48 704.08 297.66 703.27
  C 309.71 698.76 321.85 694.59 333.94 690.20
  Q 346.76 685.54 371.68 672.66
  Q 375.14 670.87 384.78 661.54
  A 1.28 1.23 22.7 0 1 385.68 661.19
  L 395.75 661.51"
/>
<path stroke="#e7e7ea" vector-effect="non-scaling-stroke" d="
  M 395.75 661.51
  Q 395.66 662.88 395.04 663.88
  Q 394.70 664.42 394.06 664.38
  L 386.49 663.82
  Q 386.01 663.78 385.64 664.10
  Q 376.93 671.70 373.55 673.54
  Q 351.34 685.67 327.64 694.55
  C 318.55 697.95 309.66 711.39 304.36 719.24
  A 1.04 1.04 0.0 0 0 305.41 720.85
  Q 310.87 719.85 316.43 720.33
  A 1.88 1.85 -54.1 0 0 317.39 720.17
  C 321.10 718.48 325.61 718.57 328.42 718.04
  Q 363.68 711.39 392.04 693.03
  Q 401.69 686.79 415.65 675.42
  C 420.88 671.16 428.72 666.79 432.02 661.48"
/>
<path stroke="#818080" vector-effect="non-scaling-stroke" d="
  M 432.02 661.48
  L 714.61 661.38
  Q 715.07 661.38 715.46 661.14
  Q 716.51 660.49 715.59 659.29
  A 1.50 1.49 71.0 0 0 714.41 658.71
  L 437.95 658.25"
/>
<path stroke="#e7e7ea" vector-effect="non-scaling-stroke" d="
  M 437.95 658.25
  Q 437.33 656.76 438.98 655.70
  Q 447.11 650.46 454.43 644.99"
/>
<path stroke="#898990" vector-effect="non-scaling-stroke" d="
  M 454.43 644.99
  L 693.10 644.84
  Q 693.50 644.84 693.50 644.44
  L 693.50 639.51
  Q 693.50 638.97 692.96 638.97
  C 615.66 639.02 538.28 639.63 461.00 638.63"
/>
<path stroke="#e7e7ea" vector-effect="non-scaling-stroke" d="
  M 461.00 638.63
  Q 477.75 626.43 493.48 613.47"
/>
<path stroke="#898990" vector-effect="non-scaling-stroke" d="
  M 493.48 613.47
  C 502.58 612.91 513.63 613.59 520.84 613.56
  Q 617.53 613.14 714.22 613.29
  Q 714.75 613.29 714.75 612.75
  L 714.75 607.83
  A 0.58 0.58 0.0 0 0 714.17 607.25
  L 497.77 607.03"
/>
<path stroke="#e7e7ea" vector-effect="non-scaling-stroke" d="
  M 497.77 607.03
  Q 497.37 606.72 496.65 606.66
  Q 496.16 606.62 496.23 606.13
  L 496.34 605.29
  A 0.64 0.64 0.0 0 1 497.16 604.76
  Q 501.11 605.97 503.91 604.17
  Q 514.68 597.23 524.73 588.65
  A 0.39 0.38 -66.2 0 0 524.47 587.97
  Q 512.33 588.36 499.97 588.25
  C 495.81 588.21 482.35 586.38 478.00 589.40
  C 473.78 592.34 461.13 601.00 459.89 605.68
  A 0.72 0.72 0.0 0 1 459.27 606.21
  Q 457.88 606.34 457.22 607.20"
/>
<path stroke="#898990" vector-effect="non-scaling-stroke" d="
  M 457.22 607.20
  L 453.01 606.81"
/>
<path stroke="#818080" vector-effect="non-scaling-stroke" d="
  M 453.01 606.81
  Q 465.92 596.25 478.30 585.80
  C 479.72 584.60 480.72 585.30 482.04 585.30
  Q 569.62 584.96 657.19 585.00
  Q 686.45 585.02 715.68 584.61
  A 0.56 0.55 6.0 0 0 716.21 584.19
  C 716.57 582.74 715.86 582.35 714.57 582.34
  Q 635.57 581.79 556.57 582.23
  C 532.11 582.37 507.79 581.41 483.26 582.12
  Q 482.69 582.14 483.13 581.78
  L 546.30 530.50"
/>
<path stroke="#898990" vector-effect="non-scaling-stroke" d="
  M 546.30 530.50
  Q 547.47 531.08 547.40 530.84"
/>
<path stroke="#e7e7ea" vector-effect="non-scaling-stroke" d="
  M 547.40 530.84
  L 552.47 531.41
  Q 552.95 531.47 552.89 531.95
  L 552.71 533.28
  A 0.62 0.62 0.0 0 1 551.96 533.80
  Q 549.92 533.32 547.80 533.18
  Q 547.30 533.15 546.88 533.42
  Q 546.07 533.91 545.00 534.75
  Q 524.41 550.88 509.31 563.41
  C 504.02 567.80 496.46 573.58 490.32 579.05
  A 0.37 0.36 -66.5 0 0 490.57 579.69
  Q 509.96 579.10 529.57 579.96
  C 531.97 580.06 535.77 579.51 537.27 578.29
  Q 565.79 555.17 595.01 532.95
  A 1.56 1.53 80.9 0 0 595.54 532.20
  L 596.01 530.78"
/>
<path stroke="#898990" vector-effect="non-scaling-stroke" d="
  M 596.01 530.78
  L 714.21 530.46
  Q 714.75 530.46 714.75 529.92
  L 714.75 524.85
  Q 714.75 524.36 714.25 524.36
  Q 653.48 524.83 608.32 524.15
  Q 592.02 523.90 583.51 524.16"
/>
<path stroke="#9899a1" vector-effect="non-scaling-stroke" d="
  M 583.51 524.16
  L 562.52 524.05
  Q 562.09 524.05 561.78 523.75
  Q 560.81 522.83 559.58 523.46
  Q 559.29 523.61 558.98 523.71
  L 556.68 524.43"
/>
<path stroke="#898990" vector-effect="non-scaling-stroke" d="
  M 556.68 524.43
  L 555.03 524.76"
/>
<path stroke="#c0d3da" vector-effect="non-scaling-stroke" d="
  M 555.03 524.76
  Q 554.60 524.87 554.40 524.43"
/>
<path stroke="#818080" vector-effect="non-scaling-stroke" d="
  M 554.40 524.43
  L 581.04 502.46
  Q 581.45 502.12 581.98 502.12
  L 589.74 502.07"
/>
<path stroke="#e7e7ea" vector-effect="non-scaling-stroke" d="
  M 589.74 502.07
  L 590.41 502.47
  Q 590.79 502.70 590.71 503.13
  L 590.55 503.90
  Q 590.44 504.46 589.86 504.45
  L 582.45 504.29
  A 1.30 1.28 -63.5 0 0 581.61 504.58
  L 562.29 520.26
  A 0.95 0.95 0.0 0 0 562.90 521.95
  C 577.56 521.86 592.87 520.78 607.77 522.19
  A 1.76 1.71 33.6 0 0 608.73 522.01
  Q 613.87 519.40 619.60 515.11
  Q 628.45 508.46 634.89 502.02"
/>
<path stroke="#818080" vector-effect="non-scaling-stroke" d="
  M 634.89 502.02
  L 715.63 501.44
  Q 716.21 501.43 716.25 500.86
  C 716.33 499.77 715.57 499.27 714.49 499.27
  Q 659.76 499.01 605.02 498.60
  C 599.09 498.56 592.41 498.85 586.18 498.77
  Q 585.12 498.76 585.95 498.10
  L 651.44 445.35"
/>
<path stroke="#e7e7ea" vector-effect="non-scaling-stroke" d="
  M 651.44 445.35
  Q 652.67 446.13 651.99 446.73
  Q 626.19 469.94 596.43 492.13
  C 595.27 492.99 594.05 494.24 593.21 495.18
  Q 591.63 496.95 594.00 496.83
  Q 617.39 495.72 639.51 497.10
  Q 641.14 497.20 642.45 496.20
  Q 671.00 474.40 698.25 450.99
  C 700.18 449.33 701.24 447.62 702.59 445.52
  A 1.11 1.08 11.0 0 1 703.34 445.03
  L 705.27 444.75"
/>
<path stroke="#898990" vector-effect="non-scaling-stroke" d="
  M 705.27 444.75
  L 713.82 445.05
  A 0.65 0.65 0.0 0 0 714.50 444.44
  L 714.83 439.35
  A 0.66 0.66 0.0 0 0 714.17 438.64
  L 658.95 438.47"
/>
<path stroke="#818080" vector-effect="non-scaling-stroke" d="
  M 658.95 438.47
  L 682.04 417.81
  Q 682.43 417.47 682.94 417.45
  Q 698.72 417.08 714.50 417.30
  Q 715.06 417.31 715.31 416.82
  Q 715.81 415.87 715.23 413.86"
/>
<path stroke="#e7e7ea" vector-effect="non-scaling-stroke" d="
  M 715.23 413.86
  Q 720.28 400.61 712.83 387.18
  C 711.89 385.50 705.39 376.54 703.98 379.67
  Q 703.89 379.88 704.11 379.95
  L 704.40 380.05
  Q 704.74 380.16 704.74 380.52
  C 704.70 389.31 698.10 399.10 692.23 405.73
  Q 691.90 406.10 691.97 406.60
  Q 692.32 408.93 691.04 410.90
  A 0.67 0.67 0.0 0 0 691.57 411.94
  L 701.91 412.37
  Q 702.38 412.38 702.49 412.84
  Q 702.61 413.34 702.48 413.90"
/>
<path stroke="#818080" vector-effect="non-scaling-stroke" d="
  M 702.48 413.90
  L 686.20 413.84
  Q 685.42 413.83 685.95 413.27
  C 687.25 411.87 692.89 408.16 689.27 406.16
  A 0.65 0.65 0.0 0 1 689.32 404.99
  C 691.61 404.01 692.23 402.62 693.65 400.80
  C 699.63 393.18 703.96 384.83 701.93 375.61
  C 699.55 364.76 690.20 360.01 679.37 361.49"
/>
<path stroke="#898990" vector-effect="non-scaling-stroke" d="
  M 679.37 361.49
  L 680.25 357.32
  A 0.67 0.67 0.0 0 0 679.59 356.51
  C 567.76 356.48 455.96 356.21 344.16 356.68
  C 339.01 356.70 331.90 356.34 325.73 356.55
  Q 325.36 356.56 325.36 356.94
  L 325.49 362.33
  Q 325.50 362.76 325.93 362.76
  L 646.50 362.76"
/>
<path stroke="#0b0a11" vector-effect="non-scaling-stroke" d="
  M 679.37 361.49
  Q 678.78 362.94 676.75 362.44"
/>
<path stroke="#898990" vector-effect="non-scaling-stroke" d="
  M 676.75 362.44
  Q 676.81 362.01 676.50 362.04
  Q 668.34 362.86 660.28 362.49"
/>
<path stroke="#866d47" vector-effect="non-scaling-stroke" d="
  M 660.28 362.49
  Q 653.42 361.89 646.50 362.76"
/>
<path stroke="#ddad89" vector-effect="non-scaling-stroke" d="
  M 661.89 368.97
  L 659.96 363.71"
/>
<path stroke="#fce3b7" vector-effect="non-scaling-stroke" d="
  M 659.96 363.71
  Q 659.28 363.26 660.28 362.49"
/>
<path stroke="#69686b" vector-effect="non-scaling-stroke" d="
  M 702.48 413.90
  L 715.23 413.86"
/>
<path stroke="#0b0a11" vector-effect="non-scaling-stroke" d="
  M 658.95 438.47
  Q 654.22 440.53 653.67 444.12"
/>
<path stroke="#69686b" vector-effect="non-scaling-stroke" d="
  M 653.67 444.12
  L 651.44 445.35"
/>
<path stroke="#69686b" vector-effect="non-scaling-stroke" d="
  M 634.89 502.02
  L 589.74 502.07"
/>
<path stroke="#41545b" vector-effect="non-scaling-stroke" d="
  M 554.40 524.43
  L 552.42 525.80"
/>
<path stroke="#0b0a11" vector-effect="non-scaling-stroke" d="
  M 552.42 525.80
  L 549.22 527.07
  A 1.00 1.00 0.0 0 0 548.62 527.79
  Q 548.13 530.21 546.30 530.50"
/>
<path stroke="#0b0a11" vector-effect="non-scaling-stroke" d="
  M 453.01 606.81
  Q 448.08 607.62 446.33 612.82"
/>
<path stroke="#818080" vector-effect="non-scaling-stroke" d="
  M 446.33 612.82
  Q 443.71 614.39 437.69 619.19
  Q 425.91 628.57 414.13 638.29"
/>
<path stroke="#0b0a11" vector-effect="non-scaling-stroke" d="
  M 414.13 638.29
  Q 407.97 640.04 405.74 645.16"
/>
<path stroke="#69686b" vector-effect="non-scaling-stroke" d="
  M 405.74 645.16
  L 389.88 657.56
  Q 389.11 658.16 390.08 658.16
  L 437.95 658.25"
/>
<path stroke="#69686b" vector-effect="non-scaling-stroke" d="
  M 432.02 661.48
  L 395.75 661.51"
/>
<path stroke="#0b0a11" vector-effect="non-scaling-stroke" d="
  M 466.75 529.87
  Q 469.69 529.98 471.27 527.16
  Q 471.51 526.74 471.49 526.25
  Q 471.44 524.57 473.02 524.53"
/>
<path stroke="#0b0a11" vector-effect="non-scaling-stroke" d="
  M 516.20 488.95
  L 518.67 488.36
  Q 519.16 488.25 519.51 488.61
  Q 519.83 488.95 519.75 489.47"
/>
<path stroke="#1a1a22" vector-effect="non-scaling-stroke" d="
  M 519.75 489.47
  C 512.34 496.46 501.84 504.20 496.33 508.75
  C 465.39 534.33 436.38 557.72 406.48 582.25
  Q 405.25 583.26 402.24 585.40
  C 399.02 587.68 395.06 591.53 393.19 593.08
  Q 383.00 601.57 372.82 610.08
  C 369.90 612.52 366.67 614.29 364.19 616.52
  Q 353.77 625.90 342.96 634.98
  Q 342.49 635.37 342.87 635.84
  C 344.77 638.15 347.76 640.62 349.19 642.18
  Q 360.87 654.92 371.16 668.69
  A 0.89 0.89 0.0 0 0 372.49 668.80
  C 378.27 663.28 385.17 658.26 390.84 653.41
  C 398.94 646.49 408.03 640.52 415.81 633.81
  Q 428.63 622.77 442.15 612.60
  C 454.82 603.08 466.17 591.98 478.78 582.28
  C 483.55 578.62 489.52 572.88 494.76 568.62
  Q 524.96 544.10 539.98 532.23
  C 543.53 529.43 547.99 527.12 551.49 523.99
  Q 563.93 512.86 576.84 502.28
  C 578.66 500.79 581.04 499.44 583.02 497.76
  Q 604.22 479.78 626.25 462.21
  A 0.59 0.58 50.2 0 0 626.32 461.36
  C 616.11 449.88 606.50 437.66 595.19 427.84
  A 1.13 1.12 44.0 0 0 593.70 427.86
  C 571.72 447.94 547.93 466.74 525.28 485.30"
/>
<path stroke="#0b0a11" vector-effect="non-scaling-stroke" d="
  M 525.28 485.30
  L 524.22 485.45
  Q 523.72 485.52 523.30 485.27
  Q 521.72 484.32 523.14 483.07"
/>
<path stroke="#5e2e0a" vector-effect="non-scaling-stroke" d="
  M 567.58 447.06
  L 571.06 443.59"
/>
<path stroke="#7e5420" vector-effect="non-scaling-stroke" d="
  M 571.06 443.59
  Q 582.11 434.46 592.86 424.97
  C 606.31 413.09 620.70 402.27 634.30 390.48"
/>
<path stroke="#5e2e0a" vector-effect="non-scaling-stroke" d="
  M 634.30 390.48
  Q 643.28 383.80 651.21 376.02
  A 0.73 0.73 0.0 0 1 651.91 375.84
  Q 652.71 376.05 652.47 376.69"
/>
<path stroke="#7d6438" vector-effect="non-scaling-stroke" d="
  M 652.47 376.69
  Q 629.95 397.64 605.90 416.88
  Q 604.71 417.83 603.44 418.75
  Q 603.02 419.05 603.37 419.43
  L 623.79 442.25"
/>
<path stroke="#7e5420" vector-effect="non-scaling-stroke" d="
  M 623.79 442.25
  L 626.82 445.78"
/>
<path stroke="#7a3224" vector-effect="non-scaling-stroke" d="
  M 626.82 445.78
  L 634.15 454.55
  Q 634.65 455.15 635.23 454.63
  L 685.24 409.91
  Q 685.63 409.57 685.28 409.19
  L 653.76 374.51"
/>
<path stroke="#5e2e0a" vector-effect="non-scaling-stroke" d="
  M 653.76 374.51
  Q 656.99 370.63 661.89 368.97"
/>
<path stroke="#818080" vector-effect="non-scaling-stroke" d="
  M 661.89 368.97
  C 666.00 367.28 672.70 362.88 676.75 362.44"
/>
<path stroke="#d99141" vector-effect="non-scaling-stroke" d="
  M 659.96 363.71
  Q 654.44 363.41 653.02 364.24
  Q 639.50 372.15 623.69 384.94
  Q 588.82 413.17 571.28 428.03
  Q 567.34 431.38 563.58 437.06
  Q 563.31 437.47 563.45 437.94
  L 564.70 442.19
  Q 564.85 442.68 564.34 442.76
  Q 563.98 442.82 563.49 442.72"
/>
<path stroke="#866d47" vector-effect="non-scaling-stroke" d="
  M 563.49 442.72
  Q 561.40 441.23 560.50 438.79"
/>
<path stroke="#7d6438" vector-effect="non-scaling-stroke" d="
  M 575.97 416.48
  Q 580.33 416.12 579.08 414.05"
/>
<path stroke="#d65e2d" vector-effect="non-scaling-stroke" d="
  M 653.76 374.51
  L 653.01 376.34"
/>
<path stroke="#d99141" vector-effect="non-scaling-stroke" d="
  M 653.01 376.34
  Q 652.77 376.77 652.47 376.69"
/>
<path stroke="#da8129" vector-effect="non-scaling-stroke" d="
  M 634.30 390.48
  L 632.55 388.95
  Q 632.12 388.57 631.70 388.96
  Q 626.01 394.16 620.16 399.17
  C 616.77 402.08 613.04 406.03 609.15 409.14
  C 595.91 419.71 583.45 431.24 570.48 442.15
  Q 570.02 442.53 570.44 442.95
  L 571.06 443.59"
/>
<path stroke="#67361a" vector-effect="non-scaling-stroke" d="
  M 563.44 444.79
  Q 565.04 445.02 563.49 442.72"
/>
<path stroke="#f68543" vector-effect="non-scaling-stroke" d="
  M 626.82 445.78
  C 642.18 430.64 656.14 420.12 675.23 402.50
  Q 675.60 402.15 675.30 401.75
  Q 669.45 393.83 661.89 386.82"
/>
<path stroke="#f5955b" vector-effect="non-scaling-stroke" d="
  M 661.89 386.82
  L 656.58 380.45"
/>
<path stroke="#f68543" vector-effect="non-scaling-stroke" d="
  M 656.58 380.45
  Q 656.33 379.65 655.24 379.21"
/>
<path stroke="#f5955b" vector-effect="non-scaling-stroke" d="
  M 655.24 379.21
  L 653.01 376.34"
/>
<path stroke="#71707a" vector-effect="non-scaling-stroke" d="
  M 493.48 613.47
  L 447.21 613.27"
/>
<path stroke="#898990" vector-effect="non-scaling-stroke" d="
  M 447.21 613.27
  L 446.33 612.82"
/>
<path stroke="#e7e7ea" vector-effect="non-scaling-stroke" d="
  M 447.21 613.27
  Q 447.72 614.01 447.59 614.68
  A 0.78 0.77 87.5 0 1 447.04 615.28
  Q 445.87 615.61 445.57 615.83
  Q 433.76 624.71 422.42 634.16
  Q 420.62 635.66 419.83 637.80
  Q 419.70 638.14 419.35 638.21
  Q 419.07 638.27 418.98 638.45"
/>
<path stroke="#9899a1" vector-effect="non-scaling-stroke" d="
  M 418.98 638.45
  Q 417.92 638.15 416.46 638.70"
/>
<path stroke="#898990" vector-effect="non-scaling-stroke" d="
  M 416.46 638.70
  Q 414.31 639.02 414.13 638.29"
/>
<path stroke="#222331" vector-effect="non-scaling-stroke" d="
  M 519.75 489.47
  L 525.28 485.30"
/>
<path stroke="#71707a" vector-effect="non-scaling-stroke" d="
  M 596.01 530.78
  L 547.40 530.84"
/>
<path stroke="#4a5c6b" vector-effect="non-scaling-stroke" d="
  M 552.42 525.80
  Q 553.36 526.09 555.03 524.76"
/>
<path stroke="#222331" vector-effect="non-scaling-stroke" d="
  M 416.46 638.70
  C 418.78 639.63 423.78 638.72 426.29 638.81"
/>
<path stroke="#71707a" vector-effect="non-scaling-stroke" d="
  M 454.43 644.99
  L 405.74 645.16"
/>
<path stroke="#71707a" vector-effect="non-scaling-stroke" d="
  M 705.27 444.75
  Q 680.23 444.75 655.25 444.75
  Q 654.79 444.75 653.67 444.12"
/>
<path stroke="#f9b757" vector-effect="non-scaling-stroke" d="
  M 655.24 379.21
  Q 653.13 382.19 650.18 384.43
  C 644.23 388.96 638.17 393.25 632.51 398.14
  Q 620.57 408.46 608.28 418.40
  C 607.10 419.35 605.94 421.01 607.84 421.97
  C 609.34 422.73 610.46 421.56 611.61 420.56
  Q 628.92 405.57 655.56 381.81
  Q 656.37 381.09 656.58 380.45"
/>
<path stroke="#f9b757" vector-effect="non-scaling-stroke" d="
  M 661.89 386.82
  L 614.26 425.65
  Q 612.63 426.98 614.07 428.53
  L 624.75 439.93
  Q 625.13 440.33 625.10 440.89
  Q 625.04 442.10 623.79 442.25"
/>
<path stroke="#71707a" vector-effect="non-scaling-stroke" d="
  M 461.00 638.63
  L 426.29 638.81"
/>
<path stroke="#80818b" vector-effect="non-scaling-stroke" d="
  M 426.29 638.81
  L 418.98 638.45"
/>
<path stroke="#71707a" vector-effect="non-scaling-stroke" d="
  M 497.77 607.03
  L 457.22 607.20"
/>
<path stroke="#222331" vector-effect="non-scaling-stroke" d="
  M 583.51 524.16
  C 575.56 524.29 566.19 523.28 558.52 525.28
  Q 557.24 525.62 556.68 524.43"
/>
<path stroke="#e7e7ea" vector-effect="non-scaling-stroke" d="
  M 669.26 435.57
  C 677.20 435.52 684.91 436.58 692.76 435.98
  Q 695.60 435.77 702.11 436.72
  Q 702.64 436.80 703.02 436.41
  Q 709.80 429.49 712.98 420.29
  Q 713.12 419.88 712.69 419.92
  C 703.15 420.82 693.66 419.65 684.10 419.59
  Q 683.54 419.59 683.10 419.92
  Q 675.07 426.01 668.36 433.58
  A 1.20 1.19 -69.4 0 0 669.26 435.57"
/>
<path stroke="#7d6438" vector-effect="non-scaling-stroke" d="
  M 661.26 373.25
  L 659.89 373.25
  A 0.37 0.37 0.0 0 0 659.60 373.86
  Q 672.16 388.85 686.01 402.66
  A 0.54 0.52 -46.5 0 0 686.78 402.63
  C 692.06 396.70 698.57 387.54 698.54 379.43
  Q 698.51 369.07 688.74 365.86
  C 679.70 362.88 669.40 369.32 662.28 373.00
  Q 661.80 373.25 661.26 373.25"
/>
<path stroke="#7d6438" vector-effect="non-scaling-stroke" d="
  M 631.11 457.81
  L 599.88 422.26
  A 0.28 0.28 0.0 0 0 599.48 422.23
  L 598.67 422.95
  A 1.26 0.25 -41.3 0 0 597.89 423.97
  L 629.16 459.56
  A 1.26 0.25 -41.3 0 0 630.27 458.92
  L 631.08 458.21
  A 0.28 0.28 0.0 0 0 631.11 457.81"
/>
<path stroke="#7a3224" vector-effect="non-scaling-stroke" d="
  M 307.24 692.27
  L 310.72 695.66
  Q 311.10 696.02 311.60 695.85
  Q 324.78 691.16 337.54 685.52"
/>
<path stroke="#7d6438" vector-effect="non-scaling-stroke" d="
  M 337.54 685.52
  Q 353.06 678.87 368.00 670.93
  A 0.96 0.96 0.0 0 0 368.30 669.49
  Q 355.49 653.35 341.46 638.26
  A 1.17 1.15 44.1 0 0 339.74 638.28
  Q 319.69 661.01 304.29 687.10
  Q 304.02 687.55 304.21 688.05
  Q 305.12 690.50 307.24 692.27"
/>
<path stroke="#f5955b" vector-effect="non-scaling-stroke" d="
  M 337.54 685.52
  L 337.50 684.38
  Q 337.49 683.90 337.90 683.68
  Q 354.94 674.44 360.45 672.45
  Q 363.37 671.39 365.26 670.20
  Q 365.77 669.88 365.48 669.36
  Q 362.49 664.02 357.91 659.49"
/>
<path stroke="#f9b757" vector-effect="non-scaling-stroke" d="
  M 357.91 659.49
  Q 352.86 655.16 349.39 649.34
  A 0.78 0.78 0.0 0 0 348.22 649.15
  C 334.49 660.92 322.05 673.94 308.88 686.29
  C 307.66 687.43 307.80 688.38 308.33 689.81"
/>
<path stroke="#f5955b" vector-effect="non-scaling-stroke" d="
  M 308.33 689.81
  Q 308.05 691.35 307.24 692.27"
/>
<path stroke="#f68543" vector-effect="non-scaling-stroke" d="
  M 357.91 659.49
  C 343.32 669.27 328.68 678.50 313.76 687.77
  Q 312.08 688.81 308.33 689.81"
/>
<path stroke="#f5955b" vector-effect="non-scaling-stroke" d="
  M 674.31 388.59
  L 685.72 399.76
  A 0.91 0.91 0.0 0 0 687.05 399.69
  Q 691.96 393.82 694.93 386.59
  C 696.04 383.89 696.27 380.82 696.84 377.87
  C 697.49 374.49 695.97 373.38 693.51 371.55"
/>
<path stroke="#f9b757" vector-effect="non-scaling-stroke" d="
  M 693.51 371.55
  Q 689.95 368.25 684.35 367.95
  A 0.57 0.57 0.0 0 0 683.77 368.40
  C 683.45 369.83 670.71 377.88 668.25 379.44
  A 1.16 1.16 0.0 0 0 667.98 381.18
  L 674.31 388.59"
/>
<path stroke="#f68543" vector-effect="non-scaling-stroke" d="
  M 693.51 371.55
  Q 683.38 379.41 674.31 388.59"
/>
</g>
<path fill="#ffffff" d="
  M 0.00 0.00
  L 1024.00 0.00
  L 1024.00 1024.00
  L 0.00 1024.00
  L 0.00 0.00
  Z
  M 315.20 205.34
  Q 296.77 205.91 278.31 205.75
  C 266.23 205.64 258.87 212.36 258.61 224.56
  Q 258.44 232.25 258.46 240.19
  C 255.21 240.53 254.38 241.97 252.10 243.74
  C 193.60 289.02 147.39 349.48 125.98 420.94
  C 118.61 445.55 113.28 469.97 111.83 496.24
  C 110.37 522.63 111.17 548.41 115.61 573.86
  Q 126.48 636.19 158.90 690.43
  C 194.32 751.37 248.65 804.08 310.26 838.19
  C 385.72 880.82 478.32 901.07 566.25 890.36
  Q 661.67 879.02 743.69 829.19
  Q 758.68 820.08 781.32 802.74
  L 817.11 802.89
  Q 817.67 802.89 817.68 802.33
  Q 817.93 787.52 817.61 772.96
  Q 817.56 770.83 816.97 769.03
  C 818.04 767.27 819.07 765.69 820.50 764.10
  C 870.11 709.32 903.47 641.89 913.06 568.29
  Q 921.95 501.09 903.09 436.48
  C 888.03 384.42 861.70 336.96 825.94 296.29
  Q 819.80 289.30 814.12 282.68
  Q 815.83 273.14 814.94 266.57
  C 813.68 257.38 807.25 247.65 798.40 244.19
  C 796.21 243.33 784.83 240.63 784.49 244.46
  C 784.18 248.04 784.39 252.09 787.41 254.59
  C 794.33 260.33 800.22 264.35 807.00 272.13
  Q 807.34 272.52 807.09 272.98
  Q 806.63 273.82 805.43 274.32
  Q 796.43 265.96 789.80 258.71
  Q 787.11 255.78 783.74 254.60
  Q 783.29 254.45 783.25 253.97
  L 783.11 251.98
  Q 782.94 238.18 782.99 224.31
  C 783.03 212.63 774.55 205.41 763.00 205.57
  Q 746.83 205.81 713.50 205.34
  Q 712.50 203.23 709.73 201.80
  C 648.70 170.41 582.32 154.13 513.68 154.93
  C 464.29 155.50 416.44 163.25 369.84 179.52
  C 352.31 185.64 333.94 193.89 318.06 201.80
  Q 316.13 202.75 315.20 205.34
  Z"
/>
<path fill="#acdbe3" d="
  M 713.50 205.34
  C 699.55 206.09 681.66 205.51 671.75 205.54
  Q 498.71 206.06 325.67 205.43
  C 323.09 205.42 318.71 205.64 315.20 205.34
  Q 316.13 202.75 318.06 201.80
  C 333.94 193.89 352.31 185.64 369.84 179.52
  C 416.44 163.25 464.29 155.50 513.68 154.93
  C 582.32 154.13 648.70 170.41 709.73 201.80
  Q 712.50 203.23 713.50 205.34
  Z"
/>
<path fill="#131220" d="
  M 315.20 205.34
  C 318.71 205.64 323.09 205.42 325.67 205.43
  Q 498.71 206.06 671.75 205.54
  C 681.66 205.51 699.55 206.09 713.50 205.34
  Q 746.83 205.81 763.00 205.57
  C 774.55 205.41 783.03 212.63 782.99 224.31
  Q 782.94 238.18 783.11 251.98
  L 782.58 259.49
  L 612.64 259.49
  Q 612.30 259.29 612.20 259.11
  A 1.15 1.15 0.0 0 1 613.07 257.41
  Q 619.22 256.65 625.50 256.78
  C 676.21 257.78 726.83 257.13 777.51 257.62
  C 782.44 257.67 780.28 254.01 780.60 251.02
  Q 780.88 248.43 780.84 247.35
  Q 780.35 236.15 780.47 224.98
  Q 780.52 220.04 779.34 217.25
  C 775.67 208.57 769.14 207.70 759.77 207.73
  Q 697.04 207.87 634.31 207.41
  C 604.47 207.19 574.64 207.49 544.81 207.34
  Q 429.86 206.74 393.19 207.21
  C 371.23 207.50 353.41 207.17 333.57 207.53
  Q 307.69 208.01 276.75 207.76
  C 269.56 207.70 265.88 211.62 262.29 217.36
  C 260.98 219.45 261.25 221.19 261.19 223.49
  Q 260.78 240.22 260.62 256.87
  Q 260.62 257.32 261.06 257.32
  C 286.99 257.25 312.82 257.32 338.75 257.79
  C 366.55 258.30 394.45 257.59 422.25 257.13
  Q 425.92 257.07 429.51 258.07
  Q 430.02 258.21 429.71 258.64
  Q 429.24 259.28 429.23 259.62
  C 410.21 259.30 390.99 259.78 372.19 259.72
  Q 320.61 259.58 269.03 259.45
  C 267.23 259.45 265.01 259.83 262.90 259.97
  L 258.01 259.24
  Q 259.13 249.52 258.46 240.19
  Q 258.44 232.25 258.61 224.56
  C 258.87 212.36 266.23 205.64 278.31 205.75
  Q 296.77 205.91 315.20 205.34
  Z"
/>
<path fill="#313342" d="
  M 612.64 259.49
  L 612.79 280.28
  Q 612.34 285.26 612.15 290.36
  C 611.77 300.25 603.25 306.77 593.76 306.76
  Q 524.49 306.74 455.25 306.76
  L 451.30 306.78
  Q 436.65 306.75 431.63 294.76
  C 429.91 290.66 430.18 285.73 430.23 281.15
  Q 429.86 270.71 429.98 260.00
  Q 429.98 259.76 429.23 259.62
  Q 429.24 259.28 429.71 258.64
  Q 430.02 258.21 429.51 258.07
  Q 425.92 257.07 422.25 257.13
  C 394.45 257.59 366.55 258.30 338.75 257.79
  C 312.82 257.32 286.99 257.25 261.06 257.32
  Q 260.62 257.32 260.62 256.87
  Q 260.78 240.22 261.19 223.49
  C 261.25 221.19 260.98 219.45 262.29 217.36
  C 265.88 211.62 269.56 207.70 276.75 207.76
  Q 307.69 208.01 333.57 207.53
  C 353.41 207.17 371.23 207.50 393.19 207.21
  Q 429.86 206.74 544.81 207.34
  C 574.64 207.49 604.47 207.19 634.31 207.41
  Q 697.04 207.87 759.77 207.73
  C 769.14 207.70 775.67 208.57 779.34 217.25
  Q 780.52 220.04 780.47 224.98
  Q 780.35 236.15 780.84 247.35
  Q 780.88 248.43 780.60 251.02
  C 780.28 254.01 782.44 257.67 777.51 257.62
  C 726.83 257.13 676.21 257.78 625.50 256.78
  Q 619.22 256.65 613.07 257.41
  A 1.15 1.15 0.0 0 0 612.20 259.11
  Q 612.30 259.29 612.64 259.49
  Z
  M 444.70 296.49
  L 447.56 296.78
  L 454.77 296.70
  Q 523.96 297.15 593.18 297.01
  C 603.19 296.99 602.85 290.03 602.70 282.40
  L 602.63 259.30
  C 603.64 257.02 597.46 256.98 595.62 257.00
  Q 523.31 258.03 451.00 256.90
  C 447.34 256.85 443.68 257.37 440.06 257.80
  C 436.76 258.18 436.99 265.52 437.04 267.86
  Q 437.22 277.20 437.01 286.54
  C 436.91 290.53 437.71 296.30 442.31 297.44
  Q 444.59 298.00 444.70 296.49
  Z"
/>
<path fill="#acdbe3" d="
  M 258.46 240.19
  Q 259.13 249.52 258.01 259.24
  Q 257.99 494.42 258.00 729.69
  C 258.01 748.72 277.57 746.14 290.50 746.51
  Q 290.41 747.17 290.70 747.80
  Q 299.72 767.20 306.34 780.58
  C 310.96 789.93 317.17 794.27 327.79 794.27
  Q 428.92 794.22 530.06 794.27
  C 535.83 794.27 543.06 794.65 549.61 794.46
  Q 550.15 794.44 550.17 794.98
  L 550.52 802.22
  Q 550.55 803.06 551.39 803.07
  Q 572.44 803.54 592.01 803.41
  C 645.02 803.06 698.05 803.23 751.06 803.24
  C 757.86 803.24 768.71 802.75 777.64 803.45
  A 0.45 0.45 0.0 0 1 777.88 804.25
  Q 720.18 849.46 650.10 871.05
  C 642.20 873.49 633.59 876.08 625.93 877.88
  Q 601.37 883.66 592.75 884.73
  Q 580.17 886.29 567.78 888.72
  A 1.65 1.59 16.8 0 0 566.94 889.15
  Q 566.04 890.00 566.25 890.36
  C 478.32 901.07 385.72 880.82 310.26 838.19
  Q 310.39 838.06 310.42 837.93
  Q 310.47 837.68 310.24 837.55
  C 256.84 807.39 206.76 762.28 172.83 711.08
  Q 165.98 700.74 158.90 690.43
  Q 126.48 636.19 115.61 573.86
  C 111.17 548.41 110.37 522.63 111.83 496.24
  C 113.28 469.97 118.61 445.55 125.98 420.94
  C 147.39 349.48 193.60 289.02 252.10 243.74
  C 254.38 241.97 255.21 240.53 258.46 240.19
  Z"
/>
<path fill="#cfced4" d="
  M 814.12 282.68
  L 805.43 274.32
  Q 806.63 273.82 807.09 272.98
  Q 807.34 272.52 807.00 272.13
  C 800.22 264.35 794.33 260.33 787.41 254.59
  C 784.39 252.09 784.18 248.04 784.49 244.46
  C 784.83 240.63 796.21 243.33 798.40 244.19
  C 807.25 247.65 813.68 257.38 814.94 266.57
  Q 815.83 273.14 814.12 282.68
  Z"
/>
<path fill="#80a6b5" d="
  M 783.11 251.98
  L 783.25 253.97
  Q 783.29 254.45 783.74 254.60
  Q 787.11 255.78 789.80 258.71
  Q 796.43 265.96 805.43 274.32
  L 814.12 282.68
  Q 819.80 289.30 825.94 296.29
  C 861.70 336.96 888.03 384.42 903.09 436.48
  C 902.63 436.81 902.38 437.23 902.15 436.46
  C 889.48 393.53 870.19 355.17 843.58 319.17
  Q 832.23 303.81 819.98 291.09
  Q 817.94 288.97 817.97 291.90
  Q 818.53 348.50 817.86 405.00
  Q 817.75 415.03 817.83 425.00
  C 818.34 484.73 817.60 544.45 818.13 604.19
  C 818.59 657.34 818.25 710.61 817.76 763.75
  A 0.70 0.70 0.0 0 0 818.96 764.24
  Q 823.37 759.62 827.51 754.76
  C 856.66 720.53 879.76 682.07 894.60 639.55
  C 896.53 634.03 898.48 627.13 900.49 620.95
  C 905.04 606.99 907.55 592.24 910.30 577.84
  C 910.88 574.80 911.01 570.95 911.88 567.43
  A 0.45 0.40 -39.5 0 1 912.73 567.46
  Q 912.71 567.73 913.06 568.29
  C 903.47 641.89 870.11 709.32 820.50 764.10
  C 819.07 765.69 818.04 767.27 816.97 769.03
  Q 800.46 786.94 781.32 802.74
  Q 758.68 820.08 743.69 829.19
  Q 661.67 879.02 566.25 890.36
  Q 566.04 890.00 566.94 889.15
  A 1.65 1.59 16.8 0 1 567.78 888.72
  Q 580.17 886.29 592.75 884.73
  Q 601.37 883.66 625.93 877.88
  C 633.59 876.08 642.20 873.49 650.10 871.05
  Q 720.18 849.46 777.88 804.25
  A 0.45 0.45 0.0 0 0 777.64 803.45
  C 768.71 802.75 757.86 803.24 751.06 803.24
  C 698.05 803.23 645.02 803.06 592.01 803.41
  Q 572.44 803.54 551.39 803.07
  Q 550.55 803.06 550.52 802.22
  L 550.17 794.98
  Q 550.15 794.44 549.61 794.46
  C 543.06 794.65 535.83 794.27 530.06 794.27
  Q 428.92 794.22 327.79 794.27
  C 317.17 794.27 310.96 789.93 306.34 780.58
  Q 299.72 767.20 290.70 747.80
  Q 290.41 747.17 290.50 746.51
  Q 527.58 746.44 764.66 746.56
  Q 770.42 746.56 773.51 745.24
  Q 782.76 741.29 782.94 729.49
  C 783.27 707.14 783.02 688.43 783.04 668.00
  Q 783.23 481.25 782.87 294.50
  C 782.87 291.38 783.16 286.07 782.77 281.83
  L 782.58 259.49
  L 783.11 251.98
  Z"
/>
<path fill="#131220" d="
  M 602.63 259.30
  C 592.54 259.91 581.11 259.54 572.75 259.53
  Q 508.27 259.43 443.27 259.55
  L 440.08 259.77
  Q 439.52 259.81 439.50 260.37
  C 439.24 269.15 439.87 275.75 439.59 287.23
  Q 439.42 294.13 444.70 296.49
  Q 444.59 298.00 442.31 297.44
  C 437.71 296.30 436.91 290.53 437.01 286.54
  Q 437.22 277.20 437.04 267.86
  C 436.99 265.52 436.76 258.18 440.06 257.80
  C 443.68 257.37 447.34 256.85 451.00 256.90
  Q 523.31 258.03 595.62 257.00
  C 597.46 256.98 603.64 257.02 602.63 259.30
  Z"
/>
<path fill="#ffffff" d="
  M 258.01 259.24
  L 262.90 259.97
  Q 272.16 271.34 282.49 281.28
  Q 282.83 281.61 283.30 281.66
  Q 286.90 281.99 290.50 282.00
  Q 356.75 282.19 423.00 282.29
  Q 424.49 282.29 430.23 281.15
  C 430.18 285.73 429.91 290.66 431.63 294.76
  Q 436.65 306.75 451.30 306.78
  Q 451.57 307.47 451.40 307.96
  Q 451.21 308.49 450.66 308.36
  Q 448.41 307.81 446.50 308.79
  A 0.71 0.71 0.0 0 0 446.15 309.65
  C 449.35 318.68 455.91 322.00 465.25 322.15
  C 509.49 322.85 553.71 321.77 597.93 322.57
  C 609.07 322.77 618.35 320.70 623.54 310.21
  C 626.78 303.67 625.66 290.72 625.42 283.34
  Q 625.39 282.38 626.35 282.35
  C 664.33 281.35 697.41 282.53 740.75 282.12
  C 752.05 282.01 768.71 282.57 782.77 281.83
  C 783.16 286.07 782.87 291.38 782.87 294.50
  Q 783.23 481.25 783.04 668.00
  C 783.02 688.43 783.27 707.14 782.94 729.49
  Q 782.76 741.29 773.51 745.24
  Q 770.42 746.56 764.66 746.56
  Q 527.58 746.44 290.50 746.51
  C 277.57 746.14 258.01 748.72 258.00 729.69
  Q 257.99 494.42 258.01 259.24
  Z
  M 714.47 341.61
  A 0.27 0.27 0.0 0 0 714.20 341.34
  L 325.72 341.34
  A 0.27 0.27 0.0 0 0 325.45 341.61
  L 325.45 347.23
  A 0.27 0.27 0.0 0 0 325.72 347.50
  L 714.20 347.50
  A 0.27 0.27 0.0 0 0 714.47 347.23
  L 714.47 341.61
  Z
  M 646.50 362.76
  L 646.71 363.22
  Q 646.91 363.66 646.46 363.86
  Q 640.18 366.55 632.67 372.41
  Q 601.57 396.69 588.44 407.68
  Q 585.92 409.79 579.08 414.05
  C 494.44 414.10 409.82 413.57 325.18 414.11
  Q 324.68 414.11 324.46 414.55
  Q 323.86 415.70 324.76 416.54
  Q 325.12 416.87 325.61 416.87
  L 575.97 416.48
  C 576.46 417.20 576.42 417.89 575.65 418.41
  Q 567.33 424.05 561.48 431.24
  Q 558.80 434.53 560.50 438.79
  C 535.78 438.29 511.31 438.80 486.75 438.70
  Q 406.27 438.40 325.78 438.52
  Q 325.33 438.52 325.32 438.97
  L 325.26 444.02
  Q 325.25 444.76 325.99 444.76
  L 563.44 444.79
  Q 564.42 446.05 567.58 447.06
  Q 545.23 466.15 523.14 483.07
  L 326.03 482.99
  Q 325.50 482.99 325.50 483.52
  L 325.50 488.48
  Q 325.50 488.99 326.01 488.99
  L 516.20 488.95
  L 505.03 498.66
  Q 504.62 499.01 504.08 499.01
  L 324.75 498.99
  Q 324.05 498.99 324.05 499.69
  L 324.05 501.08
  Q 324.05 501.67 324.64 501.70
  Q 328.20 501.86 331.75 501.87
  Q 416.09 502.11 500.20 501.89
  Q 501.05 501.89 500.39 502.42
  L 473.02 524.53
  C 466.06 524.01 457.89 524.47 452.74 524.48
  Q 389.32 524.60 325.87 524.39
  Q 325.24 524.39 325.24 525.02
  L 325.26 529.99
  Q 325.26 530.49 325.76 530.49
  C 372.66 530.51 419.90 531.53 466.75 529.87
  L 403.19 581.80
  Q 402.75 582.16 402.18 582.16
  L 324.55 582.29
  Q 323.92 582.29 323.74 582.88
  C 323.34 584.17 324.20 584.62 325.38 584.64
  Q 361.81 585.14 398.26 584.79
  Q 399.06 584.78 398.52 585.36
  Q 397.62 586.32 395.83 587.83
  Q 384.25 597.55 372.46 607.00
  Q 372.03 607.34 371.48 607.34
  L 325.96 607.08
  Q 325.50 607.07 325.50 607.54
  L 325.50 612.72
  Q 325.50 613.14 325.92 613.15
  Q 345.42 613.64 364.89 612.64
  A 0.15 0.15 0.0 0 1 365.00 612.91
  C 354.85 621.27 343.61 629.65 335.17 639.64
  Q 318.46 659.41 305.17 681.67
  C 302.52 686.10 300.92 690.94 297.96 695.14
  Q 296.28 697.52 294.54 700.33
  A 2.32 2.32 0.0 0 0 294.62 702.88
  Q 295.48 704.08 297.66 703.27
  C 309.71 698.76 321.85 694.59 333.94 690.20
  Q 346.76 685.54 371.68 672.66
  Q 375.14 670.87 384.78 661.54
  A 1.28 1.23 22.7 0 1 385.68 661.19
  L 395.75 661.51
  Q 395.66 662.88 395.04 663.88
  Q 394.70 664.42 394.06 664.38
  L 386.49 663.82
  Q 386.01 663.78 385.64 664.10
  Q 376.93 671.70 373.55 673.54
  Q 351.34 685.67 327.64 694.55
  C 318.55 697.95 309.66 711.39 304.36 719.24
  A 1.04 1.04 0.0 0 0 305.41 720.85
  Q 310.87 719.85 316.43 720.33
  A 1.88 1.85 -54.1 0 0 317.39 720.17
  C 321.10 718.48 325.61 718.57 328.42 718.04
  Q 363.68 711.39 392.04 693.03
  Q 401.69 686.79 415.65 675.42
  C 420.88 671.16 428.72 666.79 432.02 661.48
  L 714.61 661.38
  Q 715.07 661.38 715.46 661.14
  Q 716.51 660.49 715.59 659.29
  A 1.50 1.49 71.0 0 0 714.41 658.71
  L 437.95 658.25
  Q 437.33 656.76 438.98 655.70
  Q 447.11 650.46 454.43 644.99
  L 693.10 644.84
  Q 693.50 644.84 693.50 644.44
  L 693.50 639.51
  Q 693.50 638.97 692.96 638.97
  C 615.66 639.02 538.28 639.63 461.00 638.63
  Q 477.75 626.43 493.48 613.47
  C 502.58 612.91 513.63 613.59 520.84 613.56
  Q 617.53 613.14 714.22 613.29
  Q 714.75 613.29 714.75 612.75
  L 714.75 607.83
  A 0.58 0.58 0.0 0 0 714.17 607.25
  L 497.77 607.03
  Q 497.37 606.72 496.65 606.66
  Q 496.16 606.62 496.23 606.13
  L 496.34 605.29
  A 0.64 0.64 0.0 0 1 497.16 604.76
  Q 501.11 605.97 503.91 604.17
  Q 514.68 597.23 524.73 588.65
  A 0.39 0.38 -66.2 0 0 524.47 587.97
  Q 512.33 588.36 499.97 588.25
  C 495.81 588.21 482.35 586.38 478.00 589.40
  C 473.78 592.34 461.13 601.00 459.89 605.68
  A 0.72 0.72 0.0 0 1 459.27 606.21
  Q 457.88 606.34 457.22 607.20
  L 453.01 606.81
  Q 465.92 596.25 478.30 585.80
  C 479.72 584.60 480.72 585.30 482.04 585.30
  Q 569.62 584.96 657.19 585.00
  Q 686.45 585.02 715.68 584.61
  A 0.56 0.55 6.0 0 0 716.21 584.19
  C 716.57 582.74 715.86 582.35 714.57 582.34
  Q 635.57 581.79 556.57 582.23
  C 532.11 582.37 507.79 581.41 483.26 582.12
  Q 482.69 582.14 483.13 581.78
  L 546.30 530.50
  Q 547.47 531.08 547.40 530.84
  L 552.47 531.41
  Q 552.95 531.47 552.89 531.95
  L 552.71 533.28
  A 0.62 0.62 0.0 0 1 551.96 533.80
  Q 549.92 533.32 547.80 533.18
  Q 547.30 533.15 546.88 533.42
  Q 546.07 533.91 545.00 534.75
  Q 524.41 550.88 509.31 563.41
  C 504.02 567.80 496.46 573.58 490.32 579.05
  A 0.37 0.36 -66.5 0 0 490.57 579.69
  Q 509.96 579.10 529.57 579.96
  C 531.97 580.06 535.77 579.51 537.27 578.29
  Q 565.79 555.17 595.01 532.95
  A 1.56 1.53 80.9 0 0 595.54 532.20
  L 596.01 530.78
  L 714.21 530.46
  Q 714.75 530.46 714.75 529.92
  L 714.75 524.85
  Q 714.75 524.36 714.25 524.36
  Q 653.48 524.83 608.32 524.15
  Q 592.02 523.90 583.51 524.16
  L 562.52 524.05
  Q 562.09 524.05 561.78 523.75
  Q 560.81 522.83 559.58 523.46
  Q 559.29 523.61 558.98 523.71
  L 556.68 524.43
  L 555.03 524.76
  Q 554.60 524.87 554.40 524.43
  L 581.04 502.46
  Q 581.45 502.12 581.98 502.12
  L 589.74 502.07
  L 590.41 502.47
  Q 590.79 502.70 590.71 503.13
  L 590.55 503.90
  Q 590.44 504.46 589.86 504.45
  L 582.45 504.29
  A 1.30 1.28 -63.5 0 0 581.61 504.58
  L 562.29 520.26
  A 0.95 0.95 0.0 0 0 562.90 521.95
  C 577.56 521.86 592.87 520.78 607.77 522.19
  A 1.76 1.71 33.6 0 0 608.73 522.01
  Q 613.87 519.40 619.60 515.11
  Q 628.45 508.46 634.89 502.02
  L 715.63 501.44
  Q 716.21 501.43 716.25 500.86
  C 716.33 499.77 715.57 499.27 714.49 499.27
  Q 659.76 499.01 605.02 498.60
  C 599.09 498.56 592.41 498.85 586.18 498.77
  Q 585.12 498.76 585.95 498.10
  L 651.44 445.35
  Q 652.67 446.13 651.99 446.73
  Q 626.19 469.94 596.43 492.13
  C 595.27 492.99 594.05 494.24 593.21 495.18
  Q 591.63 496.95 594.00 496.83
  Q 617.39 495.72 639.51 497.10
  Q 641.14 497.20 642.45 496.20
  Q 671.00 474.40 698.25 450.99
  C 700.18 449.33 701.24 447.62 702.59 445.52
  A 1.11 1.08 11.0 0 1 703.34 445.03
  L 705.27 444.75
  L 713.82 445.05
  A 0.65 0.65 0.0 0 0 714.50 444.44
  L 714.83 439.35
  A 0.66 0.66 0.0 0 0 714.17 438.64
  L 658.95 438.47
  L 682.04 417.81
  Q 682.43 417.47 682.94 417.45
  Q 698.72 417.08 714.50 417.30
  Q 715.06 417.31 715.31 416.82
  Q 715.81 415.87 715.23 413.86
  Q 720.28 400.61 712.83 387.18
  C 711.89 385.50 705.39 376.54 703.98 379.67
  Q 703.89 379.88 704.11 379.95
  L 704.40 380.05
  Q 704.74 380.16 704.74 380.52
  C 704.70 389.31 698.10 399.10 692.23 405.73
  Q 691.90 406.10 691.97 406.60
  Q 692.32 408.93 691.04 410.90
  A 0.67 0.67 0.0 0 0 691.57 411.94
  L 701.91 412.37
  Q 702.38 412.38 702.49 412.84
  Q 702.61 413.34 702.48 413.90
  L 686.20 413.84
  Q 685.42 413.83 685.95 413.27
  C 687.25 411.87 692.89 408.16 689.27 406.16
  A 0.65 0.65 0.0 0 1 689.32 404.99
  C 691.61 404.01 692.23 402.62 693.65 400.80
  C 699.63 393.18 703.96 384.83 701.93 375.61
  C 699.55 364.76 690.20 360.01 679.37 361.49
  L 680.25 357.32
  A 0.67 0.67 0.0 0 0 679.59 356.51
  C 567.76 356.48 455.96 356.21 344.16 356.68
  C 339.01 356.70 331.90 356.34 325.73 356.55
  Q 325.36 356.56 325.36 356.94
  L 325.49 362.33
  Q 325.50 362.76 325.93 362.76
  L 646.50 362.76
  Z
  M 669.26 435.57
  C 677.20 435.52 684.91 436.58 692.76 435.98
  Q 695.60 435.77 702.11 436.72
  Q 702.64 436.80 703.02 436.41
  Q 709.80 429.49 712.98 420.29
  Q 713.12 419.88 712.69 419.92
  C 703.15 420.82 693.66 419.65 684.10 419.59
  Q 683.54 419.59 683.10 419.92
  Q 675.07 426.01 668.36 433.58
  A 1.20 1.19 -69.4 0 0 669.26 435.57
  Z"
/>
<path fill="#cfced4" d="
  M 429.23 259.62
  Q 429.98 259.76 429.98 260.00
  Q 429.86 270.71 430.23 281.15
  Q 424.49 282.29 423.00 282.29
  Q 356.75 282.19 290.50 282.00
  Q 286.90 281.99 283.30 281.66
  Q 282.83 281.61 282.49 281.28
  Q 272.16 271.34 262.90 259.97
  C 265.01 259.83 267.23 259.45 269.03 259.45
  Q 320.61 259.58 372.19 259.72
  C 390.99 259.78 410.21 259.30 429.23 259.62
  Z"
/>
<path fill="#cfced4" d="
  M 602.63 259.30
  L 602.70 282.40
  L 456.23 282.48
  Q 455.68 282.48 455.71 283.03
  Q 456.07 290.00 454.77 296.70
  L 447.56 296.78
  Q 445.67 290.06 443.68 283.28
  Q 442.40 278.91 442.35 274.97
  Q 442.27 267.09 443.27 259.55
  Q 508.27 259.43 572.75 259.53
  C 581.11 259.54 592.54 259.91 602.63 259.30
  Z"
/>
<path fill="#cfced4" d="
  M 612.64 259.49
  L 782.58 259.49
  L 782.77 281.83
  C 768.71 282.57 752.05 282.01 740.75 282.12
  C 697.41 282.53 664.33 281.35 626.35 282.35
  Q 625.39 282.38 625.42 283.34
  C 625.66 290.72 626.78 303.67 623.54 310.21
  C 618.35 320.70 609.07 322.77 597.93 322.57
  C 553.71 321.77 509.49 322.85 465.25 322.15
  C 455.91 322.00 449.35 318.68 446.15 309.65
  A 0.71 0.71 0.0 0 1 446.50 308.79
  Q 448.41 307.81 450.66 308.36
  Q 451.21 308.49 451.40 307.96
  Q 451.57 307.47 451.30 306.78
  L 455.25 306.76
  C 451.28 310.58 461.99 310.98 463.25 310.98
  Q 532.24 311.02 601.21 310.98
  C 610.03 310.98 614.85 307.63 615.86 298.35
  Q 616.79 289.86 615.74 281.36
  A 1.12 1.08 -78.6 0 0 615.24 280.57
  Q 614.26 279.95 612.79 280.28
  L 612.64 259.49
  Z"
/>
<path fill="#ffffff" d="
  M 443.27 259.55
  Q 442.27 267.09 442.35 274.97
  Q 442.40 278.91 443.68 283.28
  Q 445.67 290.06 447.56 296.78
  L 444.70 296.49
  Q 439.42 294.13 439.59 287.23
  C 439.87 275.75 439.24 269.15 439.50 260.37
  Q 439.52 259.81 440.08 259.77
  L 443.27 259.55
  Z"
/>
<path fill="#ffffff" d="
  M 612.79 280.28
  Q 614.26 279.95 615.24 280.57
  A 1.12 1.08 -78.6 0 1 615.74 281.36
  Q 616.79 289.86 615.86 298.35
  C 614.85 307.63 610.03 310.98 601.21 310.98
  Q 532.24 311.02 463.25 310.98
  C 461.99 310.98 451.28 310.58 455.25 306.76
  Q 524.49 306.74 593.76 306.76
  C 603.25 306.77 611.77 300.25 612.15 290.36
  Q 612.34 285.26 612.79 280.28
  Z"
/>
<path fill="#ffffff" d="
  M 602.70 282.40
  C 602.85 290.03 603.19 296.99 593.18 297.01
  Q 523.96 297.15 454.77 296.70
  Q 456.07 290.00 455.71 283.03
  Q 455.68 282.48 456.23 282.48
  L 602.70 282.40
  Z"
/>
<path fill="#acdbe3" d="
  M 903.09 436.48
  Q 921.95 501.09 913.06 568.29
  Q 912.71 567.73 912.73 567.46
  A 0.45 0.40 -39.5 0 0 911.88 567.43
  C 911.01 570.95 910.88 574.80 910.30 577.84
  C 907.55 592.24 905.04 606.99 900.49 620.95
  C 898.48 627.13 896.53 634.03 894.60 639.55
  C 879.76 682.07 856.66 720.53 827.51 754.76
  Q 823.37 759.62 818.96 764.24
  A 0.70 0.70 0.0 0 1 817.76 763.75
  C 818.25 710.61 818.59 657.34 818.13 604.19
  C 817.60 544.45 818.34 484.73 817.83 425.00
  Q 817.75 415.03 817.86 405.00
  Q 818.53 348.50 817.97 291.90
  Q 817.94 288.97 819.98 291.09
  Q 832.23 303.81 843.58 319.17
  C 870.19 355.17 889.48 393.53 902.15 436.46
  C 902.38 437.23 902.63 436.81 903.09 436.48
  Z"
/>
<rect fill="#131220" x="325.45" y="341.34" width="389.02" height="6.16" rx="0.27"/>
<path fill="#131220" d="
  M 679.37 361.49
  Q 678.78 362.94 676.75 362.44
  Q 676.81 362.01 676.50 362.04
  Q 668.34 362.86 660.28 362.49
  Q 653.42 361.89 646.50 362.76
  L 325.93 362.76
  Q 325.50 362.76 325.49 362.33
  L 325.36 356.94
  Q 325.36 356.56 325.73 356.55
  C 331.90 356.34 339.01 356.70 344.16 356.68
  C 455.96 356.21 567.76 356.48 679.59 356.51
  A 0.67 0.67 0.0 0 1 680.25 357.32
  L 679.37 361.49
  Z"
/>
<path fill="#020101" d="
  M 702.48 413.90
  L 715.23 413.86
  Q 715.81 415.87 715.31 416.82
  Q 715.06 417.31 714.50 417.30
  Q 698.72 417.08 682.94 417.45
  Q 682.43 417.47 682.04 417.81
  L 658.95 438.47
  Q 654.22 440.53 653.67 444.12
  L 651.44 445.35
  L 585.95 498.10
  Q 585.12 498.76 586.18 498.77
  C 592.41 498.85 599.09 498.56 605.02 498.60
  Q 659.76 499.01 714.49 499.27
  C 715.57 499.27 716.33 499.77 716.25 500.86
  Q 716.21 501.43 715.63 501.44
  L 634.89 502.02
  L 589.74 502.07
  L 581.98 502.12
  Q 581.45 502.12 581.04 502.46
  L 554.40 524.43
  L 552.42 525.80
  L 549.22 527.07
  A 1.00 1.00 0.0 0 0 548.62 527.79
  Q 548.13 530.21 546.30 530.50
  L 483.13 581.78
  Q 482.69 582.14 483.26 582.12
  C 507.79 581.41 532.11 582.37 556.57 582.23
  Q 635.57 581.79 714.57 582.34
  C 715.86 582.35 716.57 582.74 716.21 584.19
  A 0.56 0.55 6.0 0 1 715.68 584.61
  Q 686.45 585.02 657.19 585.00
  Q 569.62 584.96 482.04 585.30
  C 480.72 585.30 479.72 584.60 478.30 585.80
  Q 465.92 596.25 453.01 606.81
  Q 448.08 607.62 446.33 612.82
  Q 443.71 614.39 437.69 619.19
  Q 425.91 628.57 414.13 638.29
  Q 407.97 640.04 405.74 645.16
  L 389.88 657.56
  Q 389.11 658.16 390.08 658.16
  L 437.95 658.25
  L 714.41 658.71
  A 1.50 1.49 71.0 0 1 715.59 659.29
  Q 716.51 660.49 715.46 661.14
  Q 715.07 661.38 714.61 661.38
  L 432.02 661.48
  L 395.75 661.51
  L 385.68 661.19
  A 1.28 1.23 22.7 0 0 384.78 661.54
  Q 375.14 670.87 371.68 672.66
  Q 346.76 685.54 333.94 690.20
  C 321.85 694.59 309.71 698.76 297.66 703.27
  Q 295.48 704.08 294.62 702.88
  A 2.32 2.32 0.0 0 1 294.54 700.33
  Q 296.28 697.52 297.96 695.14
  C 300.92 690.94 302.52 686.10 305.17 681.67
  Q 318.46 659.41 335.17 639.64
  C 343.61 629.65 354.85 621.27 365.00 612.91
  A 0.15 0.15 0.0 0 0 364.89 612.64
  Q 345.42 613.64 325.92 613.15
  Q 325.50 613.14 325.50 612.72
  L 325.50 607.54
  Q 325.50 607.07 325.96 607.08
  L 371.48 607.34
  Q 372.03 607.34 372.46 607.00
  Q 384.25 597.55 395.83 587.83
  Q 397.62 586.32 398.52 585.36
  Q 399.06 584.78 398.26 584.79
  Q 361.81 585.14 325.38 584.64
  C 324.20 584.62 323.34 584.17 323.74 582.88
  Q 323.92 582.29 324.55 582.29
  L 402.18 582.16
  Q 402.75 582.16 403.19 581.80
  L 466.75 529.87
  Q 469.69 529.98 471.27 527.16
  Q 471.51 526.74 471.49 526.25
  Q 471.44 524.57 473.02 524.53
  L 500.39 502.42
  Q 501.05 501.89 500.20 501.89
  Q 416.09 502.11 331.75 501.87
  Q 328.20 501.86 324.64 501.70
  Q 324.05 501.67 324.05 501.08
  L 324.05 499.69
  Q 324.05 498.99 324.75 498.99
  L 504.08 499.01
  Q 504.62 499.01 505.03 498.66
  L 516.20 488.95
  L 518.67 488.36
  Q 519.16 488.25 519.51 488.61
  Q 519.83 488.95 519.75 489.47
  C 512.34 496.46 501.84 504.20 496.33 508.75
  C 465.39 534.33 436.38 557.72 406.48 582.25
  Q 405.25 583.26 402.24 585.40
  C 399.02 587.68 395.06 591.53 393.19 593.08
  Q 383.00 601.57 372.82 610.08
  C 369.90 612.52 366.67 614.29 364.19 616.52
  Q 353.77 625.90 342.96 634.98
  Q 342.49 635.37 342.87 635.84
  C 344.77 638.15 347.76 640.62 349.19 642.18
  Q 360.87 654.92 371.16 668.69
  A 0.89 0.89 0.0 0 0 372.49 668.80
  C 378.27 663.28 385.17 658.26 390.84 653.41
  C 398.94 646.49 408.03 640.52 415.81 633.81
  Q 428.63 622.77 442.15 612.60
  C 454.82 603.08 466.17 591.98 478.78 582.28
  C 483.55 578.62 489.52 572.88 494.76 568.62
  Q 524.96 544.10 539.98 532.23
  C 543.53 529.43 547.99 527.12 551.49 523.99
  Q 563.93 512.86 576.84 502.28
  C 578.66 500.79 581.04 499.44 583.02 497.76
  Q 604.22 479.78 626.25 462.21
  A 0.59 0.58 50.2 0 0 626.32 461.36
  C 616.11 449.88 606.50 437.66 595.19 427.84
  A 1.13 1.12 44.0 0 0 593.70 427.86
  C 571.72 447.94 547.93 466.74 525.28 485.30
  L 524.22 485.45
  Q 523.72 485.52 523.30 485.27
  Q 521.72 484.32 523.14 483.07
  Q 545.23 466.15 567.58 447.06
  L 571.06 443.59
  Q 582.11 434.46 592.86 424.97
  C 606.31 413.09 620.70 402.27 634.30 390.48
  Q 643.28 383.80 651.21 376.02
  A 0.73 0.73 0.0 0 1 651.91 375.84
  Q 652.71 376.05 652.47 376.69
  Q 629.95 397.64 605.90 416.88
  Q 604.71 417.83 603.44 418.75
  Q 603.02 419.05 603.37 419.43
  L 623.79 442.25
  L 626.82 445.78
  L 634.15 454.55
  Q 634.65 455.15 635.23 454.63
  L 685.24 409.91
  Q 685.63 409.57 685.28 409.19
  L 653.76 374.51
  Q 656.99 370.63 661.89 368.97
  C 666.00 367.28 672.70 362.88 676.75 362.44
  Q 678.78 362.94 679.37 361.49
  C 690.20 360.01 699.55 364.76 701.93 375.61
  C 703.96 384.83 699.63 393.18 693.65 400.80
  C 692.23 402.62 691.61 404.01 689.32 404.99
  A 0.65 0.65 0.0 0 0 689.27 406.16
  C 692.89 408.16 687.25 411.87 685.95 413.27
  Q 685.42 413.83 686.20 413.84
  L 702.48 413.90
  Z
  M 661.26 373.25
  L 659.89 373.25
  A 0.37 0.37 0.0 0 0 659.60 373.86
  Q 672.16 388.85 686.01 402.66
  A 0.54 0.52 -46.5 0 0 686.78 402.63
  C 692.06 396.70 698.57 387.54 698.54 379.43
  Q 698.51 369.07 688.74 365.86
  C 679.70 362.88 669.40 369.32 662.28 373.00
  Q 661.80 373.25 661.26 373.25
  Z
  M 631.11 457.81
  L 599.88 422.26
  A 0.28 0.28 0.0 0 0 599.48 422.23
  L 598.67 422.95
  A 1.26 0.25 -41.3 0 0 597.89 423.97
  L 629.16 459.56
  A 1.26 0.25 -41.3 0 0 630.27 458.92
  L 631.08 458.21
  A 0.28 0.28 0.0 0 0 631.11 457.81
  Z
  M 307.24 692.27
  L 310.72 695.66
  Q 311.10 696.02 311.60 695.85
  Q 324.78 691.16 337.54 685.52
  Q 353.06 678.87 368.00 670.93
  A 0.96 0.96 0.0 0 0 368.30 669.49
  Q 355.49 653.35 341.46 638.26
  A 1.17 1.15 44.1 0 0 339.74 638.28
  Q 319.69 661.01 304.29 687.10
  Q 304.02 687.55 304.21 688.05
  Q 305.12 690.50 307.24 692.27
  Z"
/>
<path fill="#ffffff" d="
  M 676.75 362.44
  C 672.70 362.88 666.00 367.28 661.89 368.97
  L 659.96 363.71
  Q 659.28 363.26 660.28 362.49
  Q 668.34 362.86 676.50 362.04
  Q 676.81 362.01 676.75 362.44
  Z"
/>
<path fill="#f8c76e" d="
  M 660.28 362.49
  Q 659.28 363.26 659.96 363.71
  Q 654.44 363.41 653.02 364.24
  Q 639.50 372.15 623.69 384.94
  Q 588.82 413.17 571.28 428.03
  Q 567.34 431.38 563.58 437.06
  Q 563.31 437.47 563.45 437.94
  L 564.70 442.19
  Q 564.85 442.68 564.34 442.76
  Q 563.98 442.82 563.49 442.72
  Q 561.40 441.23 560.50 438.79
  Q 558.80 434.53 561.48 431.24
  Q 567.33 424.05 575.65 418.41
  C 576.42 417.89 576.46 417.20 575.97 416.48
  Q 580.33 416.12 579.08 414.05
  Q 585.92 409.79 588.44 407.68
  Q 601.57 396.69 632.67 372.41
  Q 640.18 366.55 646.46 363.86
  Q 646.91 363.66 646.71 363.22
  L 646.50 362.76
  Q 653.42 361.89 660.28 362.49
  Z"
/>
<path fill="#ba5a13" d="
  M 659.96 363.71
  L 661.89 368.97
  Q 656.99 370.63 653.76 374.51
  L 653.01 376.34
  Q 652.77 376.77 652.47 376.69
  Q 652.71 376.05 651.91 375.84
  A 0.73 0.73 0.0 0 0 651.21 376.02
  Q 643.28 383.80 634.30 390.48
  L 632.55 388.95
  Q 632.12 388.57 631.70 388.96
  Q 626.01 394.16 620.16 399.17
  C 616.77 402.08 613.04 406.03 609.15 409.14
  C 595.91 419.71 583.45 431.24 570.48 442.15
  Q 570.02 442.53 570.44 442.95
  L 571.06 443.59
  L 567.58 447.06
  Q 564.42 446.05 563.44 444.79
  Q 565.04 445.02 563.49 442.72
  Q 563.98 442.82 564.34 442.76
  Q 564.85 442.68 564.70 442.19
  L 563.45 437.94
  Q 563.31 437.47 563.58 437.06
  Q 567.34 431.38 571.28 428.03
  Q 588.82 413.17 623.69 384.94
  Q 639.50 372.15 653.02 364.24
  Q 654.44 363.41 659.96 363.71
  Z"
/>
<path fill="#f8c76e" d="
  M 662.28 373.00
  C 669.40 369.32 679.70 362.88 688.74 365.86
  Q 698.51 369.07 698.54 379.43
  C 698.57 387.54 692.06 396.70 686.78 402.63
  A 0.54 0.52 -46.5 0 1 686.01 402.66
  Q 672.16 388.85 659.60 373.86
  A 0.37 0.37 0.0 0 1 659.89 373.25
  L 661.26 373.25
  Q 661.80 373.25 662.28 373.00
  Z
  M 674.31 388.59
  L 685.72 399.76
  A 0.91 0.91 0.0 0 0 687.05 399.69
  Q 691.96 393.82 694.93 386.59
  C 696.04 383.89 696.27 380.82 696.84 377.87
  C 697.49 374.49 695.97 373.38 693.51 371.55
  Q 689.95 368.25 684.35 367.95
  A 0.57 0.57 0.0 0 0 683.77 368.40
  C 683.45 369.83 670.71 377.88 668.25 379.44
  A 1.16 1.16 0.0 0 0 667.98 381.18
  L 674.31 388.59
  Z"
/>
<path fill="#faa73f" d="
  M 693.51 371.55
  Q 683.38 379.41 674.31 388.59
  L 667.98 381.18
  A 1.16 1.16 0.0 0 1 668.25 379.44
  C 670.71 377.88 683.45 369.83 683.77 368.40
  A 0.57 0.57 0.0 0 1 684.35 367.95
  Q 689.95 368.25 693.51 371.55
  Z"
/>
<path fill="#f16247" d="
  M 693.51 371.55
  C 695.97 373.38 697.49 374.49 696.84 377.87
  C 696.27 380.82 696.04 383.89 694.93 386.59
  Q 691.96 393.82 687.05 399.69
  A 0.91 0.91 0.0 0 1 685.72 399.76
  L 674.31 388.59
  Q 683.38 379.41 693.51 371.55
  Z"
/>
<path fill="#f16247" d="
  M 653.76 374.51
  L 685.28 409.19
  Q 685.63 409.57 685.24 409.91
  L 635.23 454.63
  Q 634.65 455.15 634.15 454.55
  L 626.82 445.78
  C 642.18 430.64 656.14 420.12 675.23 402.50
  Q 675.60 402.15 675.30 401.75
  Q 669.45 393.83 661.89 386.82
  L 656.58 380.45
  Q 656.33 379.65 655.24 379.21
  L 653.01 376.34
  L 653.76 374.51
  Z"
/>
<path fill="#f8c76e" d="
  M 653.01 376.34
  L 655.24 379.21
  Q 653.13 382.19 650.18 384.43
  C 644.23 388.96 638.17 393.25 632.51 398.14
  Q 620.57 408.46 608.28 418.40
  C 607.10 419.35 605.94 421.01 607.84 421.97
  C 609.34 422.73 610.46 421.56 611.61 420.56
  Q 628.92 405.57 655.56 381.81
  Q 656.37 381.09 656.58 380.45
  L 661.89 386.82
  L 614.26 425.65
  Q 612.63 426.98 614.07 428.53
  L 624.75 439.93
  Q 625.13 440.33 625.10 440.89
  Q 625.04 442.10 623.79 442.25
  L 603.37 419.43
  Q 603.02 419.05 603.44 418.75
  Q 604.71 417.83 605.90 416.88
  Q 629.95 397.64 652.47 376.69
  Q 652.77 376.77 653.01 376.34
  Z"
/>
<path fill="#cfced4" d="
  M 715.23 413.86
  L 702.48 413.90
  Q 702.61 413.34 702.49 412.84
  Q 702.38 412.38 701.91 412.37
  L 691.57 411.94
  A 0.67 0.67 0.0 0 1 691.04 410.90
  Q 692.32 408.93 691.97 406.60
  Q 691.90 406.10 692.23 405.73
  C 698.10 399.10 704.70 389.31 704.74 380.52
  Q 704.74 380.16 704.40 380.05
  L 704.11 379.95
  Q 703.89 379.88 703.98 379.67
  C 705.39 376.54 711.89 385.50 712.83 387.18
  Q 720.28 400.61 715.23 413.86
  Z"
/>
<path fill="#faa73f" d="
  M 655.24 379.21
  Q 656.33 379.65 656.58 380.45
  Q 656.37 381.09 655.56 381.81
  Q 628.92 405.57 611.61 420.56
  C 610.46 421.56 609.34 422.73 607.84 421.97
  C 605.94 421.01 607.10 419.35 608.28 418.40
  Q 620.57 408.46 632.51 398.14
  C 638.17 393.25 644.23 388.96 650.18 384.43
  Q 653.13 382.19 655.24 379.21
  Z"
/>
<path fill="#faa73f" d="
  M 661.89 386.82
  Q 669.45 393.83 675.30 401.75
  Q 675.60 402.15 675.23 402.50
  C 656.14 420.12 642.18 430.64 626.82 445.78
  L 623.79 442.25
  Q 625.04 442.10 625.10 440.89
  Q 625.13 440.33 624.75 439.93
  L 614.07 428.53
  Q 612.63 426.98 614.26 425.65
  L 661.89 386.82
  Z"
/>
<path fill="#faa73f" d="
  M 634.30 390.48
  C 620.70 402.27 606.31 413.09 592.86 424.97
  Q 582.11 434.46 571.06 443.59
  L 570.44 442.95
  Q 570.02 442.53 570.48 442.15
  C 583.45 431.24 595.91 419.71 609.15 409.14
  C 613.04 406.03 616.77 402.08 620.16 399.17
  Q 626.01 394.16 631.70 388.96
  Q 632.12 388.57 632.55 388.95
  L 634.30 390.48
  Z"
/>
<path fill="#020101" d="
  M 579.08 414.05
  Q 580.33 416.12 575.97 416.48
  L 325.61 416.87
  Q 325.12 416.87 324.76 416.54
  Q 323.86 415.70 324.46 414.55
  Q 324.68 414.11 325.18 414.11
  C 409.82 413.57 494.44 414.10 579.08 414.05
  Z"
/>
<path fill="#cfced4" d="
  M 692.76 435.98
  C 684.91 436.58 677.20 435.52 669.26 435.57
  A 1.20 1.19 -69.4 0 1 668.36 433.58
  Q 675.07 426.01 683.10 419.92
  Q 683.54 419.59 684.10 419.59
  C 693.66 419.65 703.15 420.82 712.69 419.92
  Q 713.12 419.88 712.98 420.29
  Q 709.80 429.49 703.02 436.41
  Q 702.64 436.80 702.11 436.72
  Q 695.60 435.77 692.76 435.98
  Z"
/>
<path fill="#f8c76e" d="
  M 631.11 457.81
  A 0.28 0.28 0.0 0 1 631.08 458.21
  L 630.27 458.92
  A 1.26 0.25 -41.3 0 1 629.16 459.56
  L 597.89 423.97
  A 1.26 0.25 -41.3 0 1 598.67 422.95
  L 599.48 422.23
  A 0.28 0.28 0.0 0 1 599.88 422.26
  L 631.11 457.81
  Z"
/>
<path fill="#313342" d="
  M 519.75 489.47
  L 525.28 485.30
  C 547.93 466.74 571.72 447.94 593.70 427.86
  A 1.13 1.12 44.0 0 1 595.19 427.84
  C 606.50 437.66 616.11 449.88 626.32 461.36
  A 0.59 0.58 50.2 0 1 626.25 462.21
  Q 604.22 479.78 583.02 497.76
  C 581.04 499.44 578.66 500.79 576.84 502.28
  Q 563.93 512.86 551.49 523.99
  C 547.99 527.12 543.53 529.43 539.98 532.23
  Q 524.96 544.10 494.76 568.62
  C 489.52 572.88 483.55 578.62 478.78 582.28
  C 466.17 591.98 454.82 603.08 442.15 612.60
  Q 428.63 622.77 415.81 633.81
  C 408.03 640.52 398.94 646.49 390.84 653.41
  C 385.17 658.26 378.27 663.28 372.49 668.80
  A 0.89 0.89 0.0 0 1 371.16 668.69
  Q 360.87 654.92 349.19 642.18
  C 347.76 640.62 344.77 638.15 342.87 635.84
  Q 342.49 635.37 342.96 634.98
  Q 353.77 625.90 364.19 616.52
  C 366.67 614.29 369.90 612.52 372.82 610.08
  Q 383.00 601.57 393.19 593.08
  C 395.06 591.53 399.02 587.68 402.24 585.40
  Q 405.25 583.26 406.48 582.25
  C 436.38 557.72 465.39 534.33 496.33 508.75
  C 501.84 504.20 512.34 496.46 519.75 489.47
  Z"
/>
<path fill="#131220" d="
  M 705.27 444.75
  Q 680.23 444.75 655.25 444.75
  Q 654.79 444.75 653.67 444.12
  Q 654.22 440.53 658.95 438.47
  L 714.17 438.64
  A 0.66 0.66 0.0 0 1 714.83 439.35
  L 714.50 444.44
  A 0.65 0.65 0.0 0 1 713.82 445.05
  L 705.27 444.75
  Z"
/>
<path fill="#131220" d="
  M 560.50 438.79
  Q 561.40 441.23 563.49 442.72
  Q 565.04 445.02 563.44 444.79
  L 325.99 444.76
  Q 325.25 444.76 325.26 444.02
  L 325.32 438.97
  Q 325.33 438.52 325.78 438.52
  Q 406.27 438.40 486.75 438.70
  C 511.31 438.80 535.78 438.29 560.50 438.79
  Z"
/>
<path fill="#cfced4" d="
  M 653.67 444.12
  Q 654.79 444.75 655.25 444.75
  Q 680.23 444.75 705.27 444.75
  L 703.34 445.03
  A 1.11 1.08 11.0 0 0 702.59 445.52
  C 701.24 447.62 700.18 449.33 698.25 450.99
  Q 671.00 474.40 642.45 496.20
  Q 641.14 497.20 639.51 497.10
  Q 617.39 495.72 594.00 496.83
  Q 591.63 496.95 593.21 495.18
  C 594.05 494.24 595.27 492.99 596.43 492.13
  Q 626.19 469.94 651.99 446.73
  Q 652.67 446.13 651.44 445.35
  L 653.67 444.12
  Z"
/>
<path fill="#131220" d="
  M 523.14 483.07
  Q 521.72 484.32 523.30 485.27
  Q 523.72 485.52 524.22 485.45
  L 525.28 485.30
  L 519.75 489.47
  Q 519.83 488.95 519.51 488.61
  Q 519.16 488.25 518.67 488.36
  L 516.20 488.95
  L 326.01 488.99
  Q 325.50 488.99 325.50 488.48
  L 325.50 483.52
  Q 325.50 482.99 326.03 482.99
  L 523.14 483.07
  Z"
/>
<path fill="#cfced4" d="
  M 634.89 502.02
  Q 628.45 508.46 619.60 515.11
  Q 613.87 519.40 608.73 522.01
  A 1.76 1.71 33.6 0 1 607.77 522.19
  C 592.87 520.78 577.56 521.86 562.90 521.95
  A 0.95 0.95 0.0 0 1 562.29 520.26
  L 581.61 504.58
  A 1.30 1.28 -63.5 0 1 582.45 504.29
  L 589.86 504.45
  Q 590.44 504.46 590.55 503.90
  L 590.71 503.13
  Q 590.79 502.70 590.41 502.47
  L 589.74 502.07
  L 634.89 502.02
  Z"
/>
<path fill="#313342" d="
  M 583.51 524.16
  C 575.56 524.29 566.19 523.28 558.52 525.28
  Q 557.24 525.62 556.68 524.43
  L 558.98 523.71
  Q 559.29 523.61 559.58 523.46
  Q 560.81 522.83 561.78 523.75
  Q 562.09 524.05 562.52 524.05
  L 583.51 524.16
  Z"
/>
<path fill="#131220" d="
  M 596.01 530.78
  L 547.40 530.84
  Q 547.47 531.08 546.30 530.50
  Q 548.13 530.21 548.62 527.79
  A 1.00 1.00 0.0 0 1 549.22 527.07
  L 552.42 525.80
  Q 553.36 526.09 555.03 524.76
  L 556.68 524.43
  Q 557.24 525.62 558.52 525.28
  C 566.19 523.28 575.56 524.29 583.51 524.16
  Q 592.02 523.90 608.32 524.15
  Q 653.48 524.83 714.25 524.36
  Q 714.75 524.36 714.75 524.85
  L 714.75 529.92
  Q 714.75 530.46 714.21 530.46
  L 596.01 530.78
  Z"
/>
<path fill="#131220" d="
  M 473.02 524.53
  Q 471.44 524.57 471.49 526.25
  Q 471.51 526.74 471.27 527.16
  Q 469.69 529.98 466.75 529.87
  C 419.90 531.53 372.66 530.51 325.76 530.49
  Q 325.26 530.49 325.26 529.99
  L 325.24 525.02
  Q 325.24 524.39 325.87 524.39
  Q 389.32 524.60 452.74 524.48
  C 457.89 524.47 466.06 524.01 473.02 524.53
  Z"
/>
<path fill="#80a6b5" d="
  M 554.40 524.43
  Q 554.60 524.87 555.03 524.76
  Q 553.36 526.09 552.42 525.80
  L 554.40 524.43
  Z"
/>
<path fill="#cfced4" d="
  M 596.01 530.78
  L 595.54 532.20
  A 1.56 1.53 80.9 0 1 595.01 532.95
  Q 565.79 555.17 537.27 578.29
  C 535.77 579.51 531.97 580.06 529.57 579.96
  Q 509.96 579.10 490.57 579.69
  A 0.37 0.36 -66.5 0 1 490.32 579.05
  C 496.46 573.58 504.02 567.80 509.31 563.41
  Q 524.41 550.88 545.00 534.75
  Q 546.07 533.91 546.88 533.42
  Q 547.30 533.15 547.80 533.18
  Q 549.92 533.32 551.96 533.80
  A 0.62 0.62 0.0 0 0 552.71 533.28
  L 552.89 531.95
  Q 552.95 531.47 552.47 531.41
  L 547.40 530.84
  L 596.01 530.78
  Z"
/>
<path fill="#cfced4" d="
  M 497.77 607.03
  L 457.22 607.20
  Q 457.88 606.34 459.27 606.21
  A 0.72 0.72 0.0 0 0 459.89 605.68
  C 461.13 601.00 473.78 592.34 478.00 589.40
  C 482.35 586.38 495.81 588.21 499.97 588.25
  Q 512.33 588.36 524.47 587.97
  A 0.39 0.38 -66.2 0 1 524.73 588.65
  Q 514.68 597.23 503.91 604.17
  Q 501.11 605.97 497.16 604.76
  A 0.64 0.64 0.0 0 0 496.34 605.29
  L 496.23 606.13
  Q 496.16 606.62 496.65 606.66
  Q 497.37 606.72 497.77 607.03
  Z"
/>
<path fill="#131220" d="
  M 453.01 606.81
  L 457.22 607.20
  L 497.77 607.03
  L 714.17 607.25
  A 0.58 0.58 0.0 0 1 714.75 607.83
  L 714.75 612.75
  Q 714.75 613.29 714.22 613.29
  Q 617.53 613.14 520.84 613.56
  C 513.63 613.59 502.58 612.91 493.48 613.47
  L 447.21 613.27
  L 446.33 612.82
  Q 448.08 607.62 453.01 606.81
  Z"
/>
<path fill="#ffffff" d="
  M 446.33 612.82
  L 447.21 613.27
  Q 447.72 614.01 447.59 614.68
  A 0.78 0.77 87.5 0 1 447.04 615.28
  Q 445.87 615.61 445.57 615.83
  Q 433.76 624.71 422.42 634.16
  Q 420.62 635.66 419.83 637.80
  Q 419.70 638.14 419.35 638.21
  Q 419.07 638.27 418.98 638.45
  Q 417.92 638.15 416.46 638.70
  Q 414.31 639.02 414.13 638.29
  Q 425.91 628.57 437.69 619.19
  Q 443.71 614.39 446.33 612.82
  Z"
/>
<path fill="#cfced4" d="
  M 447.21 613.27
  L 493.48 613.47
  Q 477.75 626.43 461.00 638.63
  L 426.29 638.81
  L 418.98 638.45
  Q 419.07 638.27 419.35 638.21
  Q 419.70 638.14 419.83 637.80
  Q 420.62 635.66 422.42 634.16
  Q 433.76 624.71 445.57 615.83
  Q 445.87 615.61 447.04 615.28
  A 0.78 0.77 87.5 0 0 447.59 614.68
  Q 447.72 614.01 447.21 613.27
  Z"
/>
<path fill="#f8c76e" d="
  M 337.54 685.52
  L 337.50 684.38
  Q 337.49 683.90 337.90 683.68
  Q 354.94 674.44 360.45 672.45
  Q 363.37 671.39 365.26 670.20
  Q 365.77 669.88 365.48 669.36
  Q 362.49 664.02 357.91 659.49
  Q 352.86 655.16 349.39 649.34
  A 0.78 0.78 0.0 0 0 348.22 649.15
  C 334.49 660.92 322.05 673.94 308.88 686.29
  C 307.66 687.43 307.80 688.38 308.33 689.81
  Q 308.05 691.35 307.24 692.27
  Q 305.12 690.50 304.21 688.05
  Q 304.02 687.55 304.29 687.10
  Q 319.69 661.01 339.74 638.28
  A 1.17 1.15 44.1 0 1 341.46 638.26
  Q 355.49 653.35 368.30 669.49
  A 0.96 0.96 0.0 0 1 368.00 670.93
  Q 353.06 678.87 337.54 685.52
  Z"
/>
<path fill="#131220" d="
  M 414.13 638.29
  Q 414.31 639.02 416.46 638.70
  C 418.78 639.63 423.78 638.72 426.29 638.81
  L 461.00 638.63
  C 538.28 639.63 615.66 639.02 692.96 638.97
  Q 693.50 638.97 693.50 639.51
  L 693.50 644.44
  Q 693.50 644.84 693.10 644.84
  L 454.43 644.99
  L 405.74 645.16
  Q 407.97 640.04 414.13 638.29
  Z"
/>
<path fill="#313342" d="
  M 418.98 638.45
  L 426.29 638.81
  C 423.78 638.72 418.78 639.63 416.46 638.70
  Q 417.92 638.15 418.98 638.45
  Z"
/>
<path fill="#cfced4" d="
  M 454.43 644.99
  Q 447.11 650.46 438.98 655.70
  Q 437.33 656.76 437.95 658.25
  L 390.08 658.16
  Q 389.11 658.16 389.88 657.56
  L 405.74 645.16
  L 454.43 644.99
  Z"
/>
<path fill="#faa73f" d="
  M 357.91 659.49
  C 343.32 669.27 328.68 678.50 313.76 687.77
  Q 312.08 688.81 308.33 689.81
  C 307.80 688.38 307.66 687.43 308.88 686.29
  C 322.05 673.94 334.49 660.92 348.22 649.15
  A 0.78 0.78 0.0 0 1 349.39 649.34
  Q 352.86 655.16 357.91 659.49
  Z"
/>
<path fill="#f16247" d="
  M 357.91 659.49
  Q 362.49 664.02 365.48 669.36
  Q 365.77 669.88 365.26 670.20
  Q 363.37 671.39 360.45 672.45
  Q 354.94 674.44 337.90 683.68
  Q 337.49 683.90 337.50 684.38
  L 337.54 685.52
  Q 324.78 691.16 311.60 695.85
  Q 311.10 696.02 310.72 695.66
  L 307.24 692.27
  Q 308.05 691.35 308.33 689.81
  Q 312.08 688.81 313.76 687.77
  C 328.68 678.50 343.32 669.27 357.91 659.49
  Z"
/>
<path fill="#cfced4" d="
  M 395.75 661.51
  L 432.02 661.48
  C 428.72 666.79 420.88 671.16 415.65 675.42
  Q 401.69 686.79 392.04 693.03
  Q 363.68 711.39 328.42 718.04
  C 325.61 718.57 321.10 718.48 317.39 720.17
  A 1.88 1.85 -54.1 0 1 316.43 720.33
  Q 310.87 719.85 305.41 720.85
  A 1.04 1.04 0.0 0 1 304.36 719.24
  C 309.66 711.39 318.55 697.95 327.64 694.55
  Q 351.34 685.67 373.55 673.54
  Q 376.93 671.70 385.64 664.10
  Q 386.01 663.78 386.49 663.82
  L 394.06 664.38
  Q 394.70 664.42 395.04 663.88
  Q 395.66 662.88 395.75 661.51
  Z"
/>
<path fill="#80a6b5" d="
  M 310.26 838.19
  C 248.65 804.08 194.32 751.37 158.90 690.43
  Q 165.98 700.74 172.83 711.08
  C 206.76 762.28 256.84 807.39 310.24 837.55
  Q 310.47 837.68 310.42 837.93
  Q 310.39 838.06 310.26 838.19
  Z"
/>
<path fill="#cfced4" d="
  M 816.97 769.03
  Q 817.56 770.83 817.61 772.96
  Q 817.93 787.52 817.68 802.33
  Q 817.67 802.89 817.11 802.89
  L 781.32 802.74
  Q 800.46 786.94 816.97 769.03
  Z"
/>
</svg>
