<?xml version="1.0" encoding="UTF-8"?><svg width="56px" height="56px" stroke-width="1.5" viewBox="0 0 24 24" fill="none" xmlns="http://www.w3.org/2000/svg" color="#000000"><path d="M7 22h10" stroke="#000000" stroke-width="1.5" stroke-linecap="round" stroke-linejoin="round"></path><path d="M2 17V4a2 2 0 012-2h16a2 2 0 012 2v13a2 2 0 01-2 2H4a2 2 0 01-2-2z" stroke="#000000" stroke-width="1.5"></path><path d="M12.485 6.121l3.06.765a.59.59 0 01.449.586C15.818 14 12 15 12 15s-3.818-1-3.994-7.528a.59.59 0 01.448-.586l3.06-.765a2 2 0 01.971 0z" stroke="#000000" stroke-width="1.5" stroke-linecap="round" stroke-linejoin="round"></path></svg>